<?xml version="1.0" encoding="UTF-8"?>
<svg version="1.1" xmlns="http://www.w3.org/2000/svg" width="3005" height="1971">
<path d="M0 0 C1.38445313 0.29801514 1.38445313 0.29801514 2.796875 0.60205078 C41.87922006 9.32112342 76.28248422 29.37110001 105 57 C105.62696777 57.59973633 106.25393555 58.19947266 106.89990234 58.81738281 C116.08375889 67.64792864 124.5156486 76.682179 132 87 C132.5885376 87.8053418 132.5885376 87.8053418 133.18896484 88.62695312 C137.78659563 94.96240752 142.00641248 101.49712077 146.0625 108.1875 C146.65442139 109.15997681 146.65442139 109.15997681 147.25830078 110.15209961 C150 114.7537548 150 114.7537548 150 117 C150.63164062 116.70867187 151.26328125 116.41734375 151.9140625 116.1171875 C174.99800472 105.53981916 197.88826956 97.1910472 223 93 C224.08498779 92.81453613 225.16997559 92.62907227 226.2878418 92.43798828 C237.41369252 90.73287123 248.45169251 90.60072981 259.6875 90.625 C260.67933289 90.62587616 261.67116577 90.62675232 262.6930542 90.62765503 C321.01106017 90.79712616 373.82256252 110.49617817 419 147 C420.10745791 147.88098199 421.21547357 148.76126362 422.32421875 149.640625 C430.37814413 156.1013455 437.35540692 163.11410931 444 171 C444.46180664 171.54269531 444.92361328 172.08539063 445.39941406 172.64453125 C468.40955985 199.79737543 484.20651475 230.77866555 492.56762695 265.3840332 C494.95058368 274.95039571 498.65119917 279.01739068 506.5 284.625 C513.82362596 289.99211584 520.46627581 295.6947277 527 302 C527.91136719 302.84820312 528.82273437 303.69640625 529.76171875 304.5703125 C550.8867015 324.76109487 565.9326718 352.7674962 573 381 C573.43420702 382.7146243 573.88981558 384.4240978 574.375 386.125 C574.63410156 387.11886719 574.63410156 387.11886719 574.8984375 388.1328125 C577.68941436 392.86361726 584.01927489 395.14132051 588.828125 397.484375 C589.84655487 397.98744171 589.84655487 397.98744171 590.88555908 398.50067139 C592.41120793 399.25390252 593.93777082 400.00528422 595.46508789 400.75512695 C603.47772578 404.69006296 611.47451288 408.65726536 619.47070312 412.62548828 C621.64830406 413.70423729 623.82733306 414.78010858 626.0078125 415.85302734 C645.8020529 425.59811347 664.53863772 436.44247066 682.83886719 448.75537109 C684.89420425 450.13791797 686.95451003 451.51280399 689.015625 452.88671875 C710.9035131 467.5167309 731.53895177 483.25946263 751 501 C752.32378662 502.19653198 752.32378662 502.19653198 753.67431641 503.41723633 C760.54743724 509.66068229 767.22266175 516.06511696 773.7746582 522.64428711 C775.32584727 524.20089389 776.88239392 525.75200171 778.43945312 527.30273438 C783.83630645 532.69568097 789.0712452 538.17107602 794 544 C794.8768935 545.00973219 795.75445538 546.01888449 796.6328125 547.02734375 C812.39292029 565.43060441 826.73445795 585.08992832 839 606 C839.33918457 606.57685547 839.67836914 607.15371094 840.02783203 607.74804688 C870.16067655 659.29432769 887.20295326 716.10072827 887.25 776 C887.25101212 777.1726944 887.25101212 777.1726944 887.25204468 778.36907959 C887.18342239 828.96871402 874.5453745 875.96215666 852 921 C851.57992676 921.84804199 851.15985352 922.69608398 850.72705078 923.56982422 C836.10285168 952.956017 816.95814661 979.82933555 796 1005 C795.22398437 1005.96292969 794.44796875 1006.92585937 793.6484375 1007.91796875 C786.73794888 1016.3590036 779.12688588 1024.08892274 771.4375 1031.8125 C770.90697021 1032.34820618 770.37644043 1032.88391235 769.82983398 1033.43585205 C760.79225965 1042.5428228 751.25240243 1050.80789413 740.875 1058.375 C740.25302734 1058.8292334 739.63105469 1059.2834668 738.99023438 1059.75146484 C731.5262725 1065.14189809 723.80055964 1070.11405931 716 1075 C715.40848145 1075.37302246 714.81696289 1075.74604492 714.20751953 1076.13037109 C704.55124083 1082.18872423 694.52505372 1087.54353541 684.47363281 1092.9128418 C678.8708693 1095.90690475 673.30113321 1098.92663588 667.8125 1102.125 C626.84465977 1125.69895186 582.29237264 1142.99401705 538.74163818 1161.12216187 C525.5071659 1166.63500184 512.35960252 1172.32207185 499.25 1178.125 C462.40800589 1194.41376538 424.93102726 1208.94452647 387.265625 1223.19921875 C382.94991592 1224.83275448 378.63427087 1226.46645918 374.31869888 1228.10035706 C372.43692479 1228.81271775 370.555059 1229.52483581 368.67318726 1230.23693848 C352.07652114 1236.51842178 335.51519078 1242.8822285 319 1249.375 C259.7125403 1272.67465883 199.96397538 1294.52794559 139.64013672 1314.98876953 C127.9665953 1318.95094875 116.31629307 1322.97252555 104.6859436 1327.05960083 C82.21881453 1334.95406518 59.65482524 1342.55501235 37.08670044 1350.1545105 C19.56615254 1356.05482728 2.0552671 1361.97163284 -15.38006592 1368.12042236 C-59.34694886 1383.62074651 -103.84536816 1397.36029225 -148.4687233 1410.82026196 C-157.04802272 1413.40824096 -165.62296699 1416.01016724 -174.1953125 1418.62109375 C-186.74435082 1422.44274987 -199.29696081 1426.25242195 -211.85369873 1430.04870605 C-213.92007545 1430.67348146 -215.98636251 1431.29855349 -218.05255127 1431.9239502 C-319.18013485 1462.52864918 -421.71469769 1490.11921495 -544.05151367 1517.28662109 C-553.46637571 1519.33909468 -562.87527126 1521.41445543 -572.27465534 1523.53694344 C-618.88230952 1534.05335438 -665.74377915 1542.82196952 -712.78567266 1551.15605593 C-719.73920806 1552.38937497 -726.68987111 1553.63800887 -733.63916016 1554.89501953 C-803.03486035 1567.44335989 -872.71485516 1578.7359391 -943 1585 C-944.13326721 1585.10143311 -945.26653442 1585.20286621 -946.43414307 1585.30737305 C-975.738042 1587.91540086 -1005.0601957 1590.14945988 -1034.4375 1591.75 C-1035.51499512 1591.80907532 -1036.59249023 1591.86815063 -1037.70263672 1591.92901611 C-1045.13332076 1592.33023755 -1052.56551952 1592.67746742 -1060 1593 C-1061.59513931 1593.0730838 -1061.59513931 1593.0730838 -1063.22250366 1593.14764404 C-1088.6262009 1594.27908088 -1114.04561632 1594.15392811 -1139.46899414 1594.13037109 C-1145.75055079 1594.12460196 -1152.03206536 1594.12801328 -1158.31362057 1594.13394356 C-1163.19582945 1594.13755584 -1168.07802832 1594.13640874 -1172.9602375 1594.13381577 C-1175.27860075 1594.13315209 -1177.59696492 1594.13395523 -1179.91532707 1594.13629532 C-1183.13620308 1594.13884079 -1186.35700999 1594.13495779 -1189.57788086 1594.12939453 C-1190.99052971 1594.13243088 -1190.99052971 1594.13243088 -1192.43171692 1594.13552856 C-1197.71790678 1594.11865383 -1202.76594896 1593.73738778 -1208 1593 C-1210.62959186 1592.85064655 -1213.2477416 1592.72788913 -1215.87890625 1592.640625 C-1217.43273999 1592.57982554 -1218.98653084 1592.51792288 -1220.5402832 1592.45507812 C-1221.35663239 1592.4222876 -1222.17298157 1592.38949707 -1223.0140686 1592.35571289 C-1245.34806322 1591.42926412 -1267.47003865 1589.13929634 -1289.67041016 1586.6015625 C-1297.77438465 1585.67942275 -1305.88718062 1584.84008658 -1314 1584 C-1314.13180664 1585.22799316 -1314.26361328 1586.45598633 -1314.39941406 1587.72119141 C-1314.79312554 1590.84998507 -1315.35700583 1593.54781791 -1316.609375 1596.4609375 C-1316.94525635 1597.24879639 -1317.2811377 1598.03665527 -1317.62719727 1598.84838867 C-1317.99772217 1599.68217041 -1318.36824707 1600.51595215 -1318.75 1601.375 C-1319.14050537 1602.27130127 -1319.53101074 1603.16760254 -1319.93334961 1604.09106445 C-1323.75585575 1612.72174515 -1328.00083954 1621.13493913 -1332.26831055 1629.55200195 C-1335.35868789 1635.6608874 -1338.33632879 1641.78266054 -1341.0625 1648.0625 C-1359.88366367 1691.26212044 -1383.57358798 1732.51771451 -1410.64794922 1771.07128906 C-1412.03498607 1773.0499079 -1413.41051094 1775.03619408 -1414.78515625 1777.0234375 C-1425.35792552 1792.23694667 -1436.44093664 1807.12374947 -1448.55078125 1821.15234375 C-1451.6273263 1824.72937938 -1454.587505 1828.39380726 -1457.5390625 1832.07421875 C-1465.12174678 1841.08918784 -1473.29216671 1849.45009269 -1481.62963867 1857.76000977 C-1483.56610549 1859.69109547 -1485.49713956 1861.62749882 -1487.42773438 1863.56445312 C-1493.44892699 1869.58913017 -1499.4777914 1875.51281876 -1506 1881 C-1507.0490174 1881.92465846 -1508.09595468 1882.85168306 -1509.140625 1883.78125 C-1528.42902589 1900.72932079 -1549.42612456 1915.18538499 -1571.78076172 1927.75097656 C-1573.15283884 1928.5232039 -1574.52223875 1929.30023661 -1575.88720703 1930.08496094 C-1620.72197329 1955.85206798 -1673.99480796 1968.20508919 -1725.4375 1968.25 C-1726.24447327 1968.25100708 -1727.05144653 1968.25201416 -1727.88287354 1968.25305176 C-1743.40616182 1968.24006699 -1758.61396469 1967.16468174 -1774 1965 C-1775.00095703 1964.86078125 -1776.00191406 1964.7215625 -1777.03320312 1964.578125 C-1832.0187878 1956.63371945 -1884.5822272 1934.63925272 -1928 1900 C-1929.01707031 1899.19691406 -1930.03414062 1898.39382813 -1931.08203125 1897.56640625 C-1941.92010567 1888.86803751 -1951.82833896 1879.27480643 -1961.6875 1869.5 C-1962.56647949 1868.63407227 -1963.44545898 1867.76814453 -1964.35107422 1866.87597656 C-1970.3382398 1860.89668735 -1975.71711552 1854.60280273 -1981 1848 C-1982.0243461 1846.78691418 -1983.05358585 1845.57792632 -1984.08984375 1844.375 C-1999.20345324 1826.59227993 -2011.77362705 1806.41158718 -2023 1786 C-2023.52480957 1785.05962891 -2024.04961914 1784.11925781 -2024.59033203 1783.15039062 C-2062.47597365 1715.17235087 -2085.37873426 1640.59406057 -2111.53471756 1462.50550079 C-2111.81902168 1459.30150321 -2112.10700398 1456.09785077 -2112.39547729 1452.89422607 C-2115.18281561 1421.82391063 -2117.68366136 1390.8461843 -2117.96606445 1359.63555908 C-2117.99677968 1356.34499668 -2118.03534474 1353.05465662 -2118.07639694 1349.76421452 C-2118.65416827 1302.76242734 -2117.58594011 1255.93036982 -2115 1209 C-2114.93188614 1207.76042667 -2114.93188614 1207.76042667 -2114.86239624 1206.49581146 C-2110.52567454 1127.74872869 -2110.52567454 1127.74872869 -2106.54785156 1090.22363281 C-2106.04914168 1085.5100927 -2105.5815695 1080.79382321 -2105.11791992 1076.07672119 C-2098.19231023 1005.80445432 -2089.23535952 935.71240226 -2078 866 C-2077.83143368 864.95360477 -2077.83143368 864.95360477 -2077.65946198 863.88607025 C-2064.84580901 784.43428734 -2049.81995308 705.29207214 -1996.66369629 497.19110107 C-1996.02239598 495.07393722 -1995.39126292 492.95407154 -1994.76464844 490.83251953 C-1987.90064907 467.59450888 -1979.62422656 444.88602611 -1971.25976562 422.15283203 C-1969.37804692 417.03659198 -1967.51275982 411.91454321 -1965.65258789 406.79043579 C-1945.96743739 352.59161821 -1945.96743739 352.59161821 -1933.10742188 328.125 C-1931.8048197 325.62547413 -1930.53587972 323.10986498 -1929.265625 320.59375 C-1915.93565827 294.3721581 -1899.96383167 271.14191809 -1880.1640625 249.453125 C-1877.92424326 246.91412413 -1875.84155331 244.28697694 -1873.75 241.625 C-1855.25927309 218.9260387 -1827.78238395 201.27608237 -1802 188 C-1801.05479492 187.51176758 -1800.10958984 187.02353516 -1799.13574219 186.52050781 C-1760.02355762 166.53307581 -1716.92773715 153.21992149 -1673 150 C-1671.92717773 149.91459961 -1670.85435547 149.82919922 -1669.74902344 149.74121094 C-1640.62322863 147.63981535 -1609.8093691 146.80216645 -1581 152 C-1579.88641113 152.19335938 -1578.77282227 152.38671875 -1577.62548828 152.5859375 C-1517.04391475 163.35747259 -1454.60811257 189.04718153 -1409.41455078 231.68261719 C-1407.52602723 233.44141475 -1405.58211375 235.13066429 -1403.625 236.8125 C-1396.24524625 243.23704554 -1390.07189933 250.33127 -1384 258 C-1383.566875 258.5455957 -1383.13375 259.09119141 -1382.6875 259.65332031 C-1381.34736317 261.34699614 -1380.0158966 263.04710467 -1378.6875 264.75 C-1377.48673828 266.28914062 -1377.48673828 266.28914062 -1376.26171875 267.859375 C-1370 276.55440415 -1370 276.55440415 -1370 280 C-1362.06752327 277.69907326 -1354.62956569 274.90708927 -1347.19018555 271.32250977 C-1306.431529 251.70565573 -1260.81554733 241.3855729 -1216 237 C-1215.09660889 236.90428711 -1214.19321777 236.80857422 -1213.26245117 236.70996094 C-1201.56318157 235.6222008 -1189.8016834 235.75613197 -1178.0625 235.75 C-1176.90315948 235.74932526 -1175.74381897 235.74865051 -1174.54934692 235.74795532 C-1156.51677845 235.76461049 -1138.85526346 236.26800343 -1121 239 C-1119.87029785 239.17160645 -1118.7405957 239.34321289 -1117.57666016 239.52001953 C-1094.14374084 243.21682437 -1070.96171222 248.94601716 -1049 258 C-1048.19401367 258.33225586 -1047.38802734 258.66451172 -1046.55761719 259.00683594 C-1022.46029418 269.09518068 -1001.43772087 282.64746687 -982 300 C-981.44425293 300.49258301 -980.88850586 300.98516602 -980.31591797 301.49267578 C-966.57960555 313.71303473 -952.75070431 327.02571611 -945 344 C-945 344.66 -945 345.32 -945 346 C-939.33233126 344.43650517 -934.60951893 342.32482539 -929.52734375 339.35546875 C-928.28065837 338.63263646 -927.03357741 337.91048609 -925.78613281 337.18896484 C-925.1554187 336.82317322 -924.52470459 336.45738159 -923.87487793 336.08050537 C-918.68460338 333.08931355 -913.4316919 330.20775606 -908.1875 327.3125 C-907.25948074 326.79967468 -907.25948074 326.79967468 -906.31271362 326.27648926 C-896.60476798 320.91796942 -886.8179036 315.73247385 -876.96142578 310.65136719 C-868.45077729 306.25798464 -860.04084815 301.6970188 -851.64453125 297.08984375 C-842.22211693 291.92121366 -832.74523967 286.85293968 -823.27929688 281.76464844 C-820.10634069 280.05722383 -816.93558557 278.34579119 -813.765625 276.6328125 C-726.66748567 229.58794861 -726.66748567 229.58794861 -681.92944336 209.07373047 C-672.04692209 204.52817368 -662.27033474 199.78086018 -652.5 195 C-640.62046727 189.18867528 -628.70263751 183.49757384 -616.68457031 177.97705078 C-605.31591416 172.73186941 -594.07295989 167.23354319 -582.83984375 161.70507812 C-563.67407156 152.29332575 -544.28432535 143.51837374 -524.47857666 135.53793335 C-521.32330604 134.26648436 -518.17088931 132.98816439 -515.01904297 131.70825195 C-510.71882536 129.96247696 -506.4177257 128.21890962 -502.11572266 126.47753906 C-481.25823533 118.03190537 -460.42333059 109.52562862 -439.70721436 100.73794556 C-438.17221816 100.0877083 -436.63615014 99.43999452 -435.09893799 98.79501343 C-432.98698411 97.90769073 -430.87971852 97.01006579 -428.7734375 96.109375 C-427.58153809 95.60374023 -426.38963867 95.09810547 -425.16162109 94.57714844 C-419.71637492 91.86083258 -416.19927273 88.27943589 -412.4375 83.5625 C-411.69371094 82.63566406 -410.94992187 81.70882812 -410.18359375 80.75390625 C-408.76431812 78.96394324 -407.35486354 77.16613336 -405.95703125 75.359375 C-404.16882497 73.20353349 -402.39623594 71.47455183 -400.25 69.6875 C-397.47206234 67.32167397 -394.89159322 64.89080276 -392.375 62.25 C-356.12820427 25.64992166 -302.65772024 8.14898788 -252.05908203 7.80932617 C-236.26399596 7.82366328 -221.02094479 8.54246675 -205.45703125 11.31640625 C-204.79608459 11.43308151 -204.13513794 11.54975677 -203.4541626 11.66996765 C-200.17981864 12.25001344 -196.9152724 12.85332035 -193.65283203 13.4987793 C-185.48260381 15.00267295 -179.05605973 14.91819735 -171 13 C-169.75355713 12.72172363 -168.50711426 12.44344727 -167.22290039 12.15673828 C-164.41907934 11.52808265 -161.61893684 10.88534636 -158.82055664 10.23291016 C-133.19790523 4.27196423 -107.28258554 -0.25775751 -81 -2 C-79.71754395 -2.08540039 -78.43508789 -2.17080078 -77.11376953 -2.25878906 C-51.82619163 -3.84916474 -24.885456 -5.40967042 0 0 Z M-90 167 C-91.12583496 167.18771973 -92.25166992 167.37543945 -93.41162109 167.56884766 C-121.69987815 172.34089732 -149.75014407 179.55809584 -177.29833984 187.51513672 C-178.11537888 187.74990219 -178.93241791 187.98466766 -179.7742157 188.22654724 C-181.26602649 188.65900159 -182.75557349 189.09939344 -184.24201965 189.54994202 C-188.6040999 190.81762687 -192.46404068 191.28975514 -197 191 C-198.9765625 189.8984375 -198.9765625 189.8984375 -200.625 188.375 C-214.43404613 177.15845678 -235.01443645 172.96814798 -252.44140625 174.25390625 C-266.79416348 176.1348461 -277.43018123 180.92003858 -286.5 192.375 C-293.3774085 201.96242061 -299.36325628 212.75133223 -302.953125 224.01953125 C-306.31267652 230.37510074 -313.89120191 232.05323413 -320.19921875 234.28125 C-322.52149366 235.12139361 -324.84375885 235.96156408 -327.16601562 236.80175781 C-328.39102783 237.24088501 -329.61604004 237.68001221 -330.87817383 238.13244629 C-337.37089129 240.4598951 -343.84806644 242.83004667 -350.32421875 245.203125 C-350.98375423 245.44461021 -351.64328972 245.68609543 -352.32281113 245.93489838 C-373.74649776 253.78782204 -394.88325698 262.36129062 -416 271 C-416.88292725 271.36055481 -417.76585449 271.72110962 -418.67553711 272.09259033 C-461.73002205 289.67698462 -504.71662548 307.62509199 -547 327 C-547.69685913 327.3192041 -548.39371826 327.6384082 -549.11169434 327.96728516 C-574.45172874 339.60145319 -599.37442451 352.09762281 -624.3125 364.5625 C-625.10297226 364.95744156 -625.89344452 365.35238312 -626.70787048 365.7592926 C-652.47896708 378.63637417 -652.47896708 378.63637417 -678 392 C-679.13348877 392.60320068 -680.26697754 393.20640137 -681.43481445 393.82788086 C-684.46042613 395.44065184 -687.48134743 397.06174602 -690.5 398.6875 C-692.12820679 399.56341797 -692.12820679 399.56341797 -693.78930664 400.45703125 C-701.71285414 404.73296072 -709.58092384 409.10253063 -717.4375 413.5 C-727.73805968 419.26277589 -738.14491208 424.75564343 -748.64160156 430.15014648 C-755.17473768 433.51403085 -761.63685693 436.95813571 -768.01416016 440.60791016 C-773.81098133 443.92059579 -779.68386366 447.08522541 -785.5625 450.25 C-796.47105103 456.13320564 -807.26563761 462.2022146 -818.04199219 468.32324219 C-834.60499561 477.71204274 -851.24893517 486.95111342 -868 496 C-869.07088867 496.57862793 -870.14177734 497.15725586 -871.24511719 497.75341797 C-884.04357218 504.65944225 -896.87856973 511.47517393 -909.8125 518.125 C-919.21012249 522.96286947 -928.46839203 527.99267646 -937.64086914 533.24438477 C-943.20790322 536.43144019 -948.8096856 539.53391549 -954.46264648 542.56591797 C-965.63982633 548.56715406 -976.3863151 555.05532694 -987 562 C-988.1444458 562.7425 -988.1444458 562.7425 -989.31201172 563.5 C-1003.95798468 573.01415287 -1018.34627056 582.90125869 -1031 595 C-1031.75539063 595.69222656 -1032.51078125 596.38445312 -1033.2890625 597.09765625 C-1043.87141643 607.11634528 -1052.98444202 619.77500079 -1054.02734375 634.75 C-1053.93619682 642.25009058 -1052.17502759 647.60616698 -1047.53515625 653.50390625 C-1045.96148298 655.25486751 -1045.96148298 655.25486751 -1043 656 C-1040.42251621 654.58564066 -1038.01673723 653.10756988 -1035.5625 651.5 C-1028.2341478 646.85716707 -1020.75969782 642.57262704 -1013.109375 638.484375 C-1012.52969782 638.17408607 -1011.95002064 637.86379715 -1011.35277748 637.54410553 C-992.97122381 627.72433431 -974.27571666 618.50759548 -955.62457275 609.21447754 C-951.70062328 607.25792544 -947.77893268 605.2968693 -943.85723686 603.33580494 C-906.74801907 584.78170479 -906.74801907 584.78170479 -888.1847229 576.03082275 C-867.97864085 566.4969413 -848.0143653 556.51328989 -828.13830566 546.31161499 C-815.71008552 539.93344995 -803.25878608 533.60532689 -790.76171875 527.36328125 C-789.79386539 526.87982333 -789.79386539 526.87982333 -788.80645943 526.38659859 C-782.44366879 523.20909957 -776.07843698 520.03652788 -769.71049976 516.86935616 C-758.30894606 511.19746537 -746.93329946 505.49698449 -735.68505859 499.52601624 C-727.27558906 495.06718247 -718.76852665 490.80828051 -710.25 486.5625 C-709.42749756 486.15169189 -708.60499512 485.74088379 -707.75756836 485.31762695 C-697.14848697 480.01975347 -686.51226043 474.79288438 -675.79394531 469.71899414 C-669.48614568 466.72915316 -663.23487375 463.638872 -657 460.5 C-646.91311414 455.42899241 -636.75416251 450.52592743 -626.55322266 445.68896484 C-623.23056336 444.10959443 -619.91169216 442.52257118 -616.59368896 440.93345642 C-570.24139903 418.74319681 -522.9896393 398.67129303 -475.16888428 379.85491943 C-472.75687009 378.90416433 -470.34637289 377.94962597 -467.93603516 376.99462891 C-369.22331827 337.89857466 -369.22331827 337.89857466 -338.75390625 331.5859375 C-336.05519887 331.13230157 -336.05519887 331.13230157 -334 330 C-334.2575708 330.72195557 -334.5151416 331.44391113 -334.78051758 332.18774414 C-337.32665819 339.53649593 -339.23322579 346.80175428 -340.6875 354.4375 C-340.93387207 355.72785156 -341.18024414 357.01820313 -341.43408203 358.34765625 C-345.97887852 382.76069698 -349.29256762 407.40883188 -352.72103882 431.9994278 C-352.99422403 433.95857757 -353.26822142 435.91761405 -353.54223633 437.87664795 C-359.18626193 478.36817707 -363.20903963 518.90255961 -366.65242386 559.63144684 C-367.51029643 569.76853561 -368.49625332 579.88198547 -369.59765625 589.99609375 C-371.13410915 604.28791164 -371.94763957 618.58263721 -372.625 632.9375 C-372.75070274 635.49000775 -372.87676407 638.04249787 -373.00317383 640.5949707 C-375.17445375 681.45472913 -375.17445375 681.45472913 -374 722.3125 C-373.64633569 727.54035581 -373.32222978 732.7701259 -373 738 C-372.93683594 738.99789551 -372.87367187 739.99579102 -372.80859375 741.02392578 C-371.90060552 756.9224505 -371.90060552 756.9224505 -377.046875 763.0546875 C-378.01367188 764.01761719 -378.01367188 764.01761719 -379 765 C-379.72703125 765.76570312 -380.4540625 766.53140625 -381.203125 767.3203125 C-388.43646077 774.39031488 -397.49840909 780.61133811 -407.90625 781.1015625 C-412.91260666 780.85871684 -416.71178231 779.97332003 -420.8125 776.875 C-434.81120981 758.47669568 -426.80244107 722.31954561 -424 701 C-417.5412785 653.69508253 -404.38753952 607.43608992 -388.74487305 562.41748047 C-388.50058563 561.70615463 -388.25629822 560.9948288 -388.00460815 560.26194763 C-387.35067441 558.35995966 -386.68802328 556.46097499 -386.0246582 554.56225586 C-383.91039895 547.43925468 -383.91039895 547.43925468 -385.11328125 540.359375 C-396.75807919 525.79735025 -412.88941907 514.67808276 -431.6875 512 C-437.0880372 511.69954215 -440.74084401 512.66581223 -445 516 C-449.92730052 521.90999507 -451.94944994 529.1151994 -454.0625 536.375 C-454.2460907 536.99637848 -454.4296814 537.61775696 -454.61883545 538.25796509 C-462.68301062 565.66159763 -469.10382443 593.70428803 -474.8125 621.6875 C-474.95018799 622.36067261 -475.08787598 623.03384521 -475.22973633 623.72741699 C-477.02710095 632.64780885 -478.37975956 641.58200784 -479.51953125 650.609375 C-482.34889271 672.7237454 -485.38768116 691.38768207 -496.36865234 711.01660156 C-498.50427833 714.92222108 -500.36045526 718.93187328 -502.22216797 722.97338867 C-519.72492858 760.8641555 -542.14434254 799.62326912 -571 830 C-571.61488281 830.67933594 -572.22976563 831.35867188 -572.86328125 832.05859375 C-579.05903224 838.69795459 -588.71191828 846.11399791 -597.9921875 847.2421875 C-602.32619812 847.38938031 -606.11669755 846.94165122 -610 845 C-611.1875 843 -611.1875 843 -612 840 C-612.25652344 839.37867188 -612.51304688 838.75734375 -612.77734375 838.1171875 C-627.98205412 797.8982762 -596.91723172 735.19181941 -580.51171875 698.68847656 C-564.13836634 662.82046644 -543.04908378 629.62239844 -517 600 C-516.55446777 599.49130371 -516.10893555 598.98260742 -515.64990234 598.45849609 C-502.15187397 583.13417817 -487.2085059 570.42940484 -469 561 C-470.03410698 552.29498009 -472.22219866 544.90190113 -476 537 C-476.4434375 536.06027344 -476.886875 535.12054687 -477.34375 534.15234375 C-482.45594403 524.05576054 -489.31717434 515.39160137 -500 511 C-512.04904644 507.15827505 -523.80829549 511.30031744 -534.57080078 516.68432617 C-547.59504374 523.45686658 -558.36977721 532.87236056 -569.30615234 542.53125 C-570.91665631 543.92773197 -572.5602474 545.27058997 -574.21875 546.609375 C-576.74804797 548.78343449 -578.63315379 550.84420505 -580.625 553.5 C-583.78873716 557.57623821 -587.13908034 561.32886537 -590.6875 565.0625 C-643.99642438 621.77899118 -678.42681916 707.81409042 -689 784 C-689.18530273 785.24434814 -689.37060547 786.48869629 -689.56152344 787.77075195 C-690.79324441 796.73052762 -691.10064158 805.48636057 -690.9140625 814.52734375 C-690.88354042 816.16358704 -690.88354042 816.16358704 -690.85240173 817.83288574 C-690.7615607 822.34612061 -690.66232639 826.85787655 -690.50634766 831.36938477 C-689.75221825 854.39338361 -689.75221825 854.39338361 -696.81762695 862.01708984 C-697.53781006 862.6714502 -698.25799316 863.32581055 -699 864 C-700.52097711 865.56236004 -702.04182689 867.12484406 -703.5625 868.6875 C-704.31660156 869.41453125 -705.07070312 870.1415625 -705.84765625 870.890625 C-709.85158057 874.81461617 -713.41679199 879.13882417 -717.046875 883.40625 C-721.77679995 888.84063185 -726.74395984 893.46294971 -732.3984375 897.92578125 C-734.58763806 899.67122494 -736.63661004 901.47318354 -738.6875 903.375 C-758.04682824 920.37343455 -783.60471612 934.4320022 -810 933 C-822.4683344 931.88479707 -833.67837904 926.40704979 -842 917 C-857.18638469 897.15645734 -862.52840178 871.67229838 -862 847 C-853.96566639 847.49892007 -846.96662271 849.79320678 -839.375 852.375 C-820.02492762 858.73104531 -797.94623099 865.37911897 -778.53515625 855.78125 C-761.02733314 846.06966862 -749.8999626 829.38634338 -741 812 C-740.63165039 811.28779297 -740.26330078 810.57558594 -739.88378906 809.84179688 C-719.22383707 769.45365135 -708.56577434 721.81608879 -708.68432617 676.52050781 C-708.68749973 674.00021516 -708.66383429 671.48108797 -708.63867188 668.9609375 C-708.54025922 643.71587341 -712.90730476 618.28756559 -731.2265625 599.6640625 C-739.39183389 591.82080181 -748.24450825 588.78590524 -759 586 C-760.3293457 585.65291992 -760.3293457 585.65291992 -761.68554688 585.29882812 C-784.74621982 579.42623439 -805.16853798 578.47271344 -826.63671875 589.97265625 C-858.02295278 608.89188443 -876.01227421 641.21618212 -892 673 C-892.43699219 673.85932129 -892.87398437 674.71864258 -893.32421875 675.60400391 C-910.62553239 709.80071576 -921.37693775 746.78934416 -930 784 C-930.24733887 785.03962891 -930.49467773 786.07925781 -930.74951172 787.15039062 C-933.45010142 798.70837483 -935.08607567 810.21653226 -936.203125 822.01953125 C-936.30643631 823.09899521 -936.40974762 824.17845917 -936.51618958 825.29063416 C-937.03255326 830.74721167 -937.51613446 836.2039634 -937.94995117 841.66772461 C-938.93242655 853.21142849 -940.31974456 862.72102246 -946 873 C-946.44722412 873.83305664 -946.89444824 874.66611328 -947.35522461 875.52441406 C-948.59313733 877.72796924 -949.8961558 879.86605504 -951.25 882 C-951.95552002 883.13127319 -951.95552002 883.13127319 -952.67529297 884.28540039 C-976.30181251 921.76727084 -976.30181251 921.76727084 -995 928 C-998.882287 928.35947102 -1001.26674697 928.38329136 -1004.75 926.5625 C-1009.99041332 920.59425149 -1010.63462994 912.67277122 -1011 905 C-1011.04125 904.154375 -1011.0825 903.30875 -1011.125 902.4375 C-1012.23840951 853.4474817 -994.45624638 803.16461767 -980 757 C-979.33075122 754.85827964 -978.66164807 752.71651377 -977.99267578 750.57470703 C-977.29854113 748.35317806 -976.60436768 746.13166122 -975.91015625 743.91015625 C-975.56796051 742.81506744 -975.22576477 741.71997864 -974.87319946 740.59170532 C-973.20425167 735.25359324 -971.53122632 729.91683558 -969.84863281 724.58300781 C-969.53977646 723.60126083 -969.2309201 722.61951385 -968.91270447 721.60801697 C-968.33761462 719.7803935 -967.7607391 717.95333048 -967.18165588 716.12696838 C-963.41620391 705.24201303 -963.41620391 705.24201303 -964 694 C-969.09432031 685.1403125 -981.57058531 679.02104351 -991 676 C-1000.44551434 673.57043513 -1009.92741759 672.22430257 -1019.625 671.3125 C-1020.28121338 671.24929565 -1020.93742676 671.18609131 -1021.61352539 671.12097168 C-1037.78224255 669.58892202 -1054.94843565 668.14023854 -1071 671 C-1073.22079286 655.17685085 -1071.72076741 639.84498355 -1068.42578125 624.2890625 C-1067.3127505 618.3052458 -1066.58306808 612.10392921 -1070.0625 606.9375 C-1080.00863927 600.37728048 -1091.09322522 599.49599393 -1102.59375 601.68359375 C-1113.00406326 604.61453475 -1120.80874648 610.07453808 -1127 619 C-1135.30939561 635.71951116 -1133.00983146 654.83054613 -1127.31835938 672.06396484 C-1124.70158647 679.48356131 -1121.48443623 686.4334685 -1117.19921875 693.046875 C-1113.51968742 702.10787072 -1115.31730272 711.77114294 -1116.875 721.125 C-1116.98536591 721.8047287 -1117.09573181 722.4844574 -1117.20944214 723.18478394 C-1127.62119246 787.02807272 -1146.60942401 849.65898963 -1166.08666992 911.21044922 C-1175.83950303 942.04470538 -1184.9277829 973.05768106 -1193.6875 1004.1875 C-1197.86413893 1019.02192171 -1202.04114146 1033.85520761 -1206.48770142 1048.61148071 C-1206.94729271 1050.13908914 -1207.40359625 1051.66769134 -1207.85629272 1053.19735718 C-1208.47079325 1055.26894301 -1209.09841016 1057.3360579 -1209.73046875 1059.40234375 C-1210.24710083 1061.11151978 -1210.24710083 1061.11151978 -1210.77416992 1062.85522461 C-1213.55315617 1069.98450601 -1217.55541393 1074.35447202 -1224.41796875 1077.6328125 C-1225.66953766 1078.14251468 -1226.9263298 1078.63954067 -1228.1875 1079.125 C-1228.85604004 1079.38361816 -1229.52458008 1079.64223633 -1230.21337891 1079.90869141 C-1246.85429322 1086.18063476 -1263.71004392 1085.75413411 -1279.9375 1078.5 C-1301.12372068 1067.33058055 -1312.41517352 1044.26918542 -1319.5559082 1022.40332031 C-1338.15484799 962.19255378 -1330.04290706 891.83585463 -1300.93359375 836.28125 C-1294.48489047 824.41337708 -1286.73811325 813.29286763 -1278 803 C-1277.46890625 802.33613281 -1276.9378125 801.67226563 -1276.390625 800.98828125 C-1275.89046875 800.37339844 -1275.3903125 799.75851562 -1274.875 799.125 C-1274.45992187 798.61195313 -1274.04484375 798.09890625 -1273.6171875 797.5703125 C-1271.31863889 795.33838848 -1268.69135778 793.72217077 -1266 792 C-1266.32613281 792.99515625 -1266.65226562 793.9903125 -1266.98828125 795.015625 C-1277.51849951 828.2303433 -1276.17317195 863.7963959 -1260.1640625 895.140625 C-1255.31163119 904.08880748 -1248.80489669 912.35101856 -1239 916 C-1236.00859286 916.47292482 -1233.01925271 916.77224047 -1230 917 C-1229.86464844 915.99066406 -1229.72929688 914.98132813 -1229.58984375 913.94140625 C-1223.14899052 869.37681094 -1205.63235957 818.77184763 -1179.6796875 781.65625 C-1177.70412933 779.17868517 -1177.70412933 779.17868517 -1178.375 776.625 C-1181.96358147 770.8280607 -1185.98858623 765.64472496 -1191 761 C-1191.51175781 760.50628906 -1192.02351563 760.01257813 -1192.55078125 759.50390625 C-1198.59157641 753.93526519 -1205.15430796 751.51491512 -1212.93530273 749.24853516 C-1219.05139059 747.45575559 -1224.24080707 745.72553974 -1229.16796875 741.5390625 C-1244.29887319 728.82781229 -1263.90490183 725.52476124 -1283 727 C-1297.74146919 728.96000186 -1309.93750753 736.46471888 -1321 746 C-1321.63550781 746.51433594 -1322.27101563 747.02867187 -1322.92578125 747.55859375 C-1327.4800879 751.28484465 -1331.27825474 755.45120023 -1335 760 C-1335.75152344 760.91394531 -1336.50304688 761.82789063 -1337.27734375 762.76953125 C-1344.37198684 771.67986498 -1350.28165277 781.16167077 -1356 791 C-1356.53705566 791.90709717 -1356.53705566 791.90709717 -1357.08496094 792.83251953 C-1398.55413037 863.3705653 -1409.47053682 961.90872449 -1390.0625 1074.9375 C-1379.7554607 1114.55381529 -1362.06979539 1156.54442605 -1325.21484375 1178.21875 C-1306.21256321 1188.74735259 -1285.09529656 1192.6927445 -1263.75 1187.3125 C-1261.48404525 1186.58991221 -1259.23178106 1185.82209326 -1257 1185 C-1255.99453125 1184.63777344 -1254.9890625 1184.27554688 -1253.953125 1183.90234375 C-1240.82245598 1178.77860386 -1228.93152649 1171.88366796 -1218 1163 C-1217.47696289 1162.57847656 -1216.95392578 1162.15695312 -1216.41503906 1161.72265625 C-1205.26453885 1152.69510412 -1195.05719341 1142.94693398 -1186.1328125 1131.6875 C-1184.74116111 1129.9339173 -1183.32016088 1128.20311898 -1181.8671875 1126.5 C-1138.33403469 1075.32123971 -1104.440068 991.0598232 -1103.76171875 923.30859375 C-1103.753647 922.519048 -1103.74557526 921.72950226 -1103.73725891 920.91603088 C-1103.7235456 919.26150631 -1103.71276759 917.60695496 -1103.70483398 915.95239258 C-1103.69326507 914.27392175 -1103.67273646 912.59548908 -1103.64331055 910.91723633 C-1103.60044962 908.46410702 -1103.58444874 906.01205176 -1103.57421875 903.55859375 C-1103.55671066 902.81878769 -1103.53920258 902.07898163 -1103.52116394 901.3167572 C-1103.5437409 895.82900087 -1104.90125478 891.56120371 -1108 887 C-1109.08087074 885.97486466 -1110.18554366 884.97424505 -1111.3125 884 C-1112.86528015 882.52233887 -1112.86528015 882.52233887 -1114 881 C-1113.92797702 873.43923644 -1110.86786082 866.69735456 -1108.19921875 859.71875 C-1107.18574572 857.02050923 -1106.18082451 854.31912209 -1105.17724609 851.6171875 C-1104.916176 850.9157235 -1104.65510592 850.21425949 -1104.38612461 849.491539 C-1099.79236339 837.1001438 -1095.59230995 824.56717857 -1091.35571289 812.05029297 C-1090.32774248 809.01460732 -1089.29339662 805.98121577 -1088.25317383 802.94970703 C-1082.87057777 787.25825595 -1077.6653273 771.56453633 -1073.38671875 755.53125 C-1073.06725784 754.33777954 -1072.74779694 753.14430908 -1072.4186554 751.91467285 C-1070.03289655 742.71034746 -1067.82267257 733.55338473 -1068 724 C-1067.40574219 723.89695557 -1066.81148437 723.79391113 -1066.19921875 723.68774414 C-1059.5868385 722.4633483 -1053.35307657 720.62277811 -1047 718.4375 C-1046.06027344 718.12103516 -1045.12054687 717.80457031 -1044.15234375 717.47851562 C-1039.49100589 715.94747575 -1039.49100589 715.94747575 -1035 714 C-1036.5354376 723.40455529 -1038.93276673 732.42883487 -1041.625 741.5625 C-1054.26764104 784.87787863 -1061.63517984 828.7716864 -1066.72009277 873.55126953 C-1066.95859325 875.63775869 -1067.20546892 877.72328771 -1067.45410156 879.80859375 C-1070.95881194 909.75283918 -1071.97544663 943.33658843 -1066 973 C-1065.82307617 973.90057129 -1065.64615234 974.80114258 -1065.46386719 975.72900391 C-1061.93104651 993.16429766 -1057.58127853 1014.28787101 -1042 1025 C-1035.50815449 1028.6204523 -1029.56489735 1029.03122681 -1022.40625 1027.4140625 C-990.7111014 1017.25297074 -969.31619143 984.1559025 -953.68945312 956.93017578 C-950.77041703 951.86741983 -947.78861357 946.84183678 -944.8125 941.8125 C-943.98310913 940.40460205 -943.98310913 940.40460205 -943.13696289 938.96826172 C-942.62383545 938.09830566 -942.11070801 937.22834961 -941.58203125 936.33203125 C-941.13061768 935.56608643 -940.6792041 934.8001416 -940.21411133 934.01098633 C-939.18848043 932.31218848 -938.1007456 930.6511184 -937 929 C-935.51666794 932.4667298 -934.52305529 935.78020051 -933.7734375 939.47265625 C-927.651008 968.45732248 -917.26917246 998.31270211 -892.03125 1016.0703125 C-874.04424951 1027.52079992 -853.9604322 1032.05725206 -833.0456543 1027.51489258 C-798.09349625 1019.14030566 -769.94498685 1000.11830194 -743.171875 976.7265625 C-740.3004734 974.22840839 -737.31835265 971.89755502 -734.3125 969.5625 C-728.56169859 964.88787195 -724.06205119 959.46272527 -719.41796875 953.73242188 C-717.01695662 950.79895389 -714.53697031 947.93399353 -712.0625 945.0625 C-711.05721151 943.88939161 -710.05200349 942.71621424 -709.046875 941.54296875 C-707.00377747 939.1626418 -704.95065936 936.79146061 -702.890625 934.42578125 C-695.76343592 926.21888545 -688.78016453 917.9260474 -682.921875 908.7421875 C-680.80814477 905.72625535 -679.49102925 904.96973035 -676 904 C-675.690625 905.918125 -675.690625 905.918125 -675.375 907.875 C-673.0560059 918.09456708 -666.17859489 925.70176186 -659 933 C-658.2884375 933.72445312 -657.576875 934.44890625 -656.84375 935.1953125 C-646.84649143 944.7216857 -634.02143288 949.86058862 -620.25 950.4375 C-602.05208408 949.86583772 -587.46469369 942.07712083 -575 929 C-571.63366079 925.15382071 -568.54996677 921.10136197 -565.49951172 917.00292969 C-563.92836001 914.90430894 -562.32704732 912.83110735 -560.72265625 910.7578125 C-534.65237263 876.68671263 -514.66252962 836.31925034 -498.67504883 796.546875 C-495.99621097 789.96678024 -492.83481109 783.98197648 -489 778 C-487.2940924 779.7059076 -487.74958506 781.97140049 -487.640625 784.30859375 C-486.37854596 807.65538653 -482.93732055 829.9535932 -475 852 C-474.76168457 852.68126953 -474.52336914 853.36253906 -474.27783203 854.06445312 C-469.24279139 868.31600261 -461.79331909 882.44343943 -447.8359375 889.62890625 C-437.30187328 894.12702856 -427.96562788 895.96209778 -416.99609375 891.58984375 C-392.67969102 878.6866157 -376.69492376 852.51550333 -363.66601562 829.25708008 C-363.23095703 828.4864624 -362.79589844 827.71584473 -362.34765625 826.921875 C-361.96617432 826.23706055 -361.58469238 825.55224609 -361.19165039 824.84667969 C-359.95773455 822.93450198 -358.73454466 821.47242933 -357 820 C-356.34 820 -355.68 820 -355 820 C-354.79246094 820.52207031 -354.58492187 821.04414062 -354.37109375 821.58203125 C-347.95640658 836.90749725 -338.98085904 847.60944288 -324 855 C-315.1389858 858.44786545 -306.41260645 857.93633541 -297.69140625 854.2890625 C-257.59416061 835.08428592 -230.49146436 780.2845645 -215.63574219 740.51928711 C-211.34452015 729.17226008 -211.34452015 729.17226008 -207 727 C-206.89623047 727.60658447 -206.79246094 728.21316895 -206.68554688 728.83813477 C-205.52759321 735.14086688 -203.80946993 740.96595206 -201.5 746.9375 C-200.97768799 748.29004883 -200.97768799 748.29004883 -200.44482422 749.66992188 C-193.18179861 767.97620042 -183.0678374 789.9866173 -164.6875 799.4375 C-157.82971424 802.15940466 -150.93319445 801.94681568 -144 799.5625 C-122.39027419 789.76472542 -108.67546239 765.35749843 -97.25 745.6875 C-83.18768418 721.59384209 -83.18768418 721.59384209 -80 720 C-79.90275635 720.61311035 -79.8055127 721.2262207 -79.70532227 721.85791016 C-78.58769389 728.18650348 -76.74690802 733.6087305 -73.9375 739.375 C-73.54119385 740.19645508 -73.1448877 741.01791016 -72.73657227 741.86425781 C-66.56162815 754.28485616 -57.70858621 767.30353991 -44 772 C-29.75298653 775.6115681 -13.95548056 768.84921201 -1.515625 762.11328125 C13.30300413 753.26036784 25.63976279 741.4217982 37.8125 729.3125 C38.42246826 728.70720459 39.03243652 728.10190918 39.66088867 727.47827148 C76.39708171 690.61225093 101.15315201 640.05153246 118.07104492 591.46362305 C120.75877447 583.87920375 123.89893794 576.92742171 128 570 C128.09498779 570.58789307 128.18997559 571.17578613 128.2878418 571.78149414 C132.40319341 596.82774387 139.77402156 622.56302432 157 642 C157.85464844 642.99966797 157.85464844 642.99966797 158.7265625 644.01953125 C169.13501797 655.34057642 183.94371426 660.71791453 199 662 C205.6666239 662.20751115 212.33247054 662.11859242 219 662 C219 662.66 219 663.32 219 664 C218.29415771 664.26538574 217.58831543 664.53077148 216.86108398 664.80419922 C213.84563177 666.06451878 211.07503093 667.53769365 208.22265625 669.1328125 C206.51505127 670.08293213 206.51505127 670.08293213 204.77294922 671.05224609 C204.16932556 671.3895575 203.5657019 671.7268689 202.94378662 672.07440186 C191.81510273 678.2891777 180.62739758 684.38734433 169.375 690.375 C168.21750244 690.99133301 167.06000488 691.60766602 165.86743164 692.24267578 C162.9032225 693.81771829 159.93749353 695.38977337 156.9699707 696.95855713 C155.59620709 697.68480972 154.22269107 698.41153077 152.84936523 699.13861084 C141.39960241 705.19815956 129.89985081 711.1534851 118.36132812 717.04211426 C106.55249494 723.06963153 94.74450719 729.09785446 83 735.25 C-6.36528672 781.99063893 -6.36528672 781.99063893 -50.22412109 801.32373047 C-56.5617189 804.12633342 -62.85391214 807.02975481 -69.15255737 809.91851807 C-72.82706066 811.60326458 -76.50352638 813.28371867 -80.1796875 814.96484375 C-81.65072666 815.63783509 -83.1217553 816.31084942 -84.59277344 816.98388672 C-91.16581918 819.99099966 -97.7399332 822.99577561 -104.31396484 826.00073242 C-106.50231561 827.0010585 -108.69061879 828.00148859 -110.87890625 829.00195312 C-117.4226052 831.99363197 -123.96645481 834.98497852 -130.51121521 837.97433472 C-132.68178531 838.96580198 -134.85225209 839.95749514 -137.02270508 840.94921875 C-139.92841412 842.27687183 -142.83456503 843.60355164 -145.7409668 844.9296875 C-153.20217137 848.33611439 -160.65329394 851.76271404 -168.08984375 855.22265625 C-188.22991954 864.58114474 -208.5342049 873.42649838 -229.04541016 881.93896484 C-234.11359886 884.04417385 -239.17259052 886.17094306 -244.23046875 888.30078125 C-304.76911938 913.77814247 -365.70612094 938.39369948 -427 962 C-428.01799683 962.3921167 -429.03599365 962.7842334 -430.08483887 963.18823242 C-478.18036534 981.70388111 -526.48883156 999.60370013 -575 1017 C-575.97090576 1017.34826843 -576.94181152 1017.69653687 -577.94213867 1018.05535889 C-610.50668887 1029.7297109 -643.20777594 1040.98219742 -676 1052 C-677.08424255 1052.36503632 -678.16848511 1052.73007263 -679.2855835 1053.10617065 C-696.13422134 1058.77496761 -713.04055144 1064.23509585 -730 1069.5625 C-732.4997924 1070.34908636 -734.99954744 1071.13579147 -737.49926758 1071.92260742 C-741.32007353 1073.12508692 -745.14100395 1074.32716711 -748.96235657 1075.52790833 C-755.82475339 1077.68457275 -762.68486579 1079.84817218 -769.54162598 1082.02268982 C-855.0262535 1109.13127498 -941.21703997 1134.03306957 -1071 1168 C-1071.80272339 1168.2032489 -1072.60544678 1168.4064978 -1073.43249512 1168.61590576 C-1093.17201359 1173.60039968 -1113.03186978 1177.30360345 -1133.11761475 1180.53381348 C-1136.22466103 1181.03633586 -1139.33042279 1181.54630953 -1142.43603516 1182.05761719 C-1186.81605355 1189.3572506 -1231.3141194 1195.70313849 -1275.88534546 1201.71465302 C-1277.90515573 1201.98720192 -1279.92487031 1202.26045972 -1281.94458008 1202.53375244 C-1330.59576865 1209.11099357 -1330.59576865 1209.11099357 -1352 1210 C-1353.19713623 1210.04979004 -1353.19713623 1210.04979004 -1354.41845703 1210.10058594 C-1386.98531974 1211.23395474 -1417.16887404 1203.96638392 -1442.0546875 1182.203125 C-1480.79099111 1145.80033365 -1490.53463605 1081.25864547 -1493 1031 C-1493.13419534 1026.2689342 -1493.16360347 1021.54140167 -1493.16796875 1016.80859375 C-1493.17129715 1015.50261734 -1493.17462555 1014.19664093 -1493.17805481 1012.85108948 C-1493.1839834 1010.1006691 -1493.18590174 1007.35027981 -1493.18530273 1004.59985352 C-1493.18522231 1001.85173846 -1493.19204129 999.1037931 -1493.20581055 996.35571289 C-1493.30207977 976.81137969 -1492.62022899 957.48975791 -1491 938 C-1490.92901093 937.13976227 -1490.85802185 936.27952454 -1490.78488159 935.39321899 C-1490.38881991 930.73202048 -1489.91114927 926.0850296 -1489.375 921.4375 C-1489.29485657 920.74230255 -1489.21471313 920.0471051 -1489.13214111 919.33084106 C-1479.18529066 834.49620299 -1454.85878396 748.25096343 -1412 674 C-1411.51466797 673.1558252 -1411.02933594 672.31165039 -1410.52929688 671.44189453 C-1396.60597744 647.36959423 -1380.61552298 624.67055428 -1362 604 C-1361.43571289 603.37254883 -1360.87142578 602.74509766 -1360.29003906 602.09863281 C-1354.17253688 595.32804124 -1348.0470027 588.81636804 -1341 583 C-1339.6078125 581.77603516 -1339.6078125 581.77603516 -1338.1875 580.52734375 C-1311.7142868 557.33216166 -1280.16176655 541.27681003 -1245.9375 533.25 C-1245.10041504 533.05116211 -1244.26333008 532.85232422 -1243.40087891 532.64746094 C-1228.72792198 529.3855605 -1214.0400267 528.62165334 -1199.0625 528.6875 C-1197.79647949 528.68973572 -1197.79647949 528.68973572 -1196.50488281 528.6920166 C-1177.67816515 528.75144885 -1158.81849412 529.54535455 -1140.7578125 535.328125 C-1137.87577867 536.03026355 -1136.6643761 536.24597129 -1134 535 C-1131.92913988 533.14884846 -1131.92913988 533.14884846 -1129.9375 530.75 C-1129.14730469 529.83605469 -1128.35710938 528.92210937 -1127.54296875 527.98046875 C-1126.70378906 526.99691406 -1125.86460937 526.01335937 -1125 525 C-1124.15050781 524.04738281 -1123.30101562 523.09476563 -1122.42578125 522.11328125 C-1114.99143932 513.70048399 -1108.69155125 504.61281845 -1102.49853516 495.26123047 C-1101.13884047 493.20950479 -1099.7647026 491.16836509 -1098.38671875 489.12890625 C-1089.31935501 475.56313498 -1080.84940316 459.86647856 -1083 443 C-1085.80403695 431.43532783 -1092.07249566 423.39877057 -1102 417 C-1142.80343123 394.64195549 -1205.17334066 399.70167257 -1248.625 411.6875 C-1291.21405836 424.2004908 -1334.01199643 447.58973331 -1368 476 C-1368.55187988 476.45713379 -1369.10375977 476.91426758 -1369.67236328 477.38525391 C-1380.25749159 486.1653074 -1390.42009275 495.40236616 -1400.49609375 504.7578125 C-1402.93224318 507.01881393 -1405.38520297 509.25987581 -1407.84765625 511.4921875 C-1414.31175089 517.38575447 -1420.30283074 523.23759415 -1425.6953125 530.15625 C-1428.47901535 533.59105623 -1431.46627127 536.78669396 -1434.5 540 C-1439.11623102 544.90069353 -1443.44617557 549.92711812 -1447.6484375 555.19140625 C-1449.8414134 557.81059175 -1452.12376998 560.26769942 -1454.48901367 562.72827148 C-1468.66935029 577.54345379 -1479.84549244 594.55544442 -1491.1875 611.5625 C-1491.73272308 612.37999725 -1492.27794617 613.19749451 -1492.83969116 614.0397644 C-1507.89591075 636.6339175 -1507.89591075 636.6339175 -1521.8125 659.9375 C-1522.29348145 660.78699219 -1522.77446289 661.63648438 -1523.27001953 662.51171875 C-1563.46275141 733.94278777 -1594.33349593 810.67172025 -1615 890 C-1615.19833435 890.75635742 -1615.3966687 891.51271484 -1615.60101318 892.29199219 C-1637.1138393 974.44580754 -1648.90632114 1061.84265796 -1604 1241 C-1603.68740234 1241.58652344 -1603.37480469 1242.17304687 -1603.05273438 1242.77734375 C-1598.44485541 1251.34437338 -1593.18685608 1259.34955753 -1587.61328125 1267.30859375 C-1587.18611816 1267.92202637 -1586.75895508 1268.53545898 -1586.31884766 1269.16748047 C-1585.4180171 1270.41917135 -1584.48332292 1271.64699774 -1583.52099609 1272.85205078 C-1579.94879191 1277.4149594 -1579.94879191 1277.4149594 -1580.2109375 1280.40991211 C-1581.03989972 1283.13097032 -1582.10035086 1285.31774843 -1583.51953125 1287.78125 C-1584.0405542 1288.69422852 -1584.56157715 1289.60720703 -1585.09838867 1290.54785156 C-1585.66404541 1291.52206055 -1586.22970215 1292.49626953 -1586.8125 1293.5 C-1588.01312903 1295.58847947 -1589.21364767 1297.67702241 -1590.4140625 1299.765625 C-1591.02024414 1300.81556641 -1591.62642578 1301.86550781 -1592.25097656 1302.94726562 C-1593.82601799 1305.69633291 -1595.37005563 1308.45918335 -1596.8984375 1311.234375 C-1602.56574645 1321.4687279 -1608.70121698 1331.33181502 -1615.1875 1341.0625 C-1615.55950531 1341.62191284 -1615.93151062 1342.18132568 -1616.31478882 1342.75769043 C-1626.75115278 1358.40776442 -1638.19841418 1373.2065796 -1651 1387 C-1651.62261719 1387.68835937 -1652.24523438 1388.37671875 -1652.88671875 1389.0859375 C-1662.76577649 1399.56560881 -1677.07167785 1409.68510193 -1691.8125 1410.375 C-1699.59486256 1410.18576322 -1706.67052131 1407.20873411 -1712.34765625 1401.87890625 C-1720.77860912 1392.2919362 -1725.37074211 1380.59451968 -1728.1875 1368.3125 C-1728.3424292 1367.643396 -1728.4973584 1366.97429199 -1728.65698242 1366.28491211 C-1731.74690879 1351.75367974 -1732.4396784 1337.05793397 -1732.4375 1322.25 C-1732.43889984 1321.32113983 -1732.44029968 1320.39227966 -1732.44174194 1319.43527222 C-1732.41408719 1296.58065947 -1730.14272166 1273.98026575 -1727.67041016 1251.28125 C-1727.15266128 1246.50013008 -1726.68212591 1241.7170032 -1726.24505615 1236.92790222 C-1719.50981615 1163.23886221 -1703.25411902 1090.38337687 -1687.06338501 1018.31474686 C-1686.60991124 1016.29584421 -1686.15683728 1014.27685171 -1685.70419312 1012.25776291 C-1680.95281585 991.06481377 -1676.0898815 969.91079635 -1670.6953125 948.87109375 C-1670.49704235 948.09609276 -1670.2987722 947.32109177 -1670.09449387 946.5226059 C-1667.10866554 934.8902159 -1663.85213633 923.34412281 -1660.5 911.8125 C-1655.12185924 893.23722781 -1650.11511524 874.57360286 -1645.1875 855.875 C-1644.79831075 854.39926322 -1644.40908951 852.92353488 -1644.01983643 851.44781494 C-1642.0823729 844.1016354 -1640.14723872 836.7548438 -1638.21337891 829.40771484 C-1628.63391356 793.01559797 -1618.75682971 756.75065395 -1608.12677002 720.64985657 C-1605.62432913 712.14583591 -1603.15089529 703.63372321 -1600.69140625 695.1171875 C-1581.2910766 627.95940329 -1561.35009976 560.96469452 -1539.875 494.4375 C-1539.66381657 493.78325798 -1539.45263313 493.12901596 -1539.2350502 492.45494843 C-1534.74764343 478.55742176 -1530.23163195 464.66968684 -1525.64453125 450.8046875 C-1508.57932845 409.15526824 -1508.57932845 409.15526824 -1511 367 C-1512.74217572 364.06636673 -1514.73987808 361.55092768 -1517 359 C-1517.60199219 358.29359375 -1518.20398437 357.5871875 -1518.82421875 356.859375 C-1540.80404889 332.91182674 -1579.89605013 321.37596056 -1611 317 C-1611.63502441 316.9064624 -1612.27004883 316.8129248 -1612.92431641 316.71655273 C-1654.48783127 311.26471507 -1704.92419379 318.42599462 -1738.88525391 344.44433594 C-1743.06506252 347.80854572 -1747.0585119 351.3615015 -1751 355 C-1751.75925781 355.68835938 -1752.51851562 356.37671875 -1753.30078125 357.0859375 C-1767.88121387 370.93588753 -1777.47335159 389.04045126 -1786 407 C-1786.36673828 407.76538086 -1786.73347656 408.53076172 -1787.11132812 409.31933594 C-1829.39416688 498.07037059 -1853.27353931 597.48855247 -1943.13671875 1137.15234375 C-1943.25924515 1138.71360741 -1943.25924515 1138.71360741 -1943.38424683 1140.30641174 C-1943.87021293 1146.70173221 -1944.20937603 1153.09052487 -1944.4375 1159.5 C-1944.72515749 1166.90912401 -1945.27278727 1174.257695 -1945.98730469 1181.63818359 C-1953.39683634 1258.32801232 -1954.23651549 1337.13220028 -1949 1414 C-1948.93683594 1414.94349304 -1948.87367188 1415.88698608 -1948.80859375 1416.85906982 C-1942.30116775 1512.93331968 -1925.36332938 1611.59289709 -1827.12939453 1766.64794922 C-1795.89611908 1792.84274116 -1756.16383146 1804.86169913 -1715.75 1801.375 C-1696.61592946 1799.45570441 -1678.28718986 1794.38166781 -1661 1786 C-1660.32791504 1785.67773438 -1659.65583008 1785.35546875 -1658.96337891 1785.0234375 C-1640.06400638 1775.8283905 -1624.27217158 1762.26559664 -1609 1748 C-1607.66668753 1746.76039423 -1606.33335308 1745.52081209 -1605 1744.28125 C-1540.35332516 1684.0577687 -1501.87262033 1602.62490681 -1467.99151611 1522.34442139 C-1466.97974448 1519.95210621 -1465.96290637 1517.56199918 -1464.94482422 1515.17236328 C-1454.07523725 1489.63766659 -1444.21689162 1463.83863142 -1434.95227051 1437.68103027 C-1433.68324024 1434.10819196 -1432.40156402 1430.53994788 -1431.11975098 1426.97167969 C-1429.90160759 1423.57650637 -1428.69040991 1420.17889028 -1427.48156738 1416.78039551 C-1426.91955788 1415.20217159 -1426.35573482 1413.62459207 -1425.78991699 1412.04772949 C-1422.95539239 1404.13362699 -1420.24248546 1396.35324748 -1419 1388 C-1418.04673828 1388.32162109 -1417.09347656 1388.64324219 -1416.11132812 1388.97460938 C-1355.96305704 1409.19297779 -1293.58376349 1420.79010043 -1230.22425842 1424.50082397 C-1224.61342944 1424.8308746 -1219.00840492 1425.20916412 -1213.40335083 1425.62583923 C-1182.00154489 1427.95760154 -1150.76212259 1428.41464038 -1119.28210449 1428.03710938 C-1116.19882273 1428.00224801 -1113.1156187 1427.97584161 -1110.03222656 1427.953125 C-1075.96152257 1427.68618615 -1041.99698688 1425.61770106 -1008.02588654 1423.14653778 C-1006.04894842 1423.00354057 -1004.07180881 1422.86333755 -1002.09466553 1422.72320557 C-963.08998077 1419.95321111 -924.43128039 1415.30498696 -885.6875 1410.0625 C-884.5905481 1409.91419991 -883.49359619 1409.76589981 -882.36340332 1409.61310577 C-866.56621319 1407.4741298 -850.77933222 1405.26686465 -835 1403 C-834.02331863 1402.86012287 -833.04663727 1402.72024574 -832.0403595 1402.57612991 C-802.08074404 1398.27862229 -772.33689159 1393.10992654 -742.60996246 1387.42993546 C-739.30643726 1386.79941389 -736.00239587 1386.17166695 -732.69818115 1385.54476929 C-718.7087369 1382.89045503 -704.72310502 1380.21674706 -690.740448 1377.5269165 C-688.19697982 1377.03787407 -685.65334209 1376.54972699 -683.10961914 1376.06201172 C-602.93515416 1360.68489485 -523.59115353 1341.49381378 -199.87547302 1251.78491211 C-193.48189523 1249.77365312 -187.08210364 1247.78314618 -180.67933655 1245.80134583 C-163.9077651 1240.61004292 -147.16485123 1235.33168877 -130.4375 1230 C-129.71699715 1229.77039959 -128.99649429 1229.54079918 -128.25415802 1229.30424118 C-79.09779252 1213.63579644 -29.97546567 1197.79777931 18.66101074 1180.57408142 C24.86931704 1178.38233783 31.09865711 1176.25616795 37.3359375 1174.1484375 C38.3015863 1173.82169037 39.26723511 1173.49494324 40.262146 1173.15829468 C44.83984185 1171.61030728 49.41928748 1170.06787669 54.00195312 1168.53466797 C64.06227714 1165.14783602 74.00209751 1161.51064404 83.9140625 1157.7109375 C97.69042227 1152.433475 111.58870316 1147.54292925 125.53729248 1142.74111938 C151.94153788 1133.6461757 178.16730844 1124.15445228 204.21447754 1114.07757568 C207.1004046 1112.96115861 209.98714831 1111.84687321 212.87402344 1110.73291016 C224.19117568 1106.36396914 235.50008085 1101.97410416 246.80479431 1097.5730896 C253.70694018 1094.8875374 260.61525168 1092.21842931 267.52734375 1089.55859375 C302.83361914 1075.96053328 337.95057389 1061.8961184 373.05316925 1047.78264618 C376.05267933 1046.57681198 379.05249804 1045.37174596 382.05224609 1044.16650391 C423.24647906 1027.60887483 464.27395195 1010.68086522 505 993 C505.89134644 992.61307983 506.78269287 992.22615967 507.7010498 991.82751465 C533.40469841 980.65949941 558.89579595 969.10410393 584.12744141 956.9050293 C585.81841084 956.08776415 587.51069019 955.27321063 589.203125 954.45898438 C618.29323196 940.42178891 644.0485763 924.87213382 665.2421875 900.03125 C666.4705868 898.61176636 667.72855828 897.21757943 669.0078125 895.84375 C700.90781998 861.54266669 721.55237312 815.9608864 719.85717773 768.63623047 C717.03962882 712.47779541 684.50225768 667.44032665 645 630 C642.30934245 627.58793694 639.51241502 625.33064445 636.66796875 623.1015625 C634.12950153 621.10200852 631.67501797 619.03359557 629.22509766 616.92797852 C623.25622906 611.80141282 617.13741077 606.96447403 610.78466797 602.31640625 C608.7418266 600.80956621 606.71680385 599.28020225 604.69140625 597.75 C558.72613986 563.18116006 504.10398651 538.42228593 448.625 523.625 C447.64273438 523.36154785 446.66046875 523.0980957 445.6484375 522.82666016 C444.26398437 522.46773682 444.26398437 522.46773682 442.8515625 522.1015625 C442.03510254 521.88838379 441.21864258 521.67520508 440.37744141 521.45556641 C437.83754588 520.96887047 435.57968599 520.8244925 433 521 C431.30451138 522.38419214 431.30451138 522.38419214 429.9375 524.375 C420.20031443 536.24607943 406.24718079 544.93100181 394 554 C392.36196251 555.21742551 390.72394129 556.4348729 389.0859375 557.65234375 C374.55049268 568.43393439 359.80477328 578.86469686 344.79507446 588.97503662 C343.49667366 589.85095001 342.20003093 590.72947645 340.90536499 591.61090088 C332.23694645 597.50462823 323.50101978 602.54927735 314 607 C317.49666624 602.29721525 321.01169353 597.87516494 325.25 593.8125 C329.98497702 589.18968825 333.95769875 584.14719082 337.97119141 578.90576172 C339.88004013 576.42776166 341.81617634 573.97875601 343.7980957 571.55883789 C351.030073 562.72317637 357.59603228 553.59464972 363.875 544.0625 C364.58400955 542.99125885 364.58400955 542.99125885 365.30734253 541.89837646 C383.05442748 515.05260029 399.73263646 487.02463651 409 456 C409.22010742 455.27216309 409.44021484 454.54432617 409.66699219 453.79443359 C412.82812349 443.09838518 415.63663992 432.11572251 410.55859375 421.62109375 C408.1264292 419.09139879 405.25917059 418.25118684 402 417 C401.48566406 418.15435547 401.48566406 418.15435547 400.9609375 419.33203125 C384.69842088 455.0214458 364.86126475 490.13730769 338 519 C336.93361713 520.24668915 335.87102009 521.49662796 334.8125 522.75 C325.63444197 533.21806158 315.66587029 542.44675427 304.55175781 550.80664062 C302.3451822 552.5035792 300.24616431 554.32307447 298.125 556.125 C280.54168462 570.13985203 260.35553761 576.61291464 238 575 C226.16468414 572.88745975 216.93984287 566.23926608 209.8125 556.7265625 C197.76032821 538.5963558 195.95724547 518.07162148 194 497 C204.86496231 499.46121352 215.3953299 502.62935263 225.95288086 506.18164062 C241.92469102 511.46107346 255.16352905 512.88693147 270.875 506.0625 C283.03333431 499.57805504 291.77856761 488.44004412 299 477 C299.37576172 476.41331543 299.75152344 475.82663086 300.13867188 475.22216797 C312.25593707 455.99099708 319.32687735 433.86345629 325 412 C325.23557617 411.09749512 325.47115234 410.19499023 325.71386719 409.26513672 C335.32495243 371.70512529 343.60739537 323.47157959 322.9921875 287.9921875 C312.36789791 272.03492117 296.62724603 262.63126575 278.05444336 258.59350586 C257.33799757 254.49945365 238.5651416 258.36268719 221 270 C217.40485821 272.78319007 214.16385826 275.74098811 211 279 C209.77603516 280.21816406 209.77603516 280.21816406 208.52734375 281.4609375 C183.24791929 306.85757722 147 359.08566936 147 396 C146.34 396 145.68 396 145 396 C144.76410156 395.34386719 144.52820312 394.68773437 144.28515625 394.01171875 C137.16972156 377.33694626 125.76607484 361.43545565 108.75 354.125 C95.94343513 349.00915001 79.92015976 349.31348614 67 354 C65.65375948 354.64020207 64.31516513 355.29817174 63 356 C62.78413565 361.65969343 63.40755333 366.75575629 64.4230957 372.31884766 C67.70323958 390.76150173 67.42647838 408.97418908 67.04425049 427.62915039 C67.0019045 429.89796091 66.9722794 432.16647074 66.94873047 434.43554688 C66.14363778 511.28814775 46.81572079 598.6240697 -2 684 C-6.84330031 688.34582954 -11.27557672 690.41883913 -17.88671875 690.26171875 C-22.6764298 689.66853827 -25.62117006 687.49373244 -28.78125 684.0703125 C-41.09045266 668.0359564 -44.23000351 645.53614446 -44.5 625.875 C-44.51853027 625.07167236 -44.53706055 624.26834473 -44.55615234 623.44067383 C-44.43518439 611.85028369 -39.37021687 601.07121259 -34.9375 590.5625 C7.03989825 499.79662979 7.03989825 499.79662979 16.30859375 404.56640625 C14.2422359 399.85441868 11.69559184 397.26394607 7 395 C-5.77449948 390.73568009 -18.39742896 390.64119884 -30.83984375 396.2890625 C-46.99950987 405.37735593 -51.87045317 424.59441288 -57.875 441.0625 C-58.17681183 441.88637207 -58.47862366 442.71024414 -58.7895813 443.55908203 C-76.25190632 491.35566802 -86.13828179 540.45189945 -91 591 C-91.11110107 592.03793701 -91.22220215 593.07587402 -91.33666992 594.14526367 C-92.06961115 602.11700804 -92.00118907 610.01329902 -91.88671875 618.01171875 C-91.87187943 619.19470047 -91.8570401 620.37768219 -91.8417511 621.59651184 C-91.77822025 626.54506592 -91.71461885 631.49294962 -91.60229492 636.44067383 C-91.52314332 640.08953856 -91.48303989 643.73718768 -91.44921875 647.38671875 C-91.41511398 648.48908371 -91.38100922 649.59144867 -91.34587097 650.72721863 C-91.29249684 666.02690262 -101.9005611 676.78710725 -111.9375 687.3125 C-118.83850311 694.06324799 -127.09195171 699.84513923 -137 700.3125 C-142.18249178 700.15425598 -145.62835878 698.40974237 -149.25 694.6875 C-165.39335238 669.89592313 -150.63995764 621.26697076 -145 594 C-144.67805664 592.43378906 -144.67805664 592.43378906 -144.34960938 590.8359375 C-141.31442421 576.6910111 -135.61582525 564.44032782 -129.1875 551.53125 C-120.2357297 533.4381425 -114.8384488 514.30705637 -110.2253418 494.70898438 C-109.97308838 493.64873047 -109.72083496 492.58847656 -109.4609375 491.49609375 C-109.24099121 490.54532959 -109.02104492 489.59456543 -108.79443359 488.61499023 C-107.42583352 484.11005005 -104.81700881 480.71493037 -102 477 C-90.84013294 461.89232997 -82.14014201 447.68349703 -84 428 C-85.57723456 417.56396469 -89.58526842 408.99680656 -97.95703125 402.34375 C-108.03996598 395.71176234 -118.68656435 393.60503868 -130.5625 393.625 C-131.99625977 393.62632935 -131.99625977 393.62632935 -133.45898438 393.62768555 C-144.78279807 393.81420656 -157.59154964 395.55281719 -166.5 403.125 C-184.75072205 424.11333036 -188.02377459 457.28226296 -190.59765625 483.8984375 C-191.87905462 496.78312652 -194.70835439 508.7409957 -198.453125 521.09741211 C-208.53803787 554.39067485 -214.17613902 588.41423844 -217.875 622.9375 C-217.98459045 623.95109589 -218.09418091 624.96469177 -218.20709229 626.00900269 C-219.59656666 639.01598997 -220.64534752 651.5930354 -219.234375 664.64453125 C-217.98489038 677.20185168 -221.49908964 687.94177694 -227.0625 699.125 C-227.54855713 700.11854492 -228.03461426 701.11208984 -228.53540039 702.13574219 C-256.30156424 758.34430378 -256.30156424 758.34430378 -274 767 C-278.72849393 768.49667112 -281.95678387 768.37771619 -286.625 766.6875 C-303.28254234 755.30035789 -307.21027051 725.78678858 -310.74462891 707.43115234 C-315.91231512 679.32532325 -312.90011185 650.48180215 -307.3125 622.6875 C-307.10544434 621.64803223 -306.89838867 620.60856445 -306.68505859 619.53759766 C-302.05465126 597.76786901 -295.36226706 576.44350768 -288.42166138 555.31976318 C-286.32953546 548.94557162 -284.26328068 542.56300961 -282.19921875 536.1796875 C-281.98491652 535.5173473 -281.77061428 534.8550071 -281.54981804 534.17259598 C-274.59536695 512.66240659 -268.02110331 491.03392038 -261.41810799 469.41390038 C-258.48782753 459.82054674 -255.5231919 450.23852421 -252.52947617 440.66478348 C-240.08352504 400.85009137 -228.32381229 360.87427897 -218.07275391 320.42871094 C-217.75925491 319.1971225 -217.44575592 317.96553406 -217.12275696 316.69662476 C-216.52913046 314.35596794 -215.94150327 312.01377819 -215.36100769 309.66983032 C-211.95624436 296.23733055 -211.95624436 296.23733055 -208.20629883 293.86547852 C-207.52591553 293.68428467 -206.84553223 293.50309082 -206.14453125 293.31640625 C-205.34225098 293.09484863 -204.5399707 292.87329102 -203.71337891 292.64501953 C-202.37025635 292.32573486 -202.37025635 292.32573486 -201 292 C-200.03368652 291.76265137 -199.06737305 291.52530273 -198.07177734 291.28076172 C-194.61761626 290.4636882 -191.15487306 289.69653257 -187.6875 288.9375 C-184.90321814 288.32223709 -182.11957253 287.70411939 -179.3359375 287.0859375 C-178.59541641 286.92196976 -177.85489532 286.75800201 -177.0919342 286.58906555 C-171.29370914 285.30069483 -165.50916707 283.95812489 -159.7265625 282.6015625 C-100.46666181 268.7441162 -41.75895042 260.79011201 19 258 C19.58756799 231.94428025 12.21066302 205.63513298 -4 185 C-4.54140625 184.29488281 -5.0828125 183.58976562 -5.640625 182.86328125 C-14.11983616 172.46237971 -26.71007317 165.44320689 -39.97265625 163.28515625 C-56.95699319 161.68534129 -73.27926031 164.09930025 -90 167 Z " fill="#FEFEFE" transform="translate(2118,3)"/>
<path d="M0 0 C2.5157009 63.35839311 -27.45901941 134.56267647 -70 181 C-72.98051154 184.16561919 -76.00887901 187.27994289 -79.0625 190.375 C-80.15957275 191.49853882 -80.15957275 191.49853882 -81.27880859 192.64477539 C-94.44176931 205.79162297 -94.44176931 205.79162297 -103 207 C-102.11563836 163.75471591 -87.4077302 118.03367358 -69 79 C-68.66403809 78.28650391 -68.32807617 77.57300781 -67.98193359 76.83789062 C-65.75905451 72.16886913 -63.42243098 67.56837629 -61 63 C-60.64969727 62.33661621 -60.29939453 61.67323242 -59.93847656 60.98974609 C-52.5169866 47.05694891 -43.98145476 34.39715652 -33 23 C-32.5059668 22.48018555 -32.01193359 21.96037109 -31.50292969 21.42480469 C-11.07289248 0 -11.07289248 0 0 0 Z " fill="#FEFEFE" transform="translate(1359,633)"/>
<path d="M0 0 C2.66288233 53.10970876 -21.59692921 112.76201959 -54 154 C-54.73605469 154.9590625 -55.47210937 155.918125 -56.23046875 156.90625 C-66.32903698 169.70880644 -78.46647813 183.01965946 -94 189 C-89.05960898 126.88362018 -66.73897303 52.84459882 -19 10 C-6.41020794 0 -6.41020794 0 0 0 Z " fill="#FEFEFE" transform="translate(2406,305)"/>
</svg>
