<?xml version="1.0" encoding="UTF-8"?>
<!DOCTYPE svg PUBLIC "-//W3C//DTD SVG 1.1//EN" "http://www.w3.org/Graphics/SVG/1.1/DTD/svg11.dtd">
<svg xmlns="http://www.w3.org/2000/svg" version="1.1" width="711px" height="166px" style="shape-rendering:geometricPrecision; text-rendering:geometricPrecision; image-rendering:optimizeQuality; fill-rule:evenodd; clip-rule:evenodd" xmlns:xlink="http://www.w3.org/1999/xlink">
<g><path style="opacity:0.424" fill="#474747" d="M 72.5,15.5 C 72.5,15.8333 72.5,16.1667 72.5,16.5C 59.0699,14.429 46.7366,16.929 35.5,24C 26.0167,33.1385 21.6834,44.3052 22.5,57.5C 21.5184,54.0381 21.185,50.3714 21.5,46.5C 24.823,29.6763 34.823,19.1763 51.5,15C 58.6791,14.1787 65.6791,14.3454 72.5,15.5 Z"/></g>
<g><path style="opacity:0.424" fill="#444444" d="M 142.5,15.5 C 142.5,15.8333 142.5,16.1667 142.5,16.5C 142.167,16.5 141.833,16.5 141.5,16.5C 126.818,16.1674 112.152,16.5007 97.5,17.5C 99.7712,22.3137 101.438,27.3137 102.5,32.5C 99.398,26.941 97.398,20.941 96.5,14.5C 112.009,14.1705 127.342,14.5038 142.5,15.5 Z"/></g>
<g><path style="opacity:0.015" fill="#090909" d="M 142.5,15.5 C 143.499,60.6636 143.832,105.997 143.5,151.5C 118.994,151.831 94.6609,151.498 70.5,150.5C 94.5,150.5 118.5,150.5 142.5,150.5C 142.5,105.833 142.5,61.1667 142.5,16.5C 142.5,16.1667 142.5,15.8333 142.5,15.5 Z"/></g>
<g><path style="opacity:1" fill="#fdfdfd" d="M 72.5,16.5 C 73.4972,16.4701 74.1639,16.9701 74.5,18C 80.8034,33.2417 86.1367,48.9083 90.5,65C 83.6625,83.3462 77.3292,101.846 71.5,120.5C 70.596,121.209 70.2627,122.209 70.5,123.5C 78.0191,123.825 85.3524,123.492 92.5,122.5C 94.6418,119.2 95.9751,115.533 96.5,111.5C 99.8984,106.017 102.232,100.017 103.5,93.5C 103.5,93.1667 103.5,92.8333 103.5,92.5C 105.99,89.3743 107.323,85.7076 107.5,81.5C 110,78.3401 111.333,74.6734 111.5,70.5C 114.026,68.0713 114.859,65.0713 114,61.5C 110.433,51.6147 106.6,41.948 102.5,32.5C 101.438,27.3137 99.7712,22.3137 97.5,17.5C 112.152,16.5007 126.818,16.1674 141.5,16.5C 141.5,60.8333 141.5,105.167 141.5,149.5C 117.833,149.5 94.1667,149.5 70.5,149.5C 67.9021,140.707 64.9021,132.04 61.5,123.5C 66.4436,110.669 70.7769,97.6692 74.5,84.5C 76.0739,82.8984 76.7406,80.8984 76.5,78.5C 78.9897,75.3743 80.323,71.7076 80.5,67.5C 81.404,66.791 81.7373,65.791 81.5,64.5C 77.8485,63.8345 74.0152,63.5012 70,63.5C 65.771,63.5102 61.9377,64.1768 58.5,65.5C 51.519,84.771 44.519,104.104 37.5,123.5C 40.9183,132.091 43.9183,140.757 46.5,149.5C 42.8212,149.276 39.1545,148.942 35.5,148.5C 34.1667,147.5 32.8333,146.5 31.5,145.5C 29.9674,143.755 27.9674,142.755 25.5,142.5C 21.8051,138.474 18.1384,134.474 14.5,130.5C 13.7206,127.455 12.3873,124.789 10.5,122.5C 10.1977,119.627 9.53101,116.961 8.5,114.5C 8.5,110.5 8.5,106.5 8.5,102.5C 9.31382,100.369 9.81382,98.0356 10,95.5C 12.3716,92.0901 14.2049,88.4234 15.5,84.5C 18.7986,79.5341 22.7986,75.2008 27.5,71.5C 26.3924,68.9409 25.0591,66.6076 23.5,64.5C 22.7814,62.2362 22.448,59.9029 22.5,57.5C 21.6834,44.3052 26.0167,33.1385 35.5,24C 46.7366,16.929 59.0699,14.429 72.5,16.5 Z"/></g>
<g><path style="opacity:0.745" fill="#bbbbbb" d="M 141.5,16.5 C 141.833,16.5 142.167,16.5 142.5,16.5C 142.5,61.1667 142.5,105.833 142.5,150.5C 118.5,150.5 94.5,150.5 70.5,150.5C 70.5,150.167 70.5,149.833 70.5,149.5C 94.1667,149.5 117.833,149.5 141.5,149.5C 141.5,105.167 141.5,60.8333 141.5,16.5 Z"/></g>
<g><path style="opacity:0.369" fill="#313131" d="M 241.5,26.5 C 216.164,26.3334 190.831,26.5 165.5,27C 164.627,28.045 163.627,28.8783 162.5,29.5C 162.511,27.9826 163.177,26.8159 164.5,26C 190.337,25.1699 216.003,25.3366 241.5,26.5 Z"/></g>
<g><path style="opacity:0.369" fill="#2d2d2d" d="M 392.5,26.5 C 417.997,25.3366 443.663,25.1699 469.5,26C 470.056,26.3826 470.389,26.8826 470.5,27.5C 444.545,26.5181 418.545,26.1848 392.5,26.5 Z"/></g>
<g><path style="opacity:0.369" fill="#2f2f2f" d="M 527.5,26.5 C 517.494,26.3335 507.494,26.5002 497.5,27C 496.627,28.045 495.627,28.8783 494.5,29.5C 494.511,27.9826 495.177,26.8159 496.5,26C 507.008,25.1748 517.342,25.3415 527.5,26.5 Z"/></g>
<g><path style="opacity:0.369" fill="#2e2e2e" d="M 589.5,26.5 C 584.105,26.2665 578.772,26.5998 573.5,27.5C 573.611,26.8826 573.944,26.3826 574.5,26C 579.684,25.1837 584.684,25.3503 589.5,26.5 Z"/></g>
<g><path style="opacity:0.369" fill="#313131" d="M 678.5,26.5 C 653.498,26.3334 628.498,26.5 603.5,27C 602.099,27.4101 600.766,27.9101 599.5,28.5C 599.577,27.2502 600.244,26.4169 601.5,26C 627.337,25.1699 653.003,25.3366 678.5,26.5 Z"/></g>
<g><path style="opacity:1" fill="#fbfbfb" d="M 241.5,26.5 C 242.167,27.5 242.833,28.5 243.5,29.5C 243.5,33.8333 243.5,38.1667 243.5,42.5C 247.5,42.5 251.5,42.5 255.5,42.5C 257.017,42.5106 258.184,43.1772 259,44.5C 259.667,54.5 259.667,64.5 259,74.5C 257.955,75.3734 257.122,76.3734 256.5,77.5C 252.5,77.5 248.5,77.5 244.5,77.5C 244.5,81.1667 244.5,84.8333 244.5,88.5C 249.23,88.2834 253.897,88.6167 258.5,89.5C 259.619,99.7867 259.785,110.12 259,120.5C 258.487,121.527 257.987,122.527 257.5,123.5C 253.167,123.5 248.833,123.5 244.5,123.5C 244.985,128.729 244.318,133.729 242.5,138.5C 222.164,138.667 201.831,138.5 181.5,138C 180.255,137.209 178.922,136.709 177.5,136.5C 177.5,106.833 177.5,77.1667 177.5,47.5C 172.739,45.9871 167.739,44.6538 162.5,43.5C 161.167,38.8333 161.167,34.1667 162.5,29.5C 163.627,28.8783 164.627,28.045 165.5,27C 190.831,26.5 216.164,26.3334 241.5,26.5 Z M 239.5,47.5 C 239.5,55.5 239.5,63.5 239.5,71.5C 225.833,71.5 212.167,71.5 198.5,71.5C 198.5,63.5 198.5,55.5 198.5,47.5C 212.167,47.5 225.833,47.5 239.5,47.5 Z M 239.5,93.5 C 239.5,101.833 239.5,110.167 239.5,118.5C 225.833,118.5 212.167,118.5 198.5,118.5C 198.5,110.167 198.5,101.833 198.5,93.5C 212.167,93.5 225.833,93.5 239.5,93.5 Z"/></g>
<g><path style="opacity:0.749" fill="#6d6d6d" d="M 328.5,28.5 C 323.156,28.334 317.823,28.5006 312.5,29C 311.956,29.7172 311.289,30.2172 310.5,30.5C 310.574,28.5891 311.574,27.4224 313.5,27C 317.833,26.3333 322.167,26.3333 326.5,27C 327.416,27.2784 328.082,27.7784 328.5,28.5 Z"/></g>
<g><path style="opacity:1" fill="#fcfcfc" d="M 392.5,26.5 C 418.545,26.1848 444.545,26.5181 470.5,27.5C 471.383,32.1031 471.717,36.7697 471.5,41.5C 475.167,41.5 478.833,41.5 482.5,41.5C 483.791,41.2627 484.791,41.596 485.5,42.5C 485.557,43.609 485.89,44.609 486.5,45.5C 486.666,50.1785 486.499,54.8452 486,59.5C 485.5,60 485,60.5 484.5,61C 478.59,62.0083 472.923,61.5083 467.5,59.5C 467.5,54.8333 467.5,50.1667 467.5,45.5C 453.323,45.1709 439.323,45.5042 425.5,46.5C 424.507,55.3178 424.173,64.3178 424.5,73.5C 438.5,73.5 452.5,73.5 466.5,73.5C 468.39,73.2965 469.89,73.9632 471,75.5C 471.499,79.8206 471.666,84.1539 471.5,88.5C 475.833,88.5 480.167,88.5 484.5,88.5C 485.167,89.5 485.833,90.5 486.5,91.5C 486.5,101.167 486.5,110.833 486.5,120.5C 486.047,121.458 485.381,122.292 484.5,123C 480.179,123.499 475.846,123.666 471.5,123.5C 471.666,127.846 471.499,132.179 471,136.5C 470.184,137.823 469.017,138.489 467.5,138.5C 453.163,138.667 438.829,138.5 424.5,138C 423.255,137.209 421.922,136.709 420.5,136.5C 420.5,132.5 420.5,128.5 420.5,124.5C 415.445,123.991 410.445,122.991 405.5,121.5C 404.167,116.5 404.167,111.5 405.5,106.5C 406.289,106.217 406.956,105.717 407.5,105C 412.823,104.501 418.156,104.334 423.5,104.5C 424.392,109.438 424.726,114.438 424.5,119.5C 438.5,119.5 452.5,119.5 466.5,119.5C 467.493,110.682 467.827,101.682 467.5,92.5C 452.119,92.8019 436.785,92.4686 421.5,91.5C 420.515,87.3656 420.182,83.0323 420.5,78.5C 415.897,76.7324 410.897,75.7324 405.5,75.5C 405.5,75.1667 405.5,74.8333 405.5,74.5C 405.827,64.985 405.494,55.6517 404.5,46.5C 399.969,46.0024 395.469,45.0024 391,43.5C 390.501,38.8452 390.334,34.1785 390.5,29.5C 391.167,28.5 391.833,27.5 392.5,26.5 Z"/></g>
<g><path style="opacity:1" fill="#fafafa" d="M 527.5,26.5 C 527.783,27.2891 528.283,27.9558 529,28.5C 529.169,43.3391 529.669,58.0057 530.5,72.5C 535.928,71.8667 540.928,72.8667 545.5,75.5C 545.5,79.8333 545.5,84.1667 545.5,88.5C 549.167,88.5 552.833,88.5 556.5,88.5C 556.5,84.5 556.5,80.5 556.5,76.5C 556.328,75.5084 556.662,74.8417 557.5,74.5C 562.438,73.6076 567.438,73.2743 572.5,73.5C 572.198,58.1187 572.531,42.7854 573.5,27.5C 578.772,26.5998 584.105,26.2665 589.5,26.5C 589.783,27.2891 590.283,27.9558 591,28.5C 591.667,43.8333 591.667,59.1667 591,74.5C 589.955,75.3734 589.122,76.3734 588.5,77.5C 584.5,77.5 580.5,77.5 576.5,77.5C 576.717,82.2303 576.383,86.8969 575.5,91.5C 570.562,92.3924 565.562,92.7257 560.5,92.5C 560.667,107.17 560.5,121.837 560,136.5C 559.292,137.381 558.458,138.047 557.5,138.5C 552.105,138.733 546.772,138.4 541.5,137.5C 540.504,123.01 540.171,108.343 540.5,93.5C 535.445,92.9906 530.445,91.9906 525.5,90.5C 525.5,90.1667 525.5,89.8333 525.5,89.5C 525.5,85.5 525.5,81.5 525.5,77.5C 520.637,76.7344 515.637,76.0678 510.5,75.5C 510.5,65.8333 510.5,56.1667 510.5,46.5C 506.167,46.5 501.833,46.5 497.5,46.5C 496.833,45.1667 495.833,44.1667 494.5,43.5C 493.167,38.8333 493.167,34.1667 494.5,29.5C 495.627,28.8783 496.627,28.045 497.5,27C 507.494,26.5002 517.494,26.3335 527.5,26.5 Z"/></g>
<g><path style="opacity:1" fill="#fafafa" d="M 678.5,26.5 C 680.317,31.2408 680.984,36.2408 680.5,41.5C 684.167,41.5 687.833,41.5 691.5,41.5C 692.791,41.2627 693.791,41.596 694.5,42.5C 700.862,58.4787 695.529,64.812 678.5,61.5C 677.094,61.0269 676.427,60.0269 676.5,58.5C 676.5,54.5 676.5,50.5 676.5,46.5C 662.5,46.5 648.5,46.5 634.5,46.5C 633.507,55.3178 633.173,64.3178 633.5,73.5C 647.833,73.5 662.167,73.5 676.5,73.5C 678.017,73.5106 679.184,74.1772 680,75.5C 680.499,79.8206 680.666,84.1539 680.5,88.5C 684.833,88.5 689.167,88.5 693.5,88.5C 694.122,89.6266 694.955,90.6266 696,91.5C 696.667,101.167 696.667,110.833 696,120.5C 694.961,121.71 693.794,122.71 692.5,123.5C 688.5,123.5 684.5,123.5 680.5,123.5C 680.666,127.846 680.499,132.179 680,136.5C 679.292,137.381 678.458,138.047 677.5,138.5C 661.786,138.803 646.119,138.469 630.5,137.5C 629.515,133.366 629.182,129.032 629.5,124.5C 624.445,123.991 619.445,122.991 614.5,121.5C 613.2,116.4 613.2,111.4 614.5,106.5C 615.289,106.217 615.956,105.717 616.5,105C 621.823,104.501 627.156,104.334 632.5,104.5C 633.11,105.391 633.443,106.391 633.5,107.5C 633.5,111.833 633.5,116.167 633.5,120.5C 648.01,120.829 662.343,120.496 676.5,119.5C 676.5,110.5 676.5,101.5 676.5,92.5C 661.833,92.5 647.167,92.5 632.5,92.5C 631.25,92.4226 630.417,91.756 630,90.5C 629.501,86.5138 629.334,82.5138 629.5,78.5C 624.739,76.9871 619.739,75.6538 614.5,74.5C 614.5,65.1667 614.5,55.8333 614.5,46.5C 609.637,45.7344 604.637,45.0678 599.5,44.5C 598.167,39.1667 598.167,33.8333 599.5,28.5C 600.766,27.9101 602.099,27.4101 603.5,27C 628.498,26.5 653.498,26.3334 678.5,26.5 Z"/></g>
<g><path style="opacity:0.075" fill="#0d0d0d" d="M 241.5,26.5 C 243.5,26.5 244.5,27.5 244.5,29.5C 244.167,29.5 243.833,29.5 243.5,29.5C 242.833,28.5 242.167,27.5 241.5,26.5 Z"/></g>
<g><path style="opacity:1" fill="#f8f8f8" d="M 328.5,28.5 C 329.118,38.2963 329.785,47.963 330.5,57.5C 339.873,57.2483 349.207,57.5817 358.5,58.5C 359.392,63.4376 359.726,68.4376 359.5,73.5C 359.5,74.1667 359.5,74.8333 359.5,75.5C 359.027,76.9063 358.027,77.573 356.5,77.5C 347.833,77.5 339.167,77.5 330.5,77.5C 329.504,90.9898 329.171,104.656 329.5,118.5C 343.344,118.829 357.01,118.496 370.5,117.5C 370.5,113.833 370.5,110.167 370.5,106.5C 371.627,105.878 372.627,105.045 373.5,104C 378.489,103.501 383.489,103.334 388.5,103.5C 390.496,108.587 390.996,113.92 390,119.5C 389.167,120.333 388.333,121.167 387.5,122C 383.514,122.499 379.514,122.666 375.5,122.5C 375.665,126.182 375.499,129.848 375,133.5C 374.535,134.931 373.701,136.097 372.5,137C 357.504,137.5 342.504,137.667 327.5,137.5C 326.094,137.027 325.427,136.027 325.5,134.5C 325.5,130.5 325.5,126.5 325.5,122.5C 320.241,122.984 315.241,122.317 310.5,120.5C 309.167,90.5 309.167,60.5 310.5,30.5C 311.289,30.2172 311.956,29.7172 312.5,29C 317.823,28.5006 323.156,28.334 328.5,28.5 Z"/></g>
<g><path style="opacity:0.275" fill="#373737" d="M 392.5,26.5 C 391.833,27.5 391.167,28.5 390.5,29.5C 390.167,29.5 389.833,29.5 389.5,29.5C 389.5,27.5 390.5,26.5 392.5,26.5 Z"/></g>
<g><path style="opacity:0.021" fill="#0c0c0c" d="M 470.5,27.5 C 471.117,27.6107 471.617,27.944 472,28.5C 472.499,32.4862 472.666,36.4862 472.5,40.5C 476.042,40.1872 479.375,40.5206 482.5,41.5C 478.833,41.5 475.167,41.5 471.5,41.5C 471.717,36.7697 471.383,32.1031 470.5,27.5 Z"/></g>
<g><path style="opacity:0.004" fill="#040404" d="M 530.5,30.5 C 531.496,43.9898 531.829,57.6565 531.5,71.5C 535.936,71.2101 540.27,71.7101 544.5,73C 545.252,73.6708 545.586,74.5041 545.5,75.5C 540.928,72.8667 535.928,71.8667 530.5,72.5C 530.5,58.5 530.5,44.5 530.5,30.5 Z"/></g>
<g><path style="opacity:0.004" fill="#1d1d1d" d="M 678.5,26.5 C 680.173,27.343 681.34,28.6763 682,30.5C 682.498,33.8168 682.665,37.1501 682.5,40.5C 685.713,40.19 688.713,40.5233 691.5,41.5C 687.833,41.5 684.167,41.5 680.5,41.5C 680.984,36.2408 680.317,31.2408 678.5,26.5 Z"/></g>
<g><path style="opacity:0.98" fill="#bebebe" d="M 389.5,29.5 C 389.833,29.5 390.167,29.5 390.5,29.5C 390.334,34.1785 390.501,38.8452 391,43.5C 395.469,45.0024 399.969,46.0024 404.5,46.5C 400.833,46.5 397.167,46.5 393.5,46.5C 391.983,46.4894 390.816,45.8228 390,44.5C 389.501,39.5111 389.334,34.5111 389.5,29.5 Z"/></g>
<g><path style="opacity:0.267" fill="#3d3d3d" d="M 527.5,26.5 C 529.912,26.6941 530.912,28.0274 530.5,30.5C 530.5,44.5 530.5,58.5 530.5,72.5C 529.669,58.0057 529.169,43.3391 529,28.5C 528.283,27.9558 527.783,27.2891 527.5,26.5 Z"/></g>
<g><path style="opacity:0.737" fill="#939393" d="M 573.5,27.5 C 572.531,42.7854 572.198,58.1187 572.5,73.5C 567.438,73.2743 562.438,73.6076 557.5,74.5C 558.058,73.2101 559.058,72.3768 560.5,72C 564.152,71.5014 567.818,71.3347 571.5,71.5C 571.333,57.1628 571.5,42.8295 572,28.5C 572.383,27.944 572.883,27.6107 573.5,27.5 Z"/></g>
<g><path style="opacity:0.267" fill="#2a2a2a" d="M 589.5,26.5 C 591.776,26.7565 592.943,28.0898 593,30.5C 593.667,44.8333 593.667,59.1667 593,73.5C 592.252,75.751 590.752,77.0844 588.5,77.5C 589.122,76.3734 589.955,75.3734 591,74.5C 591.667,59.1667 591.667,43.8333 591,28.5C 590.283,27.9558 589.783,27.2891 589.5,26.5 Z"/></g>
<g><path style="opacity:0.267" fill="#3f3f3f" d="M 328.5,28.5 C 329.906,28.9731 330.573,29.9731 330.5,31.5C 330.5,40.1667 330.5,48.8333 330.5,57.5C 329.785,47.963 329.118,38.2963 328.5,28.5 Z"/></g>
<g><path style="opacity:0.12" fill="#0a0a0a" d="M 244.5,29.5 C 245.482,32.9619 245.815,36.6286 245.5,40.5C 249.042,40.1872 252.375,40.5206 255.5,41.5C 251.833,41.5 248.167,41.5 244.5,41.5C 244.5,37.5 244.5,33.5 244.5,29.5 Z"/></g>
<g><path style="opacity:0.62" fill="#929292" d="M 243.5,29.5 C 243.833,29.5 244.167,29.5 244.5,29.5C 244.5,33.5 244.5,37.5 244.5,41.5C 248.167,41.5 251.833,41.5 255.5,41.5C 255.5,41.8333 255.5,42.1667 255.5,42.5C 251.5,42.5 247.5,42.5 243.5,42.5C 243.5,38.1667 243.5,33.8333 243.5,29.5 Z"/></g>
<g><path style="opacity:1" fill="#f1f1f1" d="M 294.5,42.5 C 296.15,49.0559 295.817,55.3892 293.5,61.5C 288.684,62.6497 283.684,62.8163 278.5,62C 277.619,61.2917 276.953,60.4584 276.5,59.5C 276.334,54.4889 276.501,49.4889 277,44.5C 277.5,44 278,43.5 278.5,43C 283.823,42.5006 289.156,42.334 294.5,42.5 Z"/></g>
<g><path style="opacity:0.018" fill="#080808" d="M 255.5,42.5 C 255.5,42.1667 255.5,41.8333 255.5,41.5C 257.39,41.2965 258.89,41.9632 260,43.5C 260.667,54.1667 260.667,64.8333 260,75.5C 259.184,76.8228 258.017,77.4894 256.5,77.5C 257.122,76.3734 257.955,75.3734 259,74.5C 259.667,64.5 259.667,54.5 259,44.5C 258.184,43.1772 257.017,42.5106 255.5,42.5 Z"/></g>
<g><path style="opacity:0.007" fill="#090909" d="M 485.5,42.5 C 486.458,42.9528 487.292,43.6195 488,44.5C 488.815,49.3522 488.648,54.0189 487.5,58.5C 487.818,53.9677 487.485,49.6344 486.5,45.5C 485.89,44.609 485.557,43.609 485.5,42.5 Z"/></g>
<g><path style="opacity:0.013" fill="#191919" d="M 694.5,42.5 C 695.458,42.9528 696.292,43.6195 697,44.5C 700.822,61.1806 694.655,66.8472 678.5,61.5C 695.529,64.812 700.862,58.4787 694.5,42.5 Z"/></g>
<g><path style="opacity:0.631" fill="#6a6a6a" d="M 162.5,43.5 C 167.739,44.6538 172.739,45.9871 177.5,47.5C 173.486,47.6655 169.486,47.4988 165.5,47C 163.574,46.5776 162.574,45.4109 162.5,43.5 Z"/></g>
<g><path style="opacity:0.631" fill="#979797" d="M 425.5,46.5 C 439.323,45.5042 453.323,45.1709 467.5,45.5C 467.5,50.1667 467.5,54.8333 467.5,59.5C 466.517,55.7016 466.183,51.7016 466.5,47.5C 453.01,46.5043 439.344,46.171 425.5,46.5 Z"/></g>
<g><path style="opacity:0.314" fill="#252525" d="M 494.5,43.5 C 495.833,44.1667 496.833,45.1667 497.5,46.5C 495.5,46.5 494.5,45.5 494.5,43.5 Z"/></g>
<g><path style="opacity:0.631" fill="#8e8e8e" d="M 599.5,44.5 C 604.637,45.0678 609.637,45.7344 614.5,46.5C 610.5,46.5 606.5,46.5 602.5,46.5C 600.973,46.573 599.973,45.9063 599.5,44.5 Z"/></g>
<g><path style="opacity:0.49" fill="#5b5b5b" d="M 294.5,42.5 C 289.156,42.334 283.823,42.5006 278.5,43C 278,43.5 277.5,44 277,44.5C 276.501,49.4889 276.334,54.4889 276.5,59.5C 270.913,43.9191 276.247,37.7524 292.5,41C 293.416,41.2784 294.082,41.7784 294.5,42.5 Z"/></g>
<g><path style="opacity:0.267" fill="#252525" d="M 294.5,42.5 C 295.79,43.0577 296.623,44.0577 297,45.5C 297.826,50.5893 297.492,55.5893 296,60.5C 295.329,61.2524 294.496,61.5858 293.5,61.5C 295.817,55.3892 296.15,49.0559 294.5,42.5 Z"/></g>
<g><path style="opacity:0.49" fill="#5d5d5d" d="M 393.5,46.5 C 397.167,46.5 400.833,46.5 404.5,46.5C 405.494,55.6517 405.827,64.985 405.5,74.5C 404.507,65.6822 404.173,56.6822 404.5,47.5C 400.629,47.815 396.962,47.4816 393.5,46.5 Z"/></g>
<g><path style="opacity:0.737" fill="#858585" d="M 497.5,46.5 C 501.833,46.5 506.167,46.5 510.5,46.5C 510.5,56.1667 510.5,65.8333 510.5,75.5C 509.506,66.3483 509.173,57.015 509.5,47.5C 505.298,47.8168 501.298,47.4834 497.5,46.5 Z"/></g>
<g><path style="opacity:0.247" fill="#323232" d="M 602.5,46.5 C 606.5,46.5 610.5,46.5 614.5,46.5C 614.5,55.8333 614.5,65.1667 614.5,74.5C 613.507,65.6822 613.173,56.6822 613.5,47.5C 609.629,47.815 605.962,47.4816 602.5,46.5 Z"/></g>
<g><path style="opacity:0.239" fill="#404040" d="M 102.5,32.5 C 106.6,41.948 110.433,51.6147 114,61.5C 114.859,65.0713 114.026,68.0713 111.5,70.5C 112.059,68.3208 112.726,66.1542 113.5,64C 109.329,53.6529 105.662,43.1529 102.5,32.5 Z"/></g>
<g><path style="opacity:0.122" fill="#0d0d0d" d="M 330.5,31.5 C 331.493,39.6499 331.826,47.9832 331.5,56.5C 339.84,56.3336 348.173,56.5003 356.5,57C 357.416,57.2784 358.082,57.7784 358.5,58.5C 349.207,57.5817 339.873,57.2483 330.5,57.5C 330.5,48.8333 330.5,40.1667 330.5,31.5 Z"/></g>
<g><path style="opacity:0.031" fill="#111111" d="M 21.5,46.5 C 21.185,50.3714 21.5184,54.0381 22.5,57.5C 22.448,59.9029 22.7814,62.2362 23.5,64.5C 21.87,62.9739 21.0367,60.9739 21,58.5C 20.1881,54.3112 20.3547,50.3112 21.5,46.5 Z"/></g>
<g><path style="opacity:0.008" fill="#010101" d="M 360.5,61.5 C 361.647,65.6463 361.814,69.9796 361,74.5C 360.617,75.056 360.117,75.3893 359.5,75.5C 359.5,74.8333 359.5,74.1667 359.5,73.5C 360.483,69.7016 360.817,65.7016 360.5,61.5 Z"/></g>
<g><path style="opacity:0.38" fill="#434343" d="M 486.5,45.5 C 487.485,49.6344 487.818,53.9677 487.5,58.5C 487.489,60.0174 486.823,61.1841 485.5,62C 480.167,62.6667 474.833,62.6667 469.5,62C 468.619,61.2917 467.953,60.4584 467.5,59.5C 472.923,61.5083 478.59,62.0083 484.5,61C 485,60.5 485.5,60 486,59.5C 486.499,54.8452 486.666,50.1785 486.5,45.5 Z"/></g>
<g><path style="opacity:0.635" fill="#a3a3a3" d="M 81.5,64.5 C 73.747,64.201 66.0804,64.5343 58.5,65.5C 61.9377,64.1768 65.771,63.5102 70,63.5C 74.0152,63.5012 77.8485,63.8345 81.5,64.5 Z"/></g>
<g><path style="opacity:0.51" fill="#696969" d="M 358.5,58.5 C 359.906,58.9731 360.573,59.9731 360.5,61.5C 360.817,65.7016 360.483,69.7016 359.5,73.5C 359.726,68.4376 359.392,63.4376 358.5,58.5 Z"/></g>
<g><path style="opacity:0.573" fill="#585858" d="M 80.5,67.5 C 80.323,71.7076 78.9897,75.3743 76.5,78.5C 77.4624,74.6052 78.7957,70.9385 80.5,67.5 Z"/></g>
<g><path style="opacity:0.122" fill="#0d0d0d" d="M 239.5,47.5 C 225.833,47.5 212.167,47.5 198.5,47.5C 198.5,55.5 198.5,63.5 198.5,71.5C 212.167,71.5 225.833,71.5 239.5,71.5C 225.677,72.4958 211.677,72.8291 197.5,72.5C 197.5,63.8333 197.5,55.1667 197.5,46.5C 211.677,46.1709 225.677,46.5042 239.5,47.5 Z"/></g>
<g><path style="opacity:0.121" fill="#111111" d="M 425.5,46.5 C 439.344,46.171 453.01,46.5043 466.5,47.5C 453.167,47.5 439.833,47.5 426.5,47.5C 426.5,55.5 426.5,63.5 426.5,71.5C 441.239,71.0502 455.905,71.5502 470.5,73C 471,73.5 471.5,74 472,74.5C 472.499,78.8206 472.666,83.1539 472.5,87.5C 476.702,87.1832 480.702,87.5166 484.5,88.5C 480.167,88.5 475.833,88.5 471.5,88.5C 471.666,84.1539 471.499,79.8206 471,75.5C 469.89,73.9632 468.39,73.2965 466.5,73.5C 453.01,72.5043 439.344,72.171 425.5,72.5C 425.5,63.8333 425.5,55.1667 425.5,46.5 Z"/></g>
<g><path style="opacity:0.121" fill="#101010" d="M 634.5,46.5 C 648.5,46.5 662.5,46.5 676.5,46.5C 676.5,50.5 676.5,54.5 676.5,58.5C 675.518,55.0381 675.185,51.3714 675.5,47.5C 662.167,47.5 648.833,47.5 635.5,47.5C 635.5,55.5 635.5,63.5 635.5,71.5C 649.344,71.171 663.01,71.5043 676.5,72.5C 662.5,72.5 648.5,72.5 634.5,72.5C 634.5,63.8333 634.5,55.1667 634.5,46.5 Z"/></g>
<g><path style="opacity:0.62" fill="#969696" d="M 425.5,46.5 C 425.5,55.1667 425.5,63.8333 425.5,72.5C 439.344,72.171 453.01,72.5043 466.5,73.5C 452.5,73.5 438.5,73.5 424.5,73.5C 424.173,64.3178 424.507,55.3178 425.5,46.5 Z"/></g>
<g><path style="opacity:0.62" fill="#a7a7a7" d="M 634.5,46.5 C 634.5,55.1667 634.5,63.8333 634.5,72.5C 648.5,72.5 662.5,72.5 676.5,72.5C 676.5,72.8333 676.5,73.1667 676.5,73.5C 662.167,73.5 647.833,73.5 633.5,73.5C 633.173,64.3178 633.507,55.3178 634.5,46.5 Z"/></g>
<g><path style="opacity:0.533" fill="#434343" d="M 111.5,70.5 C 111.333,74.6734 110,78.3401 107.5,81.5C 108.459,77.617 109.792,73.9503 111.5,70.5 Z"/></g>
<g><path style="opacity:1" fill="#fefefe" d="M 294.5,73.5 C 295.644,94.4569 295.81,115.457 295,136.5C 294.184,137.823 293.017,138.489 291.5,138.5C 286.438,138.726 281.438,138.392 276.5,137.5C 276.5,137.167 276.5,136.833 276.5,136.5C 276.333,116.164 276.5,95.8306 277,75.5C 277.5,75 278,74.5 278.5,74C 283.823,73.5006 289.156,73.334 294.5,73.5 Z"/></g>
<g><path style="opacity:0.631" fill="#616161" d="M 405.5,75.5 C 410.897,75.7324 415.897,76.7324 420.5,78.5C 416.486,78.6655 412.486,78.4988 408.5,78C 407.058,77.6232 406.058,76.7899 405.5,75.5 Z"/></g>
<g><path style="opacity:0.631" fill="#8c8c8c" d="M 510.5,75.5 C 515.637,76.0678 520.637,76.7344 525.5,77.5C 521.5,77.5 517.5,77.5 513.5,77.5C 511.973,77.573 510.973,76.9063 510.5,75.5 Z"/></g>
<g><path style="opacity:0.631" fill="#696969" d="M 614.5,74.5 C 619.739,75.6538 624.739,76.9871 629.5,78.5C 625.486,78.6655 621.486,78.4988 617.5,78C 615.574,77.5776 614.574,76.4109 614.5,74.5 Z"/></g>
<g><path style="opacity:0.286" fill="#333333" d="M 23.5,64.5 C 25.0591,66.6076 26.3924,68.9409 27.5,71.5C 22.7986,75.2008 18.7986,79.5341 15.5,84.5C 15.1667,84.5 14.8333,84.5 14.5,84.5C 16.7078,79.4531 20.2078,75.4531 25,72.5C 24.8471,69.8262 24.3471,67.1595 23.5,64.5 Z"/></g>
<g><path style="opacity:0.49" fill="#6a6a6a" d="M 294.5,73.5 C 289.156,73.334 283.823,73.5006 278.5,74C 278,74.5 277.5,75 277,75.5C 276.5,95.8306 276.333,116.164 276.5,136.5C 275.337,116.004 275.171,95.3374 276,74.5C 278.827,72.039 282.16,71.039 286,71.5C 288.167,71.6667 290.333,71.8333 292.5,72C 293.416,72.2784 294.082,72.7784 294.5,73.5 Z"/></g>
<g><path style="opacity:0.267" fill="#2c2c2c" d="M 294.5,73.5 C 295.79,74.0577 296.623,75.0577 297,76.5C 297.667,96.1667 297.667,115.833 297,135.5C 296.125,138.215 294.292,139.548 291.5,139.5C 291.5,139.167 291.5,138.833 291.5,138.5C 293.017,138.489 294.184,137.823 295,136.5C 295.81,115.457 295.644,94.4569 294.5,73.5 Z"/></g>
<g><path style="opacity:0.004" fill="#050505" d="M 330.5,77.5 C 339.167,77.5 347.833,77.5 356.5,77.5C 348.35,78.4927 340.017,78.8261 331.5,78.5C 331.5,91.5 331.5,104.5 331.5,117.5C 330.504,104.344 330.171,91.0105 330.5,77.5 Z"/></g>
<g><path style="opacity:0.247" fill="#2b2b2b" d="M 513.5,77.5 C 517.5,77.5 521.5,77.5 525.5,77.5C 525.5,81.5 525.5,85.5 525.5,89.5C 524.518,86.0381 524.185,82.3714 524.5,78.5C 520.629,78.815 516.962,78.4816 513.5,77.5 Z"/></g>
<g><path style="opacity:0.014" fill="#070707" d="M 588.5,77.5 C 585.038,78.4816 581.371,78.815 577.5,78.5C 577.666,82.5138 577.499,86.5138 577,90.5C 576.617,91.056 576.117,91.3893 575.5,91.5C 576.383,86.8969 576.717,82.2303 576.5,77.5C 580.5,77.5 584.5,77.5 588.5,77.5 Z"/></g>
<g><path style="opacity:0.018" fill="#252525" d="M 72.5,16.5 C 72.5,16.1667 72.5,15.8333 72.5,15.5C 74.1238,15.3601 75.2904,16.0267 76,17.5C 81.6971,32.9243 87.1971,48.4243 92.5,64C 86.0253,83.092 79.3586,102.092 72.5,121C 79.1915,121.831 85.8582,121.664 92.5,120.5C 93.609,117.292 94.9423,114.292 96.5,111.5C 95.9751,115.533 94.6418,119.2 92.5,122.5C 85.0869,123.128 78.0869,122.461 71.5,120.5C 77.3292,101.846 83.6625,83.3462 90.5,65C 86.1367,48.9083 80.8034,33.2417 74.5,18C 74.1639,16.9701 73.4972,16.4701 72.5,16.5 Z"/></g>
<g><path style="opacity:0.529" fill="#424242" d="M 76.5,78.5 C 76.7406,80.8984 76.0739,82.8984 74.5,84.5C 74.595,82.2143 75.2616,80.2143 76.5,78.5 Z"/></g>
<g><path style="opacity:0.576" fill="#585858" d="M 107.5,81.5 C 107.323,85.7076 105.99,89.3743 103.5,92.5C 104.462,88.6052 105.796,84.9385 107.5,81.5 Z"/></g>
<g><path style="opacity:0.366" fill="#1d1d1d" d="M 256.5,77.5 C 253.038,78.4816 249.371,78.815 245.5,78.5C 245.5,81.5 245.5,84.5 245.5,87.5C 249.514,87.3345 253.514,87.5012 257.5,88C 258.056,88.3826 258.389,88.8826 258.5,89.5C 253.897,88.6167 249.23,88.2834 244.5,88.5C 244.5,84.8333 244.5,81.1667 244.5,77.5C 248.5,77.5 252.5,77.5 256.5,77.5 Z"/></g>
<g><path style="opacity:0.369" fill="#272727" d="M 545.5,75.5 C 546.483,79.2984 546.817,83.2984 546.5,87.5C 549.5,87.5 552.5,87.5 555.5,87.5C 555.185,83.6286 555.518,79.9619 556.5,76.5C 556.5,80.5 556.5,84.5 556.5,88.5C 552.833,88.5 549.167,88.5 545.5,88.5C 545.5,84.1667 545.5,79.8333 545.5,75.5 Z"/></g>
<g><path style="opacity:0.369" fill="#262626" d="M 676.5,73.5 C 676.5,73.1667 676.5,72.8333 676.5,72.5C 678.39,72.2965 679.89,72.9632 681,74.5C 682.29,78.7305 682.79,83.0638 682.5,87.5C 686.371,87.185 690.038,87.5184 693.5,88.5C 689.167,88.5 684.833,88.5 680.5,88.5C 680.666,84.1539 680.499,79.8206 680,75.5C 679.184,74.1772 678.017,73.5106 676.5,73.5 Z"/></g>
<g><path style="opacity:0.019" fill="#080808" d="M 258.5,89.5 C 259.117,89.6107 259.617,89.944 260,90.5C 260.667,100.833 260.667,111.167 260,121.5C 259.583,122.756 258.75,123.423 257.5,123.5C 257.987,122.527 258.487,121.527 259,120.5C 259.785,110.12 259.619,99.7867 258.5,89.5 Z"/></g>
<g><path style="opacity:0.075" fill="#0d0d0d" d="M 484.5,88.5 C 486.5,88.5 487.5,89.5 487.5,91.5C 487.167,91.5 486.833,91.5 486.5,91.5C 485.833,90.5 485.167,89.5 484.5,88.5 Z"/></g>
<g><path style="opacity:0.014" fill="#050505" d="M 693.5,88.5 C 695.017,88.5106 696.184,89.1772 697,90.5C 697.667,100.833 697.667,111.167 697,121.5C 695.871,123.141 694.371,124.141 692.5,124.5C 692.5,124.167 692.5,123.833 692.5,123.5C 693.794,122.71 694.961,121.71 696,120.5C 696.667,110.833 696.667,101.167 696,91.5C 694.955,90.6266 694.122,89.6266 693.5,88.5 Z"/></g>
<g><path style="opacity:0.808" fill="#6c6c6c" d="M 14.5,84.5 C 14.8333,84.5 15.1667,84.5 15.5,84.5C 14.2049,88.4234 12.3716,92.0901 10,95.5C 9.81382,98.0356 9.31382,100.369 8.5,102.5C 8.69746,95.9076 10.6975,89.9076 14.5,84.5 Z"/></g>
<g><path style="opacity:0.38" fill="#444444" d="M 421.5,91.5 C 436.785,92.4686 452.119,92.8019 467.5,92.5C 467.827,101.682 467.493,110.682 466.5,119.5C 466.5,119.167 466.5,118.833 466.5,118.5C 466.5,110.167 466.5,101.833 466.5,93.5C 451.83,93.6666 437.163,93.4999 422.5,93C 421.944,92.6174 421.611,92.1174 421.5,91.5 Z"/></g>
<g><path style="opacity:0.38" fill="#383838" d="M 525.5,90.5 C 530.445,91.9906 535.445,92.9906 540.5,93.5C 536.154,93.6657 531.821,93.499 527.5,93C 526.619,92.2917 525.953,91.4584 525.5,90.5 Z"/></g>
<g><path style="opacity:0.51" fill="#525252" d="M 486.5,91.5 C 486.833,91.5 487.167,91.5 487.5,91.5C 488.833,101.167 488.833,110.833 487.5,120.5C 487.167,120.5 486.833,120.5 486.5,120.5C 486.5,110.833 486.5,101.167 486.5,91.5 Z"/></g>
<g><path style="opacity:0.267" fill="#2c2c2c" d="M 575.5,91.5 C 575.389,92.1174 575.056,92.6174 574.5,93C 570.514,93.4988 566.514,93.6655 562.5,93.5C 562.667,107.504 562.5,121.504 562,135.5C 561.252,137.751 559.752,139.084 557.5,139.5C 557.5,139.167 557.5,138.833 557.5,138.5C 558.458,138.047 559.292,137.381 560,136.5C 560.5,121.837 560.667,107.17 560.5,92.5C 565.562,92.7257 570.562,92.3924 575.5,91.5 Z"/></g>
<g><path style="opacity:0.494" fill="#393939" d="M 388.5,103.5 C 383.489,103.334 378.489,103.501 373.5,104C 372.627,105.045 371.627,105.878 370.5,106.5C 370.511,104.983 371.177,103.816 372.5,103C 378.016,102.183 383.35,102.349 388.5,103.5 Z"/></g>
<g><path style="opacity:0.533" fill="#5d5d5d" d="M 103.5,93.5 C 102.232,100.017 99.8984,106.017 96.5,111.5C 98.0702,105.109 100.404,99.1092 103.5,93.5 Z"/></g>
<g><path style="opacity:0.62" fill="#585858" d="M 423.5,104.5 C 418.156,104.334 412.823,104.501 407.5,105C 406.956,105.717 406.289,106.217 405.5,106.5C 405.756,104.224 407.09,103.057 409.5,103C 413.167,102.333 416.833,102.333 420.5,103C 421.737,103.232 422.737,103.732 423.5,104.5 Z"/></g>
<g><path style="opacity:0.62" fill="#565656" d="M 632.5,104.5 C 627.156,104.334 621.823,104.501 616.5,105C 615.956,105.717 615.289,106.217 614.5,106.5C 614.756,104.224 616.09,103.057 618.5,103C 622.167,102.333 625.833,102.333 629.5,103C 630.737,103.232 631.737,103.732 632.5,104.5 Z"/></g>
<g><path style="opacity:0.022" fill="#272727" d="M 81.5,64.5 C 81.7373,65.791 81.404,66.791 80.5,67.5C 77.572,66.1803 74.2386,65.5136 70.5,65.5C 67.1667,65.8333 63.8333,66.1667 60.5,66.5C 53.3016,85.4286 46.3016,104.429 39.5,123.5C 43.1011,132.687 46.1011,142.02 48.5,151.5C 43.8075,151.575 39.4742,150.575 35.5,148.5C 39.1545,148.942 42.8212,149.276 46.5,149.5C 43.9183,140.757 40.9183,132.091 37.5,123.5C 44.519,104.104 51.519,84.771 58.5,65.5C 66.0804,64.5343 73.747,64.201 81.5,64.5 Z"/></g>
<g><path style="opacity:0.013" fill="#212121" d="M 388.5,103.5 C 389.458,103.953 390.292,104.619 391,105.5C 395.685,119.627 390.851,125.627 376.5,123.5C 376.665,127.182 376.499,130.848 376,134.5C 375.535,135.931 374.701,137.097 373.5,138C 357.994,138.828 342.661,138.661 327.5,137.5C 342.504,137.667 357.504,137.5 372.5,137C 373.701,136.097 374.535,134.931 375,133.5C 375.499,129.848 375.665,126.182 375.5,122.5C 379.514,122.666 383.514,122.499 387.5,122C 388.333,121.167 389.167,120.333 390,119.5C 390.996,113.92 390.496,108.587 388.5,103.5 Z"/></g>
<g><path style="opacity:0.369" fill="#363636" d="M 330.5,77.5 C 330.171,91.0105 330.504,104.344 331.5,117.5C 344.5,117.5 357.5,117.5 370.5,117.5C 357.01,118.496 343.344,118.829 329.5,118.5C 329.171,104.656 329.504,90.9898 330.5,77.5 Z"/></g>
<g><path style="opacity:0.369" fill="#272727" d="M 239.5,93.5 C 225.833,93.5 212.167,93.5 198.5,93.5C 198.5,101.833 198.5,110.167 198.5,118.5C 212.167,118.5 225.833,118.5 239.5,118.5C 225.677,119.496 211.677,119.829 197.5,119.5C 197.5,110.5 197.5,101.5 197.5,92.5C 211.677,92.1709 225.677,92.5042 239.5,93.5 Z"/></g>
<g><path style="opacity:0.369" fill="#333333" d="M 423.5,104.5 C 424.458,104.953 425.292,105.619 426,106.5C 426.499,110.486 426.666,114.486 426.5,118.5C 439.833,118.5 453.167,118.5 466.5,118.5C 466.5,118.833 466.5,119.167 466.5,119.5C 452.5,119.5 438.5,119.5 424.5,119.5C 424.726,114.438 424.392,109.438 423.5,104.5 Z"/></g>
<g><path style="opacity:0.368" fill="#2c2c2c" d="M 632.5,92.5 C 647.167,92.5 661.833,92.5 676.5,92.5C 676.5,101.5 676.5,110.5 676.5,119.5C 662.5,119.5 648.5,119.5 634.5,119.5C 634.817,115.298 634.483,111.298 633.5,107.5C 633.443,106.391 633.11,105.391 632.5,104.5C 633.75,104.577 634.583,105.244 635,106.5C 635.499,110.486 635.666,114.486 635.5,118.5C 648.833,118.5 662.167,118.5 675.5,118.5C 675.5,110.167 675.5,101.833 675.5,93.5C 660.99,93.8293 646.657,93.4959 632.5,92.5 Z"/></g>
<g><path style="opacity:0.875" fill="#d8d8d8" d="M 633.5,107.5 C 634.483,111.298 634.817,115.298 634.5,119.5C 648.5,119.5 662.5,119.5 676.5,119.5C 662.343,120.496 648.01,120.829 633.5,120.5C 633.5,116.167 633.5,111.833 633.5,107.5 Z"/></g>
<g><path style="opacity:0.086" fill="#1d1d1d" d="M 8.5,114.5 C 9.53101,116.961 10.1977,119.627 10.5,122.5C 8.77733,120.22 8.11066,117.553 8.5,114.5 Z"/></g>
<g><path style="opacity:0.137" fill="#393939" d="M 74.5,84.5 C 70.7769,97.6692 66.4436,110.669 61.5,123.5C 64.9021,132.04 67.9021,140.707 70.5,149.5C 70.5,149.833 70.5,150.167 70.5,150.5C 66.801,141.747 63.4677,132.747 60.5,123.5C 64.8013,110.255 69.468,97.255 74.5,84.5 Z"/></g>
<g><path style="opacity:0.522" fill="#828282" d="M 71.5,120.5 C 78.0869,122.461 85.0869,123.128 92.5,122.5C 85.3524,123.492 78.0191,123.825 70.5,123.5C 70.2627,122.209 70.596,121.209 71.5,120.5 Z"/></g>
<g><path style="opacity:0.38" fill="#3c3c3c" d="M 310.5,120.5 C 315.241,122.317 320.241,122.984 325.5,122.5C 325.5,126.5 325.5,130.5 325.5,134.5C 324.518,131.038 324.185,127.371 324.5,123.5C 320.486,123.666 316.486,123.499 312.5,123C 311.619,122.292 310.953,121.458 310.5,120.5 Z"/></g>
<g><path style="opacity:0.38" fill="#3c3c3c" d="M 405.5,121.5 C 410.445,122.991 415.445,123.991 420.5,124.5C 416.154,124.666 411.821,124.499 407.5,124C 406.619,123.292 405.953,122.458 405.5,121.5 Z"/></g>
<g><path style="opacity:0.38" fill="#3a3a3a" d="M 614.5,121.5 C 619.445,122.991 624.445,123.991 629.5,124.5C 625.154,124.666 620.821,124.499 616.5,124C 615.619,123.292 614.953,122.458 614.5,121.5 Z"/></g>
<g><path style="opacity:0.008" fill="#141414" d="M 257.5,123.5 C 253.702,124.483 249.702,124.817 245.5,124.5C 245.666,128.514 245.499,132.514 245,136.5C 244.583,137.756 243.75,138.423 242.5,138.5C 244.318,133.729 244.985,128.729 244.5,123.5C 248.833,123.5 253.167,123.5 257.5,123.5 Z"/></g>
<g><path style="opacity:0.267" fill="#2e2e2e" d="M 692.5,123.5 C 692.5,123.833 692.5,124.167 692.5,124.5C 689.167,124.5 685.833,124.5 682.5,124.5C 682.79,128.936 682.29,133.27 681,137.5C 680.184,138.823 679.017,139.489 677.5,139.5C 677.5,139.167 677.5,138.833 677.5,138.5C 678.458,138.047 679.292,137.381 680,136.5C 680.499,132.179 680.666,127.846 680.5,123.5C 684.5,123.5 688.5,123.5 692.5,123.5 Z"/></g>
<g><path style="opacity:0.153" fill="#373737" d="M 10.5,122.5 C 12.3873,124.789 13.7206,127.455 14.5,130.5C 12.2295,128.388 10.8961,125.721 10.5,122.5 Z"/></g>
<g><path style="opacity:0.208" fill="#303030" d="M 14.5,130.5 C 18.1384,134.474 21.8051,138.474 25.5,142.5C 20.4441,139.777 16.7774,135.777 14.5,130.5 Z"/></g>
<g><path style="opacity:0.631" fill="#6b6b6b" d="M 177.5,136.5 C 178.922,136.709 180.255,137.209 181.5,138C 201.831,138.5 222.164,138.667 242.5,138.5C 242.082,139.222 241.416,139.722 240.5,140C 220.5,140.667 200.5,140.667 180.5,140C 179.29,138.961 178.29,137.794 177.5,136.5 Z"/></g>
<g><path style="opacity:0.631" fill="#5f5f5f" d="M 276.5,137.5 C 281.438,138.392 286.438,138.726 291.5,138.5C 291.5,138.833 291.5,139.167 291.5,139.5C 288.024,140.643 284.358,140.81 280.5,140C 278.68,139.8 277.347,138.966 276.5,137.5 Z"/></g>
<g><path style="opacity:0.631" fill="#9e9e9e" d="M 420.5,136.5 C 421.922,136.709 423.255,137.209 424.5,138C 438.829,138.5 453.163,138.667 467.5,138.5C 453.343,139.496 439.01,139.829 424.5,139.5C 422.596,139.262 421.262,138.262 420.5,136.5 Z"/></g>
<g><path style="opacity:0.631" fill="#636363" d="M 541.5,137.5 C 546.772,138.4 552.105,138.733 557.5,138.5C 557.5,138.833 557.5,139.167 557.5,139.5C 553.354,140.647 549.02,140.814 544.5,140C 543.058,139.623 542.058,138.79 541.5,137.5 Z"/></g>
<g><path style="opacity:0.631" fill="#686868" d="M 630.5,137.5 C 646.119,138.469 661.786,138.803 677.5,138.5C 677.5,138.833 677.5,139.167 677.5,139.5C 663.006,140.661 648.339,140.828 633.5,140C 632.058,139.623 631.058,138.79 630.5,137.5 Z"/></g>
<g><path style="opacity:0.125" fill="#121212" d="M 486.5,120.5 C 486.833,120.5 487.167,120.5 487.5,120.5C 487.489,122.017 486.823,123.184 485.5,124C 481.179,124.499 476.846,124.666 472.5,124.5C 472.666,128.846 472.499,133.179 472,137.5C 471.097,138.701 469.931,139.535 468.5,140C 453.661,140.828 438.994,140.661 424.5,139.5C 439.01,139.829 453.343,139.496 467.5,138.5C 469.017,138.489 470.184,137.823 471,136.5C 471.499,132.179 471.666,127.846 471.5,123.5C 475.846,123.666 480.179,123.499 484.5,123C 485.381,122.292 486.047,121.458 486.5,120.5 Z"/></g>
<g><path style="opacity:0.678" fill="#7a7a7a" d="M 25.5,142.5 C 27.9674,142.755 29.9674,143.755 31.5,145.5C 30.8333,145.5 30.1667,145.5 29.5,145.5C 27.5956,145.262 26.2623,144.262 25.5,142.5 Z"/></g>
<g><path style="opacity:0.075" fill="#171717" d="M 29.5,145.5 C 30.1667,145.5 30.8333,145.5 31.5,145.5C 32.8333,146.5 34.1667,147.5 35.5,148.5C 32.911,148.539 30.911,147.539 29.5,145.5 Z"/></g>
</svg>
