<?xml version="1.0" encoding="UTF-8"?>
<!DOCTYPE svg PUBLIC "-//W3C//DTD SVG 1.1//EN" "http://www.w3.org/Graphics/SVG/1.1/DTD/svg11.dtd">
<svg xmlns="http://www.w3.org/2000/svg" version="1.1" width="2120px" height="912px" style="shape-rendering:geometricPrecision; text-rendering:geometricPrecision; image-rendering:optimizeQuality; fill-rule:evenodd; clip-rule:evenodd" xmlns:xlink="http://www.w3.org/1999/xlink">
<g><path style="opacity:0.976" fill="#fdfdfd" d="M 1339.5,-0.5 C 1352.5,-0.5 1365.5,-0.5 1378.5,-0.5C 1401.19,1.17083 1423.19,6.3375 1444.5,15C 1455.15,20.2401 1464.65,27.0734 1473,35.5C 1485.8,53.8415 1483.63,70.3415 1466.5,85C 1446.87,99.0622 1425.04,104.229 1401,100.5C 1386.71,100.425 1372.88,102.925 1359.5,108C 1349.84,112.342 1340.17,116.342 1330.5,120C 1356.23,97.4741 1386.23,84.1407 1420.5,80C 1359.95,77.352 1314.12,101.852 1283,153.5C 1261.9,191.481 1249.23,232.148 1245,275.5C 1238.88,328.54 1242.54,380.874 1256,432.5C 1261.56,452.605 1270.06,471.271 1281.5,488.5C 1274.88,502.624 1264.88,513.79 1251.5,522C 1220.66,538.743 1188.82,540.909 1156,528.5C 1149.71,505.04 1144.71,481.373 1141,457.5C 1145.64,465.946 1151.14,473.779 1157.5,481C 1172.78,493.748 1185.94,491.915 1197,475.5C 1199.88,465.709 1201.54,455.709 1202,445.5C 1203.4,406.155 1205.07,366.821 1207,327.5C 1209.05,286.48 1215.38,246.147 1226,206.5C 1231.2,189.537 1237.53,173.204 1245,157.5C 1209.65,183.179 1180.98,214.846 1159,252.5C 1162.11,243.259 1166.11,234.259 1171,225.5C 1190.42,192.535 1214.25,163.035 1242.5,137C 1238.69,138.409 1235.03,140.409 1231.5,143C 1164.47,196.842 1119.3,265.342 1096,348.5C 1093.67,359.871 1091.67,371.204 1090,382.5C 1081.67,357.517 1077.84,331.85 1078.5,305.5C 1078.46,249.659 1091.29,196.993 1117,147.5C 1120.17,141.819 1123.84,136.486 1128,131.5C 1121.3,153.619 1114.97,175.952 1109,198.5C 1105.57,213.713 1103.24,229.046 1102,244.5C 1110.67,215.505 1122.34,187.838 1137,161.5C 1159.42,127.083 1189.25,101.25 1226.5,84C 1228.45,83.0087 1230.45,82.6753 1232.5,83C 1200.06,105.438 1173.89,133.605 1154,167.5C 1148.54,177.388 1144.54,187.722 1142,198.5C 1173,155.497 1210.5,119.33 1254.5,90C 1276.56,76.1376 1300.23,65.8043 1325.5,59C 1342.51,55.3319 1359.51,51.6653 1376.5,48C 1340.22,43.5572 1304.22,45.2239 1268.5,53C 1250.7,57.5322 1233.03,62.1989 1215.5,67C 1241.28,50.6112 1268.95,38.2779 1298.5,30C 1312.75,26.2842 1327.08,22.9509 1341.5,20C 1334.25,17.375 1326.75,16.2083 1319,16.5C 1285.39,18.86 1252.89,26.1934 1221.5,38.5C 1220.83,38.3333 1220.17,38.1667 1219.5,38C 1245.38,20.0309 1274.05,8.69752 1305.5,4C 1316.95,2.23118 1328.28,0.731184 1339.5,-0.5 Z"/></g>
<g><path style="opacity:0.985" fill="#fefefe" d="M 1465.5,113.5 C 1475.34,111.428 1483.51,114.094 1490,121.5C 1496.25,134.422 1501.42,147.755 1505.5,161.5C 1511.06,160.638 1515.89,158.305 1520,154.5C 1520.3,159.267 1518.8,163.434 1515.5,167C 1511.91,169.377 1508.41,171.877 1505,174.5C 1502.72,188.404 1505.39,201.404 1513,213.5C 1518,220.833 1523,228.167 1528,235.5C 1529.93,238.948 1531.26,242.615 1532,246.5C 1536.28,290.194 1531.28,332.86 1517,374.5C 1513.76,385.176 1507.93,394.009 1499.5,401C 1493.99,404.255 1488.32,407.255 1482.5,410C 1474.16,416.677 1467.66,424.844 1463,434.5C 1453.08,456.911 1444.75,479.911 1438,503.5C 1431.01,533.8 1422.01,563.467 1411,592.5C 1410.67,592.833 1410.33,593.167 1410,593.5C 1407.81,567.37 1403.15,541.703 1396,516.5C 1391.88,506.259 1387.21,496.259 1382,486.5C 1370.91,469.328 1359.58,452.328 1348,435.5C 1334.82,416.134 1326.98,394.801 1324.5,371.5C 1340.97,373.454 1357.47,375.121 1374,376.5C 1412.25,374.417 1448.42,364.584 1482.5,347C 1493.03,340.375 1495.53,331.542 1490,320.5C 1483.52,314.926 1476.85,309.593 1470,304.5C 1465.49,298.142 1465.49,291.808 1470,285.5C 1474.06,281.944 1477.56,277.944 1480.5,273.5C 1478.22,272.077 1475.72,271.411 1473,271.5C 1459.38,272.891 1445.88,275.058 1432.5,278C 1426.84,278.499 1421.18,278.666 1415.5,278.5C 1415.95,275.86 1417.12,273.527 1419,271.5C 1431.99,257.836 1446.15,245.67 1461.5,235C 1464.4,233.853 1467.4,233.019 1470.5,232.5C 1476.43,233.991 1482.43,234.491 1488.5,234C 1488.96,233.586 1489.29,233.086 1489.5,232.5C 1486.86,228.691 1484.02,225.024 1481,221.5C 1476.13,213.833 1475.46,205.833 1479,197.5C 1480.39,193.714 1482.06,190.048 1484,186.5C 1484.93,179.841 1483.09,174.008 1478.5,169C 1469.38,162.212 1460.54,155.046 1452,147.5C 1444.84,136.263 1446.34,126.43 1456.5,118C 1459.59,116.454 1462.59,114.954 1465.5,113.5 Z"/></g>
<g><path style="opacity:0.974" fill="#fdfdfd" d="M 1325.5,123.5 C 1326.55,123.351 1327.55,123.517 1328.5,124C 1298.86,166.528 1283.86,213.861 1283.5,266C 1286.09,318.542 1295.93,369.709 1313,419.5C 1322.24,446.214 1331.24,472.881 1340,499.5C 1312.4,491.237 1292.07,474.237 1279,448.5C 1264.14,417.558 1256.14,384.891 1255,350.5C 1251.75,290.939 1261.41,233.606 1284,178.5C 1293.18,156.509 1307.01,138.175 1325.5,123.5 Z"/></g>
<g><path style="opacity:0.95" fill="#fdfdfd" d="M 1353.5,127.5 C 1362.17,127.334 1370.84,127.5 1379.5,128C 1395.18,130.502 1410.84,133.002 1426.5,135.5C 1425.62,145.544 1420.12,150.544 1410,150.5C 1393.36,148.105 1376.86,144.938 1360.5,141C 1350.85,139.436 1341.18,139.102 1331.5,140C 1337.59,133.46 1344.92,129.294 1353.5,127.5 Z"/></g>
<g><path style="opacity:0.942" fill="#fcfcfc" d="M 1395.5,159.5 C 1407.52,158.505 1417.19,163.005 1424.5,173C 1405.92,174.96 1389.92,182.293 1376.5,195C 1372.54,197.83 1368.2,199.163 1363.5,199C 1364.5,198 1365.5,197 1366.5,196C 1361.87,197.323 1357.03,198.157 1352,198.5C 1349.07,198.477 1346.24,197.977 1343.5,197C 1347.96,194.936 1352.29,192.602 1356.5,190C 1344.72,187.862 1334.89,182.362 1327,173.5C 1325.6,171.606 1324.43,169.606 1323.5,167.5C 1323.67,166.833 1323.83,166.167 1324,165.5C 1329.41,167.971 1335.08,169.638 1341,170.5C 1349.76,168.246 1358.43,165.579 1367,162.5C 1367.5,162.667 1368,162.833 1368.5,163C 1365.63,166.204 1362.46,169.037 1359,171.5C 1358.41,172.483 1358.74,173.15 1360,173.5C 1375.04,167.522 1390.54,165.022 1406.5,166C 1402.81,163.822 1399.14,161.655 1395.5,159.5 Z"/></g>
<g><path style="opacity:0.939" fill="#fcfcfc" d="M 1452.5,193.5 C 1457.13,192.7 1460.96,194.034 1464,197.5C 1464.67,198.833 1464.67,200.167 1464,201.5C 1460.85,204.979 1457.35,208.146 1453.5,211C 1445.35,215.681 1441.18,213.514 1441,204.5C 1443.5,199.353 1447.33,195.686 1452.5,193.5 Z"/></g>
<g><path style="opacity:0.968" fill="#fdfdfd" d="M -0.5,757.5 C -0.5,752.833 -0.5,748.167 -0.5,743.5C 2.07859,734.046 8.07859,730.546 17.5,733C 20.5683,735.282 23.0683,738.116 25,741.5C 34.4054,774.864 56.4054,792.198 91,793.5C 140.775,788.281 182.108,766.947 215,729.5C 228.159,711.85 240.825,693.85 253,675.5C 274.513,640.052 295.847,604.718 317,569.5C 310.263,566.246 309.097,561.746 313.5,556C 318.533,555.829 323.533,555.329 328.5,554.5C 338.51,539.649 349.843,525.816 362.5,513C 352.634,514.481 342.634,515.481 332.5,516C 308.499,516.433 284.499,516.267 260.5,515.5C 231.453,513.796 203.453,518.296 176.5,529C 139.2,545.435 122.367,573.935 126,614.5C 134.887,646.463 155.887,659.797 189,654.5C 194.292,654.552 198.959,656.219 203,659.5C 205.136,662.993 204.969,666.326 202.5,669.5C 191.436,677.152 179.436,678.986 166.5,675C 127.755,659.68 108.921,631.18 110,589.5C 112.661,568.516 120.994,550.183 135,534.5C 168.702,499.91 209.869,482.076 258.5,481C 272.167,480.333 285.833,480.333 299.5,481C 322.131,483.053 344.798,484.553 367.5,485.5C 380.406,485.759 393.072,484.259 405.5,481C 412.332,478.5 417.666,474.167 421.5,468C 427.289,464.946 430.623,466.613 431.5,473C 431.385,475.732 430.552,478.232 429,480.5C 419.81,490.185 408.977,497.518 396.5,502.5C 381.831,519.34 368.497,537.174 356.5,556C 376.252,554.082 394.252,547.416 410.5,536C 416.878,529.891 422.545,523.224 427.5,516C 440.223,513.39 446.057,518.557 445,531.5C 440.753,539.662 436.253,547.662 431.5,555.5C 445.488,556.062 459.488,556.228 473.5,556C 478.524,558.057 479.69,561.557 477,566.5C 476.25,567.126 475.416,567.626 474.5,568C 459.5,568.333 444.5,568.667 429.5,569C 426.905,569.226 424.405,569.726 422,570.5C 399,606.167 376,641.833 353,677.5C 347.413,687.006 342.08,696.673 337,706.5C 333.11,714.115 332.777,721.781 336,729.5C 338.995,732.265 342.495,733.098 346.5,732C 355.557,728.972 363.89,724.639 371.5,719C 388.873,705.96 403.873,690.627 416.5,673C 419.498,671.656 422.498,671.489 425.5,672.5C 426.415,673.328 427.081,674.328 427.5,675.5C 425.778,680.612 423.278,685.279 420,689.5C 403.166,710.674 382.999,727.841 359.5,741C 345.282,747.308 331.282,746.975 317.5,740C 310.703,734.29 307.37,726.956 307.5,718C 307.968,712.023 309.135,706.19 311,700.5C 314.727,692.045 318.727,683.712 323,675.5C 337.503,652.49 352.503,629.824 368,607.5C 374.998,594.834 382.498,582.5 390.5,570.5C 378.18,569.334 365.847,569.167 353.5,570C 350.385,570.03 347.885,571.197 346,573.5C 328.173,606.49 309.84,639.157 291,671.5C 268.509,707.333 240.342,738.166 206.5,764C 168.732,791.695 126.398,804.362 79.5,802C 58.6588,799.831 38.9921,793.831 20.5,784C 10.6563,777.334 3.65632,768.5 -0.5,757.5 Z"/></g>
<g><path style="opacity:0.969" fill="#fdfdfd" d="M 925.5,469.5 C 945.914,467.291 965.248,470.791 983.5,480C 1005.51,495.504 1011.68,516.004 1002,541.5C 991.449,560.738 975.282,569.572 953.5,568C 949.708,565.947 948.542,562.781 950,558.5C 950.792,556.413 951.959,554.579 953.5,553C 967.771,550.283 979.938,543.783 990,533.5C 997.967,520.798 996.967,508.798 987,497.5C 969.397,482.837 949.564,479.003 927.5,486C 920.596,488.451 913.93,491.451 907.5,495C 885.667,511.5 866.5,530.667 850,552.5C 839.42,567.326 829.086,582.326 819,597.5C 797.322,634.87 773.655,670.87 748,705.5C 741.95,712.428 735.784,719.261 729.5,726C 798.523,747.229 865.523,773.562 930.5,805C 948.677,812.393 967.01,819.393 985.5,826C 1008.92,834.112 1032.59,835.112 1056.5,829C 1060.45,826.72 1064.11,824.053 1067.5,821C 1075.99,816.654 1079.83,819.154 1079,828.5C 1062.81,839.338 1044.98,845.838 1025.5,848C 991.059,850.82 957.392,846.82 924.5,836C 909.016,831.061 893.683,825.728 878.5,820C 822.058,795.362 765.558,770.862 709,746.5C 684.203,767.311 655.703,780.144 623.5,785C 605.741,787.031 589.075,783.698 573.5,775C 552.426,758.123 552.426,741.456 573.5,725C 586.53,716.546 600.863,711.879 616.5,711C 646.819,709.519 676.653,712.686 706,720.5C 718.113,707.61 728.78,693.61 738,678.5C 757.667,644.5 777.333,610.5 797,576.5C 812.795,550.69 831.628,527.19 853.5,506C 874.435,487.699 898.435,475.533 925.5,469.5 Z M 610.5,724.5 C 637,724.9 662.667,729.733 687.5,739C 667.793,756.685 644.793,767.685 618.5,772C 604.077,774.449 590.744,771.782 578.5,764C 564.396,751.623 565.396,740.623 581.5,731C 591.019,727.532 600.685,725.366 610.5,724.5 Z"/></g>
<g><path style="opacity:0.966" fill="#fdfdfd" d="M 2119.5,675.5 C 2119.5,676.5 2119.5,677.5 2119.5,678.5C 2118.45,681.72 2116.12,683.553 2112.5,684C 2096.7,686.843 2083.2,682.676 2072,671.5C 2055.59,697.91 2034.42,719.743 2008.5,737C 2001.84,740.832 1994.84,743.832 1987.5,746C 1973.25,749.122 1962.75,744.289 1956,731.5C 1954.07,725.327 1953.07,718.994 1953,712.5C 1942.16,725.016 1929.33,734.849 1914.5,742C 1879.3,753.129 1866.8,740.962 1877,705.5C 1879.56,698.718 1882.39,692.051 1885.5,685.5C 1877.87,683.343 1870.37,680.676 1863,677.5C 1846.79,700.709 1826.96,720.209 1803.5,736C 1796.18,740.159 1788.52,743.492 1780.5,746C 1758.09,749.568 1744.26,740.401 1739,718.5C 1726.14,731.343 1710.98,740.176 1693.5,745C 1678.98,747.384 1666.82,743.217 1657,732.5C 1655.72,730.283 1654.72,727.949 1654,725.5C 1636.14,737.102 1617.47,747.435 1598,756.5C 1578.99,790.526 1557.99,823.192 1535,854.5C 1520.26,872.584 1503.09,887.75 1483.5,900C 1473.38,905.759 1462.71,909.592 1451.5,911.5C 1448.5,911.5 1445.5,911.5 1442.5,911.5C 1425.94,908.77 1417.28,898.937 1416.5,882C 1418.75,865.322 1425.25,850.489 1436,837.5C 1448.38,823.787 1462.55,812.287 1478.5,803C 1507.17,786.164 1536.84,771.164 1567.5,758C 1575.05,746.056 1581.88,733.89 1588,721.5C 1571.09,739.05 1550.59,747.216 1526.5,746C 1523.34,744.587 1520.34,742.92 1517.5,741C 1513.43,735.362 1510.6,729.195 1509,722.5C 1490.18,735.163 1470.35,746.163 1449.5,755.5C 1436.92,776.999 1424.08,798.333 1411,819.5C 1395.9,842.798 1378.07,863.964 1357.5,883C 1341.35,897.574 1322.69,907.074 1301.5,911.5C 1298.83,911.5 1296.17,911.5 1293.5,911.5C 1273.65,907.787 1265.15,895.787 1268,875.5C 1273.41,854.081 1284.58,836.248 1301.5,822C 1316.82,810.67 1332.82,800.336 1349.5,791C 1371.92,779.455 1394.59,768.455 1417.5,758C 1425.63,745.888 1432.8,733.388 1439,720.5C 1427.83,733.169 1414,741.335 1397.5,745C 1389.82,746.263 1382.49,745.263 1375.5,742C 1371.74,738.579 1369.24,734.412 1368,729.5C 1351.48,744.672 1332.65,748.505 1311.5,741C 1299.69,733.249 1295.52,722.415 1299,708.5C 1300.1,703.628 1301.77,698.962 1304,694.5C 1319.31,667.533 1335.81,641.366 1353.5,616C 1346.57,613.783 1340.07,610.617 1334,606.5C 1317.31,630.674 1300.48,654.674 1283.5,678.5C 1282.83,678.5 1282.5,678.833 1282.5,679.5C 1281.66,679.842 1281.33,680.508 1281.5,681.5C 1280.83,681.5 1280.5,681.833 1280.5,682.5C 1269.78,684.272 1266.95,680.272 1272,670.5C 1290.85,647.481 1308.35,623.481 1324.5,598.5C 1312.87,583.568 1311.03,567.568 1319,550.5C 1328.17,539.877 1337.17,539.877 1346,550.5C 1349.65,557.412 1350.98,564.746 1350,572.5C 1347.83,579.838 1344.83,586.838 1341,593.5C 1342.21,598.007 1345.38,600.507 1350.5,601C 1357.84,601.927 1365.18,602.927 1372.5,604C 1379.97,607.12 1382.47,612.62 1380,620.5C 1376.33,627.167 1372.67,633.833 1369,640.5C 1352.75,665.33 1336.75,690.33 1321,715.5C 1316.05,728.132 1320.21,733.966 1333.5,733C 1346.79,728.608 1358.62,721.774 1369,712.5C 1374.04,697.089 1380.71,682.422 1389,668.5C 1403.64,646.052 1419.14,624.218 1435.5,603C 1428.37,606.055 1421.03,608.888 1413.5,611.5C 1409.44,611.274 1407.1,609.107 1406.5,605C 1406.86,603.775 1407.36,602.609 1408,601.5C 1422.87,593.981 1437.37,585.814 1451.5,577C 1456.87,576.9 1461.87,578.234 1466.5,581C 1470,585.128 1470.83,589.628 1469,594.5C 1465.11,603.94 1460.45,612.94 1455,621.5C 1442.91,638.677 1430.58,655.677 1418,672.5C 1414.84,680.816 1410.18,688.149 1404,694.5C 1398.63,703.4 1394.8,712.9 1392.5,723C 1392.83,727.869 1395.33,730.703 1400,731.5C 1407.75,729.748 1414.58,726.248 1420.5,721C 1454.31,686.509 1483.15,648.342 1507,606.5C 1512.12,599.707 1517.62,593.207 1523.5,587C 1527.52,583.319 1532.19,581.986 1537.5,583C 1541.66,585.611 1543.66,589.444 1543.5,594.5C 1542.69,602.091 1540.19,609.091 1536,615.5C 1526.43,629.734 1516.1,643.401 1505,656.5C 1488.97,683.254 1474.14,710.254 1460.5,737.5C 1478.09,728.793 1494.59,718.46 1510,706.5C 1515.69,683.44 1526.36,663.107 1542,645.5C 1551.5,635.333 1561,625.167 1570.5,615C 1583.87,602.225 1599.04,592.058 1616,584.5C 1627.96,579.298 1639.79,579.465 1651.5,585C 1658.16,589.326 1662.99,595.159 1666,602.5C 1673.61,597.349 1679.11,599.015 1682.5,607.5C 1679.55,615.405 1676.05,623.072 1672,630.5C 1648.97,665.25 1628.14,700.917 1609.5,737.5C 1624.74,729.966 1639.24,721.299 1653,711.5C 1654.6,706.023 1656.6,700.689 1659,695.5C 1698.75,629.656 1739.75,564.656 1782,500.5C 1788.26,495.227 1794.6,495.227 1801,500.5C 1803.3,504.218 1803.97,508.218 1803,512.5C 1770.59,567.672 1736.92,622.005 1702,675.5C 1701.85,679.098 1700.85,682.431 1699,685.5C 1693,692.833 1687,700.167 1681,707.5C 1669.66,729.486 1675.82,736.986 1699.5,730C 1713.73,722.773 1726.56,713.607 1738,702.5C 1739.72,687.678 1744.05,673.678 1751,660.5C 1765.61,634.556 1785.11,613.056 1809.5,596C 1825.52,586.329 1842.85,581.996 1861.5,583C 1867.4,584.7 1871.9,588.2 1875,593.5C 1883.87,610.993 1884.87,628.993 1878,647.5C 1875.74,653.938 1872.91,660.104 1869.5,666C 1876.81,670.996 1884.81,672.829 1893.5,671.5C 1907.52,648.98 1922.52,627.146 1938.5,606C 1934.38,607.049 1930.38,608.716 1926.5,611C 1921.42,612.437 1918.09,610.604 1916.5,605.5C 1917.1,604.205 1917.6,602.872 1918,601.5C 1925.88,597.475 1933.71,593.309 1941.5,589C 1946.52,586.157 1951.19,582.824 1955.5,579C 1963.8,575.987 1970.3,578.154 1975,585.5C 1975.74,589.261 1975.4,592.928 1974,596.5C 1971,602.5 1968,608.5 1965,614.5C 1948.25,639.008 1931.25,663.341 1914,687.5C 1909.08,696.343 1904.41,705.343 1900,714.5C 1898.64,718.761 1898.3,723.095 1899,727.5C 1902.38,731.816 1906.55,732.65 1911.5,730C 1917.68,727.081 1923.34,723.414 1928.5,719C 1940.41,707.096 1951.57,694.596 1962,681.5C 1980.35,651.482 1997.68,620.815 2014,589.5C 2019.38,584.756 2025.21,584.256 2031.5,588C 2035.3,592.091 2036.47,596.924 2035,602.5C 2029.41,617.016 2022.74,631.016 2015,644.5C 2002.91,663.004 1991.58,682.004 1981,701.5C 1978.25,707.573 1976.42,713.906 1975.5,720.5C 1975.42,727.587 1978.92,731.253 1986,731.5C 1995.4,730.216 2003.57,726.383 2010.5,720C 2031.14,700.539 2048.14,678.373 2061.5,653.5C 2056.1,635.798 2056.27,618.131 2062,600.5C 2067.81,586.585 2076.15,584.919 2087,595.5C 2088.56,597.957 2089.56,600.624 2090,603.5C 2090.64,623.094 2086.48,641.594 2077.5,659C 2083.26,667.384 2091.26,671.884 2101.5,672.5C 2106.49,671.667 2111.49,671.5 2116.5,672C 2117.64,673.145 2118.64,674.312 2119.5,675.5 Z M 1850.5,594.5 C 1856.84,593.755 1861.01,596.422 1863,602.5C 1865.59,620.896 1862.25,638.23 1853,654.5C 1840.1,638.903 1837.1,621.569 1844,602.5C 1845.48,599.172 1847.65,596.506 1850.5,594.5 Z M 1638.5,596.5 C 1648.16,596.819 1653.83,601.819 1655.5,611.5C 1647.84,621.485 1640.67,631.818 1634,642.5C 1625.59,657.663 1616.92,672.663 1608,687.5C 1590.25,707.918 1569.08,723.751 1544.5,735C 1535.04,738.581 1529.7,735.414 1528.5,725.5C 1530.42,710.998 1536.58,698.665 1547,688.5C 1549.86,684.112 1552.19,679.446 1554,674.5C 1572.71,647.454 1595.21,623.954 1621.5,604C 1627.03,600.894 1632.7,598.394 1638.5,596.5 Z M 1830.5,599.5 C 1825.01,618.255 1827.51,636.255 1838,653.5C 1840.97,657.974 1844.14,662.307 1847.5,666.5C 1837.37,685.474 1824.37,702.308 1808.5,717C 1799.82,724.922 1789.66,729.755 1778,731.5C 1771.18,731.76 1766.51,728.76 1764,722.5C 1760.35,706.756 1763.35,692.423 1773,679.5C 1782.9,652.926 1798.07,629.426 1818.5,609C 1822.4,605.589 1826.4,602.422 1830.5,599.5 Z M 2074.5,602.5 C 2075.53,604.434 2076.2,606.6 2076.5,609C 2075.67,618.156 2073.5,626.989 2070,635.5C 2068.41,624.037 2069.91,613.037 2074.5,602.5 Z M 1406.5,774.5 C 1407.24,774.369 1407.91,774.536 1408.5,775C 1395.13,796.917 1381.63,818.75 1368,840.5C 1359.05,853.117 1349.72,865.45 1340,877.5C 1332.97,885.204 1324.8,891.37 1315.5,896C 1293.84,899.327 1285.67,890.161 1291,868.5C 1294.39,855.709 1300.39,844.376 1309,834.5C 1319.84,824.003 1331.67,814.837 1344.5,807C 1364.79,795.358 1385.45,784.524 1406.5,774.5 Z M 1555.5,775.5 C 1556.24,775.369 1556.91,775.536 1557.5,776C 1538.79,807.267 1518.95,837.767 1498,867.5C 1490.82,876.71 1482.66,884.876 1473.5,892C 1464.45,898.34 1455.12,899.007 1445.5,894C 1439.75,885.583 1438.25,876.416 1441,866.5C 1446.38,848.104 1456.88,833.271 1472.5,822C 1486.3,812.209 1500.63,803.209 1515.5,795C 1528.98,788.576 1542.31,782.076 1555.5,775.5 Z"/></g>
<g><path style="opacity:0.969" fill="#fdfdfd" d="M 1280.5,682.5 C 1281.17,682.5 1281.5,682.167 1281.5,681.5C 1282.34,681.158 1282.67,680.492 1282.5,679.5C 1283.17,679.5 1283.5,679.167 1283.5,678.5C 1285.48,677.188 1287.15,675.521 1288.5,673.5C 1300.73,669.572 1303.56,673.239 1297,684.5C 1278.57,708.957 1255.74,728.124 1228.5,742C 1215.47,747.961 1202.47,747.961 1189.5,742C 1183.47,737.731 1180.8,731.897 1181.5,724.5C 1181.9,719.002 1182.74,713.669 1184,708.5C 1171.63,724.546 1156.13,736.38 1137.5,744C 1120.65,749.406 1109.31,743.906 1103.5,727.5C 1095.18,734.33 1086.18,740.163 1076.5,745C 1063.92,746.752 1055.76,741.586 1052,729.5C 1050.98,724.055 1050.48,718.555 1050.5,713C 1050.88,704.459 1051.38,695.959 1052,687.5C 1039.21,703.956 1024.21,717.956 1007,729.5C 1005.16,735.672 1004.16,742.005 1004,748.5C 1000.04,757.746 993.54,759.912 984.5,755C 981.502,752.176 980.168,748.676 980.5,744.5C 968.832,747.813 957.498,746.979 946.5,742C 942.334,738.835 939.834,734.668 939,729.5C 938.695,722.351 939.362,715.351 941,708.5C 929.59,722.248 916.09,733.415 900.5,742C 890.099,746.533 879.766,746.533 869.5,742C 863.508,736.536 860.508,729.703 860.5,721.5C 862.361,704.75 867.528,689.084 876,674.5C 891.973,650.053 908.806,626.219 926.5,603C 919.367,606.055 912.034,608.888 904.5,611.5C 898.65,609.786 897.15,606.119 900,600.5C 915.834,593.251 931.167,585.251 946,576.5C 958.697,577.829 963.364,584.496 960,596.5C 956.588,603.658 952.922,610.658 949,617.5C 931.667,642.167 914.333,666.833 897,691.5C 890.529,702.249 886.029,713.749 883.5,726C 884.118,731.623 887.118,733.623 892.5,732C 904.638,726.843 915.138,719.343 924,709.5C 956.697,671.141 986.697,630.808 1014,588.5C 1021.22,581.688 1028.22,582.022 1035,589.5C 1036.48,592.702 1036.82,596.036 1036,599.5C 1019.65,630.163 1001.31,659.496 981,687.5C 974.493,697.843 968.493,708.51 963,719.5C 960.84,724.003 961.34,728.169 964.5,732C 965.873,732.875 967.373,733.375 969,733.5C 973.204,732.574 977.371,731.574 981.5,730.5C 984.7,711.94 993.7,696.773 1008.5,685C 1024.03,673.734 1040.36,663.734 1057.5,655C 1061.16,634.534 1064.66,614.034 1068,593.5C 1069.55,587.284 1073.55,583.951 1080,583.5C 1085,583.829 1088.67,586.163 1091,590.5C 1091.65,607.007 1090.65,623.341 1088,639.5C 1106,629.5 1120,615.5 1130,597.5C 1133.27,589.771 1135.6,581.771 1137,573.5C 1144.6,565.102 1151.27,565.769 1157,575.5C 1159.07,581.834 1158.23,587.834 1154.5,593.5C 1154.83,593.833 1155.17,594.167 1155.5,594.5C 1166.81,588.599 1177.97,582.599 1189,576.5C 1204.04,578.935 1208.04,586.935 1201,600.5C 1187.65,624.55 1172.31,647.216 1155,668.5C 1149.79,678.37 1143.79,687.704 1137,696.5C 1131.23,706.482 1127.89,717.148 1127,728.5C 1127.47,729.931 1128.3,731.097 1129.5,732C 1133.32,732.401 1136.98,731.734 1140.5,730C 1152.8,722.711 1163.63,713.544 1173,702.5C 1202.95,665.923 1230.95,627.923 1257,588.5C 1262.09,582.884 1267.92,582.051 1274.5,586C 1278.72,589.602 1280.22,594.102 1279,599.5C 1273.17,611.156 1266.84,622.49 1260,633.5C 1241.09,660.319 1223.42,687.986 1207,716.5C 1204.67,721.099 1204.34,725.765 1206,730.5C 1207.59,732.297 1209.59,733.297 1212,733.5C 1227.63,729.268 1241.47,721.768 1253.5,711C 1263.07,701.933 1272.07,692.433 1280.5,682.5 Z M 1169.5,602.5 C 1153.52,623.785 1138.02,645.452 1123,667.5C 1115.1,680.295 1109.1,693.962 1105,708.5C 1096.48,716.851 1086.98,723.851 1076.5,729.5C 1075.95,705.144 1078.78,681.144 1085,657.5C 1099.6,649.79 1113.43,640.956 1126.5,631C 1132.87,624.969 1138.87,618.636 1144.5,612C 1147.58,611.654 1150.58,610.988 1153.5,610C 1158.73,607.215 1164.07,604.715 1169.5,602.5 Z"/></g>
<g><path style="opacity:0.959" fill="#fdfdfd" d="M 538.5,724.5 C 546.887,723.913 549.387,727.58 546,735.5C 534.695,746.401 521.195,752.901 505.5,755C 480.956,756.803 456.956,753.97 433.5,746.5C 431.833,747.333 430.167,748.167 428.5,749C 425.952,754.773 421.619,757.106 415.5,756C 412.424,753.388 411.757,750.221 413.5,746.5C 426.508,731.663 442.841,725.163 462.5,727C 478.959,730.74 495.459,734.24 512,737.5C 523.034,737.445 531.867,733.111 538.5,724.5 Z"/></g>
</svg>
