<?xml version="1.0" encoding="UTF-8"?>
<!DOCTYPE svg PUBLIC "-//W3C//DTD SVG 1.1//EN" "http://www.w3.org/Graphics/SVG/1.1/DTD/svg11.dtd">
<svg xmlns="http://www.w3.org/2000/svg" version="1.1" width="520px" height="462px" style="shape-rendering:geometricPrecision; text-rendering:geometricPrecision; image-rendering:optimizeQuality; fill-rule:evenodd; clip-rule:evenodd" xmlns:xlink="http://www.w3.org/1999/xlink">
<g><path style="opacity:0.968" fill="#fdfdfd" d="M 192.5,-0.5 C 192.833,-0.5 193.167,-0.5 193.5,-0.5C 205.757,16.6373 222.424,26.6373 243.5,29.5C 243.993,27.1944 244.326,24.861 244.5,22.5C 257.324,25.3731 269.991,28.8731 282.5,33C 291.207,36.0509 297.707,41.5509 302,49.5C 303.184,53.4489 303.518,57.4489 303,61.5C 301.281,70.3256 298.947,78.9922 296,87.5C 295.167,113.84 295.333,140.173 296.5,166.5C 303.522,167.033 304.855,169.866 300.5,175C 292.646,179.549 284.313,180.549 275.5,178C 262.469,175.41 251.969,168.91 244,158.5C 230.136,175.231 212.636,181.398 191.5,177C 188.689,175.356 186.356,173.19 184.5,170.5C 186.178,168.148 188.511,166.814 191.5,166.5C 192.833,136.833 192.833,107.167 191.5,77.5C 165.718,67.2742 152.884,48.2742 153,20.5C 162.981,26.1572 173.648,29.8238 185,31.5C 188.175,31.0541 191.342,30.5541 194.5,30C 188.705,20.1663 188.038,9.9996 192.5,-0.5 Z M 212.5,44.5 C 213.449,43.8476 214.615,43.5143 216,43.5C 222.155,44.2655 228.322,44.9322 234.5,45.5C 237.808,45.5419 239.975,44.8752 241,43.5C 249.56,44.2393 258.06,45.4059 266.5,47C 275.068,48.5956 281.401,53.0956 285.5,60.5C 285.167,60.8333 284.833,61.1667 284.5,61.5C 278.264,56.7165 271.264,53.5498 263.5,52C 251.526,50.4466 239.526,49.1133 227.5,48C 222.446,46.9861 217.446,45.8195 212.5,44.5 Z M 246.5,79.5 C 257.615,79.0048 268.615,79.8381 279.5,82C 281.081,82.7065 282.581,83.5399 284,84.5C 284.423,107.186 284.756,129.853 285,152.5C 275.964,143.047 265.13,139.547 252.5,142C 250.259,143.739 248.592,145.906 247.5,148.5C 245.235,149.647 242.902,149.814 240.5,149C 232.68,139.849 223.346,138.182 212.5,144C 209.37,146.128 206.537,148.628 204,151.5C 202.563,128.205 202.063,104.872 202.5,81.5C 217.363,81.741 232.03,81.0743 246.5,79.5 Z"/></g>
<g><path style="opacity:0.994" fill="#fefefe" d="M 63.5,53.5 C 83.1695,53.3334 102.836,53.5 122.5,54C 141.387,72.8874 160.221,91.7208 179,110.5C 179.833,146.505 179.667,182.505 178.5,218.5C 163.485,203.652 148.319,188.985 133,174.5C 132.667,226.5 132.333,278.5 132,330.5C 109.348,308.681 86.8477,286.681 64.5,264.5C 63.5,194.17 63.1667,123.836 63.5,53.5 Z"/></g>
<g><path style="opacity:0.99" fill="#fefefe" d="M 366.5,53.5 C 385.833,53.5 405.167,53.5 424.5,53.5C 424.667,124.167 424.5,194.834 424,265.5C 401.333,287.5 378.667,309.5 356,331.5C 355.667,279.167 355.333,226.833 355,174.5C 339.348,189.318 323.848,204.318 308.5,219.5C 307.333,183.838 307.167,148.171 308,112.5C 327.702,92.9653 347.202,73.2986 366.5,53.5 Z"/></g>
<g><path style="opacity:0.868" fill="#f9f9f9" d="M 224.5,107.5 C 234.312,107.811 238.479,112.811 237,122.5C 235.644,123.38 234.144,123.714 232.5,123.5C 232.322,120.784 231.822,118.117 231,115.5C 228.253,112.966 225.587,112.966 223,115.5C 221.956,117.715 221.29,120.048 221,122.5C 219.644,123.38 218.144,123.714 216.5,123.5C 214.525,115.556 217.192,110.223 224.5,107.5 Z"/></g>
<g><path style="opacity:0.868" fill="#f9f9f9" d="M 258.5,107.5 C 268.312,107.811 272.479,112.811 271,122.5C 269.644,123.38 268.144,123.714 266.5,123.5C 266.322,120.784 265.822,118.117 265,115.5C 262.253,112.966 259.587,112.966 257,115.5C 255.956,117.715 255.29,120.048 255,122.5C 253.644,123.38 252.144,123.714 250.5,123.5C 248.525,115.556 251.192,110.223 258.5,107.5 Z"/></g>
<g><path style="opacity:0.785" fill="#f8f8f8" d="M 242.5,173.5 C 247.053,173.471 250.386,175.471 252.5,179.5C 246.872,180.495 241.206,180.829 235.5,180.5C 236.2,176.466 238.533,174.133 242.5,173.5 Z"/></g>
<g><path style="opacity:0.941" fill="#fefefe" d="M 190.5,184.5 C 194.119,185.244 197.785,185.577 201.5,185.5C 201.5,195.167 201.5,204.833 201.5,214.5C 229.833,214.5 258.167,214.5 286.5,214.5C 286.5,204.833 286.5,195.167 286.5,185.5C 290.198,185.448 293.865,185.114 297.5,184.5C 297.862,198.208 297.362,211.874 296,225.5C 293.959,234.126 288.459,238.959 279.5,240C 255.5,242 231.5,242 207.5,240C 196.213,237.965 190.713,231.131 191,219.5C 190.5,207.838 190.333,196.171 190.5,184.5 Z M 241.5,220.5 C 248.729,219.879 251.229,222.879 249,229.5C 243.836,233.45 240.003,232.283 237.5,226C 238.036,223.492 239.369,221.659 241.5,220.5 Z"/></g>
<g><path style="opacity:0.981" fill="#fefefe" d="M 306.5,231.5 C 308.495,277.155 309.162,323.155 308.5,369.5C 294.5,369.5 280.5,369.5 266.5,369.5C 266.5,353.5 266.5,337.5 266.5,321.5C 250.818,321.325 235.151,321.658 219.5,322.5C 219.5,338.167 219.5,353.833 219.5,369.5C 205.5,369.5 191.5,369.5 177.5,369.5C 177.333,323.832 177.5,278.165 178,232.5C 191.667,244.833 205.333,257.167 219,269.5C 219.333,285.167 219.667,300.833 220,316.5C 249.033,288.299 277.867,259.966 306.5,231.5 Z"/></g>
<g><path style="opacity:0.924" fill="#fefefe" d="M 101.5,404.5 C 104.833,404.5 108.167,404.5 111.5,404.5C 111.334,414.839 111.5,425.172 112,435.5C 116.833,430 121.667,424.5 126.5,419C 130.833,418.333 135.167,418.333 139.5,419C 133.5,425.667 127.5,432.333 121.5,439C 127.5,445.667 133.5,452.333 139.5,459C 134.798,459.828 130.131,459.662 125.5,458.5C 121.188,453.02 116.688,447.687 112,442.5C 111.501,448.157 111.334,453.824 111.5,459.5C 108.167,459.5 104.833,459.5 101.5,459.5C 101.5,441.167 101.5,422.833 101.5,404.5 Z"/></g>
<g><path style="opacity:0.894" fill="#fefefe" d="M 315.5,404.5 C 318.833,404.5 322.167,404.5 325.5,404.5C 325.5,409.167 325.5,413.833 325.5,418.5C 331.232,418.283 336.899,418.783 342.5,420C 345.562,421.061 348.062,422.894 350,425.5C 351.456,436.731 351.956,448.064 351.5,459.5C 348.5,459.5 345.5,459.5 342.5,459.5C 342.948,449.727 342.448,440.061 341,430.5C 339.829,429.107 338.329,428.273 336.5,428C 332.848,427.501 329.182,427.335 325.5,427.5C 325.5,438.167 325.5,448.833 325.5,459.5C 322.167,459.5 318.833,459.5 315.5,459.5C 315.5,441.167 315.5,422.833 315.5,404.5 Z"/></g>
<g><path style="opacity:0.889" fill="#fefefe" d="M 519.5,433.5 C 519.5,437.167 519.5,440.833 519.5,444.5C 518.36,450.158 515.36,454.658 510.5,458C 500.914,459.42 491.247,459.92 481.5,459.5C 481.5,441.167 481.5,422.833 481.5,404.5C 484.833,404.5 488.167,404.5 491.5,404.5C 491.5,409.167 491.5,413.833 491.5,418.5C 498.342,418.039 505.009,418.872 511.5,421C 515.594,424.378 518.261,428.545 519.5,433.5 Z M 491.5,427.5 C 508.712,426.083 513.712,433.249 506.5,449C 501.628,450.388 496.628,450.888 491.5,450.5C 491.5,442.833 491.5,435.167 491.5,427.5 Z"/></g>
<g><path style="opacity:0.778" fill="#fdfdfd" d="M 142.5,405.5 C 145.833,405.5 149.167,405.5 152.5,405.5C 152.5,408.5 152.5,411.5 152.5,414.5C 149.167,414.5 145.833,414.5 142.5,414.5C 142.5,411.5 142.5,408.5 142.5,405.5 Z"/></g>
<g><path style="opacity:0.926" fill="#fefefe" d="M 207.5,408.5 C 210.5,408.5 213.5,408.5 216.5,408.5C 216.5,411.833 216.5,415.167 216.5,418.5C 219.5,418.5 222.5,418.5 225.5,418.5C 225.5,421.5 225.5,424.5 225.5,427.5C 222.5,427.5 219.5,427.5 216.5,427.5C 216.334,434.508 216.5,441.508 217,448.5C 219.481,450.314 222.315,450.98 225.5,450.5C 225.5,453.5 225.5,456.5 225.5,459.5C 219.029,460.655 213.529,458.989 209,454.5C 207.557,445.608 207.057,436.608 207.5,427.5C 205.167,427.5 202.833,427.5 200.5,427.5C 200.5,424.5 200.5,421.5 200.5,418.5C 202.833,418.5 205.167,418.5 207.5,418.5C 207.5,415.167 207.5,411.833 207.5,408.5 Z"/></g>
<g><path style="opacity:0.938" fill="#fefefe" d="M -0.5,411.5 C 4.09858,411.2 8.59858,411.533 13,412.5C 17.1968,423.423 21.1968,434.423 25,445.5C 29.1968,434.577 33.1968,423.577 37,412.5C 41.7367,411.531 46.57,411.197 51.5,411.5C 51.5,427.5 51.5,443.5 51.5,459.5C 48.1667,459.5 44.8333,459.5 41.5,459.5C 41.6665,449.828 41.4998,440.161 41,430.5C 37.6667,439.833 34.3333,449.167 31,458.5C 27.2136,459.795 23.3803,459.795 19.5,458.5C 15.9016,448.872 12.4016,439.205 9,429.5C 8.50019,439.494 8.33352,449.494 8.5,459.5C 5.5,459.5 2.5,459.5 -0.5,459.5C -0.5,443.5 -0.5,427.5 -0.5,411.5 Z"/></g>
<g><path style="opacity:0.888" fill="#fefefe" d="M 392.5,411.5 C 395.833,411.5 399.167,411.5 402.5,411.5C 402.5,418.167 402.5,424.833 402.5,431.5C 409.167,431.5 415.833,431.5 422.5,431.5C 422.5,424.833 422.5,418.167 422.5,411.5C 426.167,411.5 429.833,411.5 433.5,411.5C 433.5,427.5 433.5,443.5 433.5,459.5C 429.833,459.5 426.167,459.5 422.5,459.5C 422.5,453.167 422.5,446.833 422.5,440.5C 415.833,440.5 409.167,440.5 402.5,440.5C 402.5,446.833 402.5,453.167 402.5,459.5C 399.167,459.5 395.833,459.5 392.5,459.5C 392.5,443.5 392.5,427.5 392.5,411.5 Z"/></g>
<g><path style="opacity:0.924" fill="#fefefe" d="M 245.5,417.5 C 262.934,418.107 270.434,427.107 268,444.5C 264.6,457.631 256.1,462.798 242.5,460C 235.369,458.202 230.869,453.702 229,446.5C 227.966,439.633 228.633,432.967 231,426.5C 234.47,421.177 239.304,418.177 245.5,417.5 Z M 245.5,426.5 C 251.425,425.875 255.591,428.208 258,433.5C 261.311,446.503 256.478,452.336 243.5,451C 237.708,445.945 236.208,439.778 239,432.5C 240.436,429.558 242.603,427.558 245.5,426.5 Z"/></g>
<g><path style="opacity:0.915" fill="#fefefe" d="M 59.5,418.5 C 68.2259,418.161 76.8926,418.661 85.5,420C 89.6667,421.5 92.5,424.333 94,428.5C 94.4998,438.828 94.6665,449.161 94.5,459.5C 84.4944,459.666 74.4944,459.5 64.5,459C 59.2116,456.598 56.8783,452.432 57.5,446.5C 56.8187,439.681 59.8187,435.515 66.5,434C 72.8333,433.667 79.1667,433.333 85.5,433C 84.4029,430.235 82.4029,428.569 79.5,428C 72.8417,427.5 66.175,427.334 59.5,427.5C 59.5,424.5 59.5,421.5 59.5,418.5 Z M 69.5,442.5 C 74.8333,442.5 80.1667,442.5 85.5,442.5C 85.5,445.167 85.5,447.833 85.5,450.5C 79.8236,450.666 74.1569,450.499 68.5,450C 65.7086,447.016 66.0419,444.516 69.5,442.5 Z"/></g>
<g><path style="opacity:0.844" fill="#fefefe" d="M 142.5,418.5 C 145.833,418.5 149.167,418.5 152.5,418.5C 152.5,432.167 152.5,445.833 152.5,459.5C 149.167,459.5 145.833,459.5 142.5,459.5C 142.5,445.833 142.5,432.167 142.5,418.5 Z"/></g>
<g><path style="opacity:0.934" fill="#fefefe" d="M 159.5,418.5 C 168.559,418.154 177.559,418.654 186.5,420C 190.667,421.5 193.5,424.333 195,428.5C 195.5,438.828 195.666,449.161 195.5,459.5C 192.5,459.5 189.5,459.5 186.5,459.5C 186.92,449.753 186.42,440.086 185,430.5C 183.581,429.54 182.081,428.707 180.5,428C 176.514,427.501 172.514,427.334 168.5,427.5C 168.5,438.167 168.5,448.833 168.5,459.5C 165.5,459.5 162.5,459.5 159.5,459.5C 159.5,445.833 159.5,432.167 159.5,418.5 Z"/></g>
<g><path style="opacity:0.895" fill="#fefefe" d="M 282.5,418.5 C 291.167,418.5 299.833,418.5 308.5,418.5C 308.5,421.5 308.5,424.5 308.5,427.5C 300.493,427.334 292.493,427.5 284.5,428C 281.007,429.478 280.674,431.478 283.5,434C 288.833,434.333 294.167,434.667 299.5,435C 306.346,436.005 309.679,440.005 309.5,447C 309.937,452.748 307.604,456.748 302.5,459C 293.173,459.5 283.839,459.666 274.5,459.5C 274.5,456.5 274.5,453.5 274.5,450.5C 282.507,450.666 290.507,450.5 298.5,450C 301.326,447.478 300.993,445.478 297.5,444C 291.833,443.667 286.167,443.333 280.5,443C 275.124,440.94 272.457,436.94 272.5,431C 272.452,423.901 275.785,419.735 282.5,418.5 Z"/></g>
<g><path style="opacity:0.877" fill="#fefefe" d="M 437.5,418.5 C 440.833,418.5 444.167,418.5 447.5,418.5C 447.334,427.839 447.5,437.173 448,446.5C 449.167,447.667 450.333,448.833 451.5,450C 455.821,450.499 460.154,450.666 464.5,450.5C 464.5,439.833 464.5,429.167 464.5,418.5C 467.833,418.5 471.167,418.5 474.5,418.5C 474.5,432.167 474.5,445.833 474.5,459.5C 466.16,459.666 457.827,459.5 449.5,459C 441.742,457.332 437.909,452.499 438,444.5C 437.5,435.84 437.334,427.173 437.5,418.5 Z"/></g>
</svg>
