<?xml version="1.0" encoding="UTF-8"?>
<!DOCTYPE svg PUBLIC "-//W3C//DTD SVG 1.1//EN" "http://www.w3.org/Graphics/SVG/1.1/DTD/svg11.dtd">
<svg xmlns="http://www.w3.org/2000/svg" version="1.1" width="265px" height="231px" style="shape-rendering:geometricPrecision; text-rendering:geometricPrecision; image-rendering:optimizeQuality; fill-rule:evenodd; clip-rule:evenodd" xmlns:xlink="http://www.w3.org/1999/xlink">
<g><path style="opacity:0.886" fill="#fbfbfb" d="M 118.5,-0.5 C 120.167,-0.5 121.833,-0.5 123.5,-0.5C 124.133,6.66283 124.8,13.8295 125.5,21C 126.076,26.7025 123.742,28.5358 118.5,26.5C 114.856,21.6879 111.022,17.0212 107,12.5C 107.461,17.7885 107.794,23.1218 108,28.5C 106,29.8333 104,29.8333 102,28.5C 100.836,19.8595 100.003,11.1929 99.5,2.5C 101.819,1.83303 104.153,1.66636 106.5,2C 110.333,6.5 114.167,11 118,15.5C 117.342,10.1217 117.509,4.78833 118.5,-0.5 Z"/></g>
<g><path style="opacity:0.871" fill="#fcfcfc" d="M 138.5,-0.5 C 142.167,-0.5 145.833,-0.5 149.5,-0.5C 151.367,1.81242 151.867,4.47908 151,7.5C 143.032,3.19796 137.865,5.36463 135.5,14C 136.427,19.7648 139.76,22.2648 145.5,21.5C 145.5,20.1667 145.5,18.8333 145.5,17.5C 141.092,17.938 139.425,15.938 140.5,11.5C 144.5,11.5 148.5,11.5 152.5,11.5C 155.313,26.9461 149.313,31.7795 134.5,26C 128.099,20.0962 126.933,13.2628 131,5.5C 133.114,2.87922 135.614,0.879222 138.5,-0.5 Z"/></g>
<g><path style="opacity:0.877" fill="#f8f8f8" d="M 160.5,2.5 C 165.469,2.95138 170.302,3.95138 175,5.5C 175.82,7.72803 175.487,9.72803 174,11.5C 171.262,10.5183 168.428,9.85164 165.5,9.5C 165.5,11.1667 165.5,12.8333 165.5,14.5C 171.164,13.4992 173.498,15.8325 172.5,21.5C 169.52,21.3797 166.687,20.713 164,19.5C 163.727,21.1012 163.227,22.6012 162.5,24C 165.375,25.302 168.375,26.1353 171.5,26.5C 171.66,28.1992 171.494,29.8659 171,31.5C 170.439,32.0219 169.772,32.3552 169,32.5C 164.139,31.2432 159.305,29.9098 154.5,28.5C 156.502,19.8256 158.502,11.1589 160.5,2.5 Z"/></g>
<g><path style="opacity:0.889" fill="#f8f8f8" d="M 82.5,6.5 C 83.675,6.28099 84.675,6.61432 85.5,7.5C 90.5,14.8333 95.5,22.1667 100.5,29.5C 99.1476,30.8962 97.4809,31.5629 95.5,31.5C 93.1171,30.724 91.1171,29.3907 89.5,27.5C 87.8034,27.8988 86.1368,28.3988 84.5,29C 82.9278,31.038 81.9278,33.3713 81.5,36C 77.942,37.3623 74.442,38.8623 71,40.5C 67.6667,38.5 64.3333,36.5 61,34.5C 60.5,34.8333 60,35.1667 59.5,35.5C 61.5462,38.2323 62.3795,41.2323 62,44.5C 60.4006,46.0356 58.5672,46.5356 56.5,46C 52.5807,38.0161 49.4141,29.8494 47,21.5C 52.3354,17.9416 58.1688,16.4416 64.5,17C 68.2294,20.5649 68.8961,24.5649 66.5,29C 69.3923,31.0363 72.2256,33.2029 75,35.5C 75.856,27.516 76.5227,19.516 77,11.5C 77.9609,8.78506 79.7942,7.11839 82.5,6.5 Z M 82.5,15.5 C 84.2676,17.5078 85.9343,19.6744 87.5,22C 86.1279,22.4017 84.7946,22.9017 83.5,23.5C 82.52,20.9135 82.1866,18.2469 82.5,15.5 Z M 57.5,22.5 C 62.6362,24.2931 62.8029,26.6265 58,29.5C 55.2228,27.1211 55.0561,24.7877 57.5,22.5 Z"/></g>
<g><path style="opacity:0.881" fill="#f8f8f8" d="M 181.5,7.5 C 186.014,8.42084 190.347,9.92084 194.5,12C 200.641,18.9548 199.308,23.9548 190.5,27C 192.042,31.0292 193.208,35.1959 194,39.5C 194.196,37.7139 195.029,36.3805 196.5,35.5C 198.316,36.8149 199.983,38.3149 201.5,40C 203.134,40.4935 204.801,40.6602 206.5,40.5C 205.473,36.7829 203.639,33.4495 201,30.5C 199.833,22.3333 203.333,18.8333 211.5,20C 215.319,20.8268 218.319,22.8268 220.5,26C 219.624,27.586 218.624,29.086 217.5,30.5C 207.677,23.4386 206.177,25.1053 213,35.5C 214.717,44.1156 211.217,47.949 202.5,47C 198.984,45.7441 195.984,43.7441 193.5,41C 191.5,40.3333 189.5,39.6667 187.5,39C 186.219,34.8179 184.886,30.6512 183.5,26.5C 181.655,29.3327 179.989,32.3327 178.5,35.5C 176.289,34.8772 174.289,33.8772 172.5,32.5C 175.799,24.2429 178.799,15.9096 181.5,7.5 Z M 186.5,15.5 C 190.35,15.7007 191.35,17.5341 189.5,21C 184.04,21.6983 183.04,19.865 186.5,15.5 Z"/></g>
<g><path style="opacity:0.746" fill="#fcfcfc" d="M 115.5,31.5 C 118.292,31.4521 120.125,32.7854 121,35.5C 121.49,34.2068 121.657,32.8734 121.5,31.5C 122.5,31.5 123.5,31.5 124.5,31.5C 124.08,40.1479 125.08,40.4812 127.5,32.5C 128.689,31.5713 130.022,31.238 131.5,31.5C 131.998,34.8286 132.998,37.9953 134.5,41C 132.521,41.6836 130.854,41.1836 129.5,39.5C 126.961,40.1153 124.461,40.7819 122,41.5C 120.615,40.4495 119.615,39.1161 119,37.5C 118.51,38.7932 118.343,40.1266 118.5,41.5C 116.208,41.7564 114.041,41.4231 112,40.5C 108.679,41.9707 105.179,42.6374 101.5,42.5C 101.435,40.3043 100.768,38.3043 99.5,36.5C 98.2941,38.4841 98.2941,40.4841 99.5,42.5C 98.3112,43.4287 96.9778,43.762 95.5,43.5C 95.9492,41.0225 95.2825,39.0225 93.5,37.5C 93.1667,37.6667 92.8333,37.8333 92.5,38C 93.1667,39.6667 93.8333,41.3333 94.5,43C 92.5217,45.0149 90.6884,44.8483 89,42.5C 88.5172,43.448 88.3505,44.448 88.5,45.5C 86.1944,45.9926 83.861,46.3259 81.5,46.5C 81.1489,43.7623 80.4822,41.0956 79.5,38.5C 81.7812,37.7234 83.9479,36.7234 86,35.5C 87,36.5 88,37.5 89,38.5C 89.3095,37.2341 89.8095,36.0674 90.5,35C 95.8392,34.1184 101.173,33.285 106.5,32.5C 106.64,34.1238 105.973,35.2904 104.5,36C 107.167,37 107.167,38 104.5,39C 105.448,39.4828 106.448,39.6495 107.5,39.5C 107.5,37.1667 107.5,34.8333 107.5,32.5C 110.119,32.2317 112.619,32.565 115,33.5C 115.464,32.9056 115.631,32.2389 115.5,31.5 Z"/></g>
<g><path style="opacity:0.764" fill="#fcfcfc" d="M 133.5,31.5 C 137.472,32.1082 141.472,32.6082 145.5,33C 144.549,33.7175 144.383,34.5509 145,35.5C 148.619,32.6572 151.952,32.9905 155,36.5C 157.082,33.8504 158.749,34.1837 160,37.5C 161.153,35.503 162.653,35.1696 164.5,36.5C 163.515,38.0983 163.349,39.765 164,41.5C 165.041,39.4148 166.541,37.7481 168.5,36.5C 169.167,36.8333 169.833,37.1667 170.5,37.5C 171.318,40.1071 171.818,42.7737 172,45.5C 172.557,43.3853 173.391,41.3853 174.5,39.5C 175.274,38.2888 176.107,38.2888 177,39.5C 177.429,41.6687 176.929,43.6687 175.5,45.5C 177.289,46.623 177.622,47.9564 176.5,49.5C 172.809,48.6708 169.642,47.0041 167,44.5C 163.165,45.8884 160.165,44.8884 158,41.5C 156.333,44.1667 154.667,44.1667 153,41.5C 149.288,42.3756 145.788,42.3756 142.5,41.5C 141.833,41.1667 141.167,40.8333 140.5,40.5C 141.706,38.4841 141.706,36.4841 140.5,34.5C 138.829,36.5098 138.162,38.8431 138.5,41.5C 137.5,41.5 136.5,41.5 135.5,41.5C 135.542,37.9913 134.876,34.658 133.5,31.5 Z M 148.5,36.5 C 151.674,36.9522 152.007,37.9522 149.5,39.5C 147.481,38.8671 147.147,37.8671 148.5,36.5 Z"/></g>
<g><path style="opacity:0.891" fill="#fafafa" d="M 133.5,204.5 C 118.059,195.274 102.393,186.274 86.5,177.5C 83.3684,167.307 80.7017,156.974 78.5,146.5C 78.5,146.167 78.5,145.833 78.5,145.5C 79.1667,145.5 79.5,145.167 79.5,144.5C 80.1667,144.5 80.5,144.167 80.5,143.5C 81.5862,143.62 82.2528,144.287 82.5,145.5C 84.7057,155.326 87.3723,164.992 90.5,174.5C 104.833,182.667 119.167,190.833 133.5,199C 134.5,199.667 135.5,199.667 136.5,199C 150.246,189.377 164.08,179.877 178,170.5C 184.287,146.35 189.787,122.017 194.5,97.5C 195.833,96.8333 195.833,96.1667 194.5,95.5C 194.5,94.8333 194.833,94.5 195.5,94.5C 198.281,85.4247 200.115,76.0914 201,66.5C 163.216,46.235 124.05,43.0683 83.5,57C 76.3082,60.0904 69.6415,63.9237 63.5,68.5C 69.1496,90.4315 74.4829,112.432 79.5,134.5C 77.8561,134.714 76.3561,134.38 75,133.5C 73.1777,126.554 71.6777,119.554 70.5,112.5C 60.7651,112.718 51.0984,112.718 41.5,112.5C 41.7192,107.121 43.0525,101.787 45.5,96.5C 42.5771,91.4091 39.0771,86.7424 35,82.5C 34.3333,81.1667 34.3333,79.8333 35,78.5C 43.5157,76.4626 52.0157,74.296 60.5,72C 59.1552,69.6757 58.8218,67.3423 59.5,65C 90.6603,45.3059 124.327,39.3059 160.5,47C 176.48,50.1603 191.48,55.827 205.5,64C 205.585,66.9798 205.919,69.9798 206.5,73C 214.488,74.7875 222.322,76.9542 230,79.5C 230.315,80.9078 229.982,82.2411 229,83.5C 225.22,87.4377 222.053,91.7711 219.5,96.5C 220.935,100.973 222.269,105.473 223.5,110C 223.415,111.107 223.081,112.107 222.5,113C 213.531,112.693 204.531,112.526 195.5,112.5C 191.473,132.94 186.973,153.274 182,173.5C 167.167,183.667 152.333,193.833 137.5,204C 136.207,204.49 134.873,204.657 133.5,204.5 Z M 55.5,88.5 C 56.4268,90.5762 58.0935,91.7428 60.5,92C 58.9963,93.4907 58.1629,95.324 58,97.5C 56.0058,96.7208 54.1724,96.3874 52.5,96.5C 53.8587,94.694 53.5254,93.194 51.5,92C 53.5503,91.5838 54.8836,90.4171 55.5,88.5 Z M 207.5,88.5 C 208.743,90.1639 210.41,91.3305 212.5,92C 210.386,93.4976 209.886,95.3309 211,97.5C 209.333,96.1667 207.667,96.1667 206,97.5C 205.879,95.2729 205.046,93.4396 203.5,92C 205.91,91.9428 207.244,90.7761 207.5,88.5 Z M 168.5,116.5 C 167.298,115.595 165.964,115.595 164.5,116.5C 167.655,112.994 171.489,110.327 176,108.5C 175.383,112.578 172.883,114.245 168.5,113.5C 168.5,114.5 168.5,115.5 168.5,116.5 Z M 120.5,126.5 C 118.708,126.366 117.042,126.699 115.5,127.5C 117.042,126.699 118.708,126.366 120.5,126.5 Z M 146.5,148.5 C 151.706,149.738 154.039,153.071 153.5,158.5C 149.132,160.332 146.465,158.832 145.5,154C 146.233,152.234 146.567,150.401 146.5,148.5 Z M 131.5,149.5 C 132.931,151.437 134.598,153.27 136.5,155C 135.373,156.753 134.373,158.587 133.5,160.5C 131.229,161.363 128.895,161.363 126.5,160.5C 125.551,157.792 125.551,155.126 126.5,152.5C 128.396,151.725 130.063,150.725 131.5,149.5 Z M 121.5,165.5 C 122.906,165.973 123.573,166.973 123.5,168.5C 122.094,168.027 121.427,167.027 121.5,165.5 Z M 143.5,167.5 C 145.22,168.751 145.553,170.251 144.5,172C 141.758,173.823 138.925,174.323 136,173.5C 135.289,171.633 135.789,170.133 137.5,169C 139.708,168.809 141.708,168.309 143.5,167.5 Z"/></g>
<g><path style="opacity:0.883" fill="#f9f9f9" d="M 25.5,136.5 C 28.6011,149.702 31.1011,163.036 33,176.5C 33.7288,180.887 35.7288,184.553 39,187.5C 37.314,179.417 35.4807,171.25 33.5,163C 33.8333,162.5 34.1667,162 34.5,161.5C 36.4933,163.666 38.3267,165.999 40,168.5C 44.3333,178.5 48.6667,188.5 53,198.5C 54.7401,200.954 56.9067,202.454 59.5,203C 54.9077,197.323 51.9077,191.156 50.5,184.5C 58.9568,191.786 67.2902,199.286 75.5,207C 83.0029,210.612 90.8362,211.779 99,210.5C 104.149,211.412 109.316,212.245 114.5,213C 115.38,214.356 115.714,215.856 115.5,217.5C 108.829,216.999 102.163,216.832 95.5,217C 89.1133,223.93 81.4466,228.43 72.5,230.5C 70.5,230.5 68.5,230.5 66.5,230.5C 59.2135,228.939 52.7135,225.606 47,220.5C 46.3123,219.668 46.479,219.002 47.5,218.5C 54.4534,222.619 61.7868,223.452 69.5,221C 74.5,218.667 79.5,216.333 84.5,214C 81.8333,213.333 79.1667,213.333 76.5,214C 57.6718,221.575 41.8385,217.742 29,202.5C 28.3123,201.668 28.479,201.002 29.5,200.5C 38.685,206.237 48.685,208.737 59.5,208C 57.8333,207 56.1667,206 54.5,205C 34.0006,203.808 19.5006,193.975 11,175.5C 10.2115,173.835 9.87821,172.169 10,170.5C 16.2942,179.153 24.4609,184.986 34.5,188C 29.9793,182.73 24.646,178.397 18.5,175C 7.92755,166.688 1.92755,155.854 0.5,142.5C 0.807619,141.692 1.30762,141.025 2,140.5C 6.12025,148.399 11.4536,155.399 18,161.5C 18.1667,161.167 18.3333,160.833 18.5,160.5C 14.256,152.76 9.42269,145.427 4,138.5C 1.99977,132.825 0.499767,127.158 -0.5,121.5C -0.5,117.833 -0.5,114.167 -0.5,110.5C 0.163485,108.958 0.830151,107.291 1.5,105.5C 3.86457,115.565 7.36457,125.232 12,134.5C 12.0514,130.843 11.718,127.177 11,123.5C 8.10232,117.036 5.76898,110.37 4,103.5C 2.56042,94.0585 3.89376,85.0585 8,76.5C 8.7199,74.7448 9.88657,73.9115 11.5,74C 10.2896,76.6766 9.62289,79.5099 9.5,82.5C 10.422,90.2103 11.5886,97.877 13,105.5C 13.2098,94.8265 13.2098,84.1599 13,73.5C 14.4327,64.9436 18.9327,59.6103 26.5,57.5C 21.6933,64.3897 19.5267,72.0564 20,80.5C 22.5171,72.7561 25.1838,65.0894 28,57.5C 32.6488,52.0131 38.3155,48.0131 45,45.5C 45.6667,46.5 45.6667,47.5 45,48.5C 39.0789,57.3425 32.9122,66.0092 26.5,74.5C 26.6667,74.8333 26.8333,75.1667 27,75.5C 31,72.8333 34.3333,69.5 37,65.5C 37.4546,69.814 36.4546,73.814 34,77.5C 32.3333,79.8333 30.6667,82.1667 29,84.5C 24.4368,87.395 20.9368,91.2283 18.5,96C 18.6667,96.5 18.8333,97 19,97.5C 22.2041,94.6312 25.0374,91.4646 27.5,88C 28.4835,87.4092 29.1501,87.7425 29.5,89C 26.7579,99.65 22.2579,109.483 16,118.5C 14.566,122.406 14.2327,126.406 15,130.5C 17.3014,123.9 20.1347,117.566 23.5,111.5C 24.6586,115.122 24.8253,118.789 24,122.5C 22.6917,131.54 21.1917,140.54 19.5,149.5C 19.6084,153.327 20.4417,156.993 22,160.5C 22.6308,152.278 23.7975,144.278 25.5,136.5 Z"/></g>
<g><path style="opacity:0.884" fill="#fafafa" d="M 264.5,111.5 C 264.5,114.833 264.5,118.167 264.5,121.5C 262.861,133.781 257.694,144.448 249,153.5C 248.009,155.447 247.675,157.447 248,159.5C 254.254,153.918 258.92,147.251 262,139.5C 262.87,140.108 263.37,140.941 263.5,142C 262.742,149.275 260.575,156.108 257,162.5C 248.803,171.031 240.303,179.198 231.5,187C 240.742,184.105 248.242,178.605 254,170.5C 250.283,184.898 241.45,195.064 227.5,201C 220.503,201.997 213.837,203.997 207.5,207C 217.827,208.538 226.993,206.038 235,199.5C 235.667,200.5 235.667,201.5 235,202.5C 222.081,217.687 206.247,221.521 187.5,214C 184.833,213.333 182.167,213.333 179.5,214C 185.6,217.255 191.934,219.921 198.5,222C 204.964,223.049 210.964,221.882 216.5,218.5C 217.282,220.329 216.616,221.829 214.5,223C 209.443,226.365 204.11,228.865 198.5,230.5C 196.833,230.5 195.167,230.5 193.5,230.5C 188.669,229.947 184.002,228.447 179.5,226C 175.5,223 171.5,220 167.5,217C 161.167,216.766 154.834,216.932 148.5,217.5C 148.286,215.856 148.62,214.356 149.5,213C 154.478,212.005 159.478,211.172 164.5,210.5C 173.942,212.245 182.942,210.411 191.5,205C 198.408,197.588 205.741,190.755 213.5,184.5C 212.002,191.658 208.669,198.158 203.5,204C 204.908,204.315 206.241,203.982 207.5,203C 209.792,199.584 211.959,196.084 214,192.5C 217.075,181.016 222.242,170.683 229.5,161.5C 229.833,162 230.167,162.5 230.5,163C 228.616,172.795 226.116,182.295 223,191.5C 226.601,187.057 229.268,182.057 231,176.5C 232.667,166.167 234.333,155.833 236,145.5C 236.601,142.363 237.601,139.363 239,136.5C 240.917,146.14 241.583,155.806 241,165.5C 244.195,159.175 245.195,152.509 244,145.5C 242.638,139.19 241.471,132.857 240.5,126.5C 238.139,126.326 235.806,125.993 233.5,125.5C 233.665,128.518 233.498,131.518 233,134.5C 230.333,137.167 227.667,137.167 225,134.5C 224.333,131.5 224.333,128.5 225,125.5C 226.171,124.107 227.671,123.273 229.5,123C 227.998,122.417 226.665,121.584 225.5,120.5C 225.667,120.167 225.833,119.833 226,119.5C 230.333,120.5 234.667,121.5 239,122.5C 239.175,118.789 239.675,115.122 240.5,111.5C 242.318,115.136 244.151,118.802 246,122.5C 247.483,124.119 248.65,124.286 249.5,123C 245.35,114.843 241.184,106.677 237,98.5C 235.331,94.8754 234.831,91.2088 235.5,87.5C 240.202,92.037 244.369,97.037 248,102.5C 248.249,98.5881 246.916,95.2547 244,92.5C 235.926,87.0146 230.259,79.6813 227,70.5C 226.333,68.8333 226.333,67.1667 227,65.5C 230.702,71.0747 235.202,75.0747 240.5,77.5C 237.559,73.0559 234.059,69.0559 230,65.5C 227.081,59.3225 223.414,53.6559 219,48.5C 218.333,47.5 218.333,46.5 219,45.5C 225.169,47.9203 230.502,51.5869 235,56.5C 238.116,62.6123 240.783,68.9456 243,75.5C 243.642,68.7327 241.809,62.7327 237.5,57.5C 237.667,57.1667 237.833,56.8333 238,56.5C 245.253,60.3221 249.587,66.3221 251,74.5C 251.279,79.9969 251.113,85.4969 250.5,91C 250.428,94.2896 250.928,97.4562 252,100.5C 253.716,91.5163 254.383,82.5163 254,73.5C 259.456,82.4468 261.456,92.1135 260,102.5C 258.29,108.921 256.29,115.255 254,121.5C 253.202,123.259 253.369,124.926 254.5,126.5C 258.555,120.052 261.222,113.052 262.5,105.5C 263.169,107.631 263.835,109.631 264.5,111.5 Z M 248.5,128.5 C 249.649,128.791 250.316,129.624 250.5,131C 250.333,131.833 250.167,132.667 250,133.5C 249.392,131.846 248.892,130.179 248.5,128.5 Z"/></g>
<g><path style="opacity:0.953" fill="#fdfdfd" d="M 195.5,94.5 C 194.833,94.5 194.5,94.8333 194.5,95.5C 194.5,96.1667 194.5,96.8333 194.5,97.5C 189.085,102.579 184.418,108.246 180.5,114.5C 179.833,114.5 179.5,114.833 179.5,115.5C 178.833,115.5 178.5,115.833 178.5,116.5C 177.833,116.5 177.5,116.833 177.5,117.5C 176.833,117.5 176.5,117.833 176.5,118.5C 175.833,118.5 175.5,118.833 175.5,119.5C 173.833,119.5 172.167,119.5 170.5,119.5C 170.5,118.833 170.167,118.5 169.5,118.5C 169.5,118.167 169.5,117.833 169.5,117.5C 169.5,116.833 169.167,116.5 168.5,116.5C 168.5,115.5 168.5,114.5 168.5,113.5C 172.883,114.245 175.383,112.578 176,108.5C 171.489,110.327 167.655,112.994 164.5,116.5C 163.833,116.5 163.5,116.833 163.5,117.5C 162.833,117.5 162.5,117.833 162.5,118.5C 161.833,118.5 161.5,118.833 161.5,119.5C 160.833,119.5 160.5,119.833 160.5,120.5C 159.833,120.5 159.5,120.833 159.5,121.5C 158.833,121.5 158.5,121.833 158.5,122.5C 157.508,122.328 156.842,122.662 156.5,123.5C 155.833,123.5 155.5,123.833 155.5,124.5C 154.508,124.328 153.842,124.662 153.5,125.5C 152.833,125.5 152.167,125.5 151.5,125.5C 150.833,125.5 150.5,125.833 150.5,126.5C 149.833,126.5 149.167,126.5 148.5,126.5C 147.833,126.5 147.5,126.833 147.5,127.5C 145.585,127.216 143.919,127.549 142.5,128.5C 138.833,128.5 135.167,128.5 131.5,128.5C 129.5,127.167 127.5,127.167 125.5,128.5C 124.833,128.5 124.5,128.167 124.5,127.5C 123.432,126.566 122.099,126.232 120.5,126.5C 119.903,125.861 119.07,125.528 118,125.5C 116.624,125.684 115.791,126.351 115.5,127.5C 114.596,128.209 114.263,129.209 114.5,130.5C 113.662,130.842 113.328,131.508 113.5,132.5C 112.662,132.842 112.328,133.508 112.5,134.5C 111.833,134.5 111.5,134.833 111.5,135.5C 111.5,136.167 111.5,136.833 111.5,137.5C 110.833,137.5 110.5,137.833 110.5,138.5C 109.833,138.5 109.5,138.833 109.5,139.5C 108.833,139.5 108.5,139.833 108.5,140.5C 108.5,141.167 108.167,141.5 107.5,141.5C 106.833,140.167 106.167,140.167 105.5,141.5C 104.209,141.263 103.209,141.596 102.5,142.5C 97.8333,142.5 93.1667,142.5 88.5,142.5C 87.5514,141.848 86.3847,141.514 85,141.5C 82.9919,141.307 81.4919,141.974 80.5,143.5C 79.8333,143.5 79.5,143.833 79.5,144.5C 78.8333,144.5 78.5,144.833 78.5,145.5C 78.5,145.833 78.5,146.167 78.5,146.5C 74.3654,150.806 70.3654,155.306 66.5,160C 62.7594,162.732 58.7594,165.066 54.5,167C 51.7728,167.818 49.1062,167.652 46.5,166.5C 52.7547,163.459 58.588,159.792 64,155.5C 67.256,149.246 70.4227,142.912 73.5,136.5C 77.0677,135.865 80.4011,134.865 83.5,133.5C 84.4916,133.672 85.1583,133.338 85.5,132.5C 87.0058,129.644 87.6725,126.477 87.5,123C 87.3701,117.65 86.3701,112.484 84.5,107.5C 84.4455,103.692 86.1121,101.525 89.5,101C 88.0921,104.383 88.9254,107.217 92,109.5C 95.3716,106.731 99.2049,104.898 103.5,104C 111.461,102.998 119.294,103.498 127,105.5C 132.051,102.46 136.551,98.6263 140.5,94C 143.328,91.7519 146.328,89.7519 149.5,88C 141.979,81.2928 138.646,72.7928 139.5,62.5C 127.866,62.2187 116.199,62.0521 104.5,62C 100.615,61.2606 96.9481,59.9272 93.5,58C 98.375,57.7827 103.208,58.2827 108,59.5C 113.961,58.9428 119.794,57.7761 125.5,56C 131.167,55.3333 136.833,55.3333 142.5,56C 151.149,57.553 159.815,58.8863 168.5,60C 170.016,61.897 170.683,64.0637 170.5,66.5C 165.572,66.298 160.906,67.298 156.5,69.5C 161.053,73.3729 165.553,77.3729 170,81.5C 172.944,85.7149 174.111,90.3816 173.5,95.5C 179.532,93.4498 185.699,91.7831 192,90.5C 194.074,91.0717 195.24,92.405 195.5,94.5 Z M 168.5,116.5 C 167.298,115.595 165.964,115.595 164.5,116.5C 167.655,112.994 171.489,110.327 176,108.5C 175.383,112.578 172.883,114.245 168.5,113.5C 168.5,114.5 168.5,115.5 168.5,116.5 Z M 120.5,126.5 C 118.708,126.366 117.042,126.699 115.5,127.5C 117.042,126.699 118.708,126.366 120.5,126.5 Z"/></g>
<g><path style="opacity:0.903" fill="#f9f9f9" d="M 85.5,132.5 C 84.5084,132.328 83.8417,132.662 83.5,133.5C 82.8826,133.389 82.3826,133.056 82,132.5C 80.9878,128.117 79.8212,123.784 78.5,119.5C 80.1184,117.684 82.1184,116.351 84.5,115.5C 85.4954,121.128 85.8288,126.794 85.5,132.5 Z"/></g>
<g><path style="opacity:0.952" fill="#fcfcfc" d="M 180.5,114.5 C 183.145,115.491 185.478,116.991 187.5,119C 183.751,135.074 180.251,151.241 177,167.5C 163.745,176.878 150.578,186.378 137.5,196C 135.029,196.706 132.695,196.373 130.5,195C 117.585,187.626 104.751,180.126 92,172.5C 89.183,162.582 86.683,152.582 84.5,142.5C 85.8333,142.5 87.1667,142.5 88.5,142.5C 93.1667,143.833 97.8333,143.833 102.5,142.5C 103.791,142.737 104.791,142.404 105.5,141.5C 106.167,141.5 106.833,141.5 107.5,141.5C 108.167,141.5 108.5,141.167 108.5,140.5C 109.167,140.5 109.5,140.167 109.5,139.5C 110.167,139.5 110.5,139.167 110.5,138.5C 111.167,138.5 111.5,138.167 111.5,137.5C 112.833,136.833 112.833,136.167 111.5,135.5C 111.5,134.833 111.833,134.5 112.5,134.5C 113.338,134.158 113.672,133.492 113.5,132.5C 114.338,132.158 114.672,131.492 114.5,130.5C 115.404,129.791 115.737,128.791 115.5,127.5C 117.042,126.699 118.708,126.366 120.5,126.5C 121.568,127.434 122.901,127.768 124.5,127.5C 124.5,128.167 124.833,128.5 125.5,128.5C 127.5,128.5 129.5,128.5 131.5,128.5C 135.167,129.833 138.833,129.833 142.5,128.5C 144.415,128.784 146.081,128.451 147.5,127.5C 147.5,126.833 147.833,126.5 148.5,126.5C 149.167,127.833 149.833,127.833 150.5,126.5C 150.5,125.833 150.833,125.5 151.5,125.5C 152.167,126.833 152.833,126.833 153.5,125.5C 154.492,125.672 155.158,125.338 155.5,124.5C 156.167,124.5 156.5,124.167 156.5,123.5C 157.492,123.672 158.158,123.338 158.5,122.5C 159.167,122.5 159.5,122.167 159.5,121.5C 160.167,121.5 160.5,121.167 160.5,120.5C 161.167,120.5 161.5,120.167 161.5,119.5C 162.167,119.5 162.5,119.167 162.5,118.5C 163.167,118.5 163.5,118.167 163.5,117.5C 164.167,117.5 164.5,117.167 164.5,116.5C 165.964,115.595 167.298,115.595 168.5,116.5C 169.167,116.5 169.5,116.833 169.5,117.5C 168.167,117.833 168.167,118.167 169.5,118.5C 170.167,118.5 170.5,118.833 170.5,119.5C 172.167,120.833 173.833,120.833 175.5,119.5C 176.167,119.5 176.5,119.167 176.5,118.5C 177.167,118.5 177.5,118.167 177.5,117.5C 178.167,117.5 178.5,117.167 178.5,116.5C 179.167,116.5 179.5,116.167 179.5,115.5C 180.167,115.5 180.5,115.167 180.5,114.5 Z M 134.5,139.5 C 136.96,139.699 139.293,140.365 141.5,141.5C 138.087,142.823 134.753,142.656 131.5,141C 132.737,140.768 133.737,140.268 134.5,139.5 Z M 146.5,148.5 C 146.567,150.401 146.233,152.234 145.5,154C 146.465,158.832 149.132,160.332 153.5,158.5C 154.039,153.071 151.706,149.738 146.5,148.5 Z M 131.5,149.5 C 130.063,150.725 128.396,151.725 126.5,152.5C 125.551,155.126 125.551,157.792 126.5,160.5C 128.895,161.363 131.229,161.363 133.5,160.5C 134.373,158.587 135.373,156.753 136.5,155C 134.598,153.27 132.931,151.437 131.5,149.5 Z M 121.5,165.5 C 122.906,165.973 123.573,166.973 123.5,168.5C 122.094,168.027 121.427,167.027 121.5,165.5 Z M 143.5,167.5 C 141.708,168.309 139.708,168.809 137.5,169C 135.789,170.133 135.289,171.633 136,173.5C 138.925,174.323 141.758,173.823 144.5,172C 145.553,170.251 145.22,168.751 143.5,167.5 Z"/></g>
<g><path style="opacity:0.688" fill="#f2f2f2" d="M 31.5,128.5 C 33.0808,130.142 33.7475,132.142 33.5,134.5C 30.9822,136.464 28.3155,137.13 25.5,136.5C 24.8221,131.008 25.9887,130.341 29,134.5C 29.5,134.167 30,133.833 30.5,133.5C 28.8513,132.352 27.3513,131.019 26,129.5C 25.2025,127.741 25.3691,126.074 26.5,124.5C 28.4506,123.744 30.2839,123.411 32,123.5C 32.7796,125.387 32.6129,127.054 31.5,128.5 Z M 31.5,128.5 C 29.0272,128.396 28.3606,127.396 29.5,125.5C 30.4252,126.357 31.0919,127.357 31.5,128.5 Z"/></g>
<g><path style="opacity:0.868" fill="#f5f5f5" d="M 197.5,123.5 C 198.5,123.5 199.5,123.5 200.5,123.5C 200.335,127.182 200.501,130.848 201,134.5C 201.5,135 202,135.5 202.5,136C 199.833,136.667 197.167,136.667 194.5,136C 196.156,134.203 197.156,132.036 197.5,129.5C 197.032,127.866 196.032,126.7 194.5,126C 195.571,125.148 196.571,124.315 197.5,123.5 Z"/></g>
<g><path style="opacity:0.74" fill="#f6f6f6" d="M 204.5,123.5 C 211.503,122.673 214.003,125.673 212,132.5C 210.139,136.007 207.305,137.173 203.5,136C 204.833,135 206.167,134 207.5,133C 202.389,131.167 201.389,128 204.5,123.5 Z M 207.5,124.5 C 209.721,126.33 209.888,128.33 208,130.5C 206.2,128.635 206.034,126.635 207.5,124.5 Z"/></g>
<g><path style="opacity:0.713" fill="#f8f8f8" d="M 214.5,123.5 C 217.572,123.183 220.572,123.516 223.5,124.5C 222.322,128.896 220.489,132.896 218,136.5C 217.5,136.167 217,135.833 216.5,135.5C 217.801,132.573 218.801,129.573 219.5,126.5C 217.418,126.472 215.584,127.139 214,128.5C 213.616,126.803 213.782,125.137 214.5,123.5 Z"/></g>
<g><path style="opacity:0.689" fill="#f1f1f1" d="M 33.5,134.5 C 34.8184,131.435 34.8184,128.269 33.5,125C 39.2691,121.946 43.7691,123.112 47,128.5C 47.6838,127.216 47.5171,126.049 46.5,125C 47.8333,124.333 49.1667,124.333 50.5,125C 49.703,128.745 49.203,132.579 49,136.5C 46.6255,134.461 44.6255,132.128 43,129.5C 41.7336,131.196 41.9003,133.029 43.5,135C 42.2887,136.578 40.9554,136.745 39.5,135.5C 40.7571,132.177 40.7571,128.844 39.5,125.5C 38.5108,129.107 38.1774,132.774 38.5,136.5C 36.2188,136.923 34.5521,136.256 33.5,134.5 Z"/></g>
<g><path style="opacity:0.698" fill="#eeeeee" d="M 68.5,126.5 C 68.5,128.833 68.5,131.167 68.5,133.5C 69.4584,133.047 70.2917,132.381 71,131.5C 71.4935,133.134 71.6602,134.801 71.5,136.5C 67.6707,137.069 64.3373,136.402 61.5,134.5C 56.0677,137.884 52.401,136.551 50.5,130.5C 50.4077,126.342 52.4077,124.009 56.5,123.5C 61.2962,124.586 66.2962,124.586 71.5,123.5C 71.7852,125.288 71.4519,126.955 70.5,128.5C 69.8182,127.757 69.1515,127.091 68.5,126.5 Z M 61.5,134.5 C 61.631,133.761 61.4643,133.094 61,132.5C 57.3068,135.649 55.1402,134.816 54.5,130C 55.6419,124.842 57.8086,124.342 61,128.5C 61.3333,127.5 61.6667,126.5 62,125.5C 62.8045,128.696 62.6378,131.696 61.5,134.5 Z M 68.5,126.5 C 67.7784,126.918 67.2784,127.584 67,128.5C 66.2506,127.365 66.4173,126.365 67.5,125.5C 68.1067,125.624 68.44,125.957 68.5,126.5 Z M 68.5,133.5 C 68.44,134.043 68.1067,134.376 67.5,134.5C 66.4173,133.635 66.2506,132.635 67,131.5C 67.2784,132.416 67.7784,133.082 68.5,133.5 Z"/></g>
<g><path style="opacity:0.85" fill="#f7f7f7" d="M 144.5,204.5 C 147.579,204.26 150.579,204.593 153.5,205.5C 154.833,207.5 154.833,209.5 153.5,211.5C 147.364,208.907 143.364,210.74 141.5,217C 143.364,223.26 147.364,225.093 153.5,222.5C 154.466,224.396 154.799,226.396 154.5,228.5C 140.668,231.828 134.502,226.495 136,212.5C 137.73,208.57 140.564,205.903 144.5,204.5 Z"/></g>
<g><path style="opacity:0.877" fill="#fbfbfb" d="M 133.5,204.5 C 133.5,206.5 133.5,208.5 133.5,210.5C 130.833,210.5 128.167,210.5 125.5,210.5C 125.5,211.833 125.5,213.167 125.5,214.5C 128.167,214.5 130.833,214.5 133.5,214.5C 133.5,216.167 133.5,217.833 133.5,219.5C 130.833,219.833 128.167,220.167 125.5,220.5C 125.5,223.167 125.5,225.833 125.5,228.5C 123.5,228.5 121.5,228.5 119.5,228.5C 119.5,220.833 119.5,213.167 119.5,205.5C 124.214,205.647 128.881,205.314 133.5,204.5 Z"/></g>
</svg>
