<?xml version="1.0" encoding="UTF-8"?>
<!DOCTYPE svg PUBLIC "-//W3C//DTD SVG 1.1//EN" "http://www.w3.org/Graphics/SVG/1.1/DTD/svg11.dtd">
<svg xmlns="http://www.w3.org/2000/svg" version="1.1" width="418px" height="277px" style="shape-rendering:geometricPrecision; text-rendering:geometricPrecision; image-rendering:optimizeQuality; fill-rule:evenodd; clip-rule:evenodd" xmlns:xlink="http://www.w3.org/1999/xlink">
<g><path style="opacity:0.974" fill="#fdfdfd" d="M 251.5,-0.5 C 259.833,-0.5 268.167,-0.5 276.5,-0.5C 292.024,40.7156 307.691,81.8823 323.5,123C 316.086,123.89 308.753,123.557 301.5,122C 296.814,118.635 293.647,114.135 292,108.5C 282.227,150.268 255.894,172.601 213,175.5C 183.105,174.393 160.105,161.393 144,136.5C 127.774,106 129.108,76.3338 148,47.5C 171.694,18.2886 201.527,8.95525 237.5,19.5C 235.569,24.1271 233.735,28.7938 232,33.5C 230.457,35.3783 228.624,36.8783 226.5,38C 218.495,38.6638 210.495,39.3305 202.5,40C 174.54,47.637 159.207,65.9704 156.5,95C 159.142,123.974 174.476,142.307 202.5,150C 237.831,153.005 259.831,137.338 268.5,103C 268.561,101.289 267.894,99.956 266.5,99C 257.167,98.3333 247.833,98.3333 238.5,99C 236.299,105.403 233.299,111.403 229.5,117C 227.51,118.751 225.177,119.751 222.5,120C 217.177,120.499 211.844,120.666 206.5,120.5C 220.902,79.9641 235.902,39.6308 251.5,-0.5 Z M 261.5,30.5 C 262.79,31.0577 263.623,32.0577 264,33.5C 269.309,47.7621 274.809,61.9288 280.5,76C 269.59,76.8196 258.757,76.6529 248,75.5C 251.713,60.3276 256.213,45.3276 261.5,30.5 Z"/></g>
<g><path style="opacity:0.943" fill="#fefefe" d="M -0.5,223.5 C -0.5,218.833 -0.5,214.167 -0.5,209.5C 1.89468,203.936 5.89468,199.769 11.5,197C 21.1177,194.467 30.451,195.134 39.5,199C 44.0836,202.334 46.4169,206.834 46.5,212.5C 42.1667,212.5 37.8333,212.5 33.5,212.5C 33.0995,208.93 31.0995,206.764 27.5,206C 16.1623,204.339 10.9956,209.173 12,220.5C 16.0704,228.376 22.2371,230.542 30.5,227C 31.5,226 32.5,225 33.5,224C 29.8484,223.501 26.1817,223.335 22.5,223.5C 22.5,221.167 22.5,218.833 22.5,216.5C 30.5,216.5 38.5,216.5 46.5,216.5C 46.5,223.5 46.5,230.5 46.5,237.5C 43.8333,237.5 41.1667,237.5 38.5,237.5C 38.6495,236.448 38.4828,235.448 38,234.5C 36.2002,236.317 34.0336,237.484 31.5,238C 16.7134,241.43 6.04678,236.597 -0.5,223.5 Z"/></g>
<g><path style="opacity:0.939" fill="#fefefe" d="M 64.5,195.5 C 84.8189,192.696 94.9855,201.363 95,221.5C 92.8333,230.333 87.3333,235.833 78.5,238C 54.5175,240.358 45.0175,229.858 50,206.5C 53.5622,200.988 58.3955,197.322 64.5,195.5 Z M 67.5,205.5 C 80.1056,204.603 84.939,210.269 82,222.5C 78.7231,228.109 73.8897,229.942 67.5,228C 61.0919,224.677 58.9252,219.511 61,212.5C 62.3558,209.314 64.5225,206.981 67.5,205.5 Z"/></g>
<g><path style="opacity:0.943" fill="#fefefe" d="M 345.5,195.5 C 351.176,195.334 356.843,195.501 362.5,196C 370.992,198.32 375.658,203.82 376.5,212.5C 372.167,212.5 367.833,212.5 363.5,212.5C 363.099,208.93 361.099,206.764 357.5,206C 346.162,204.339 340.996,209.173 342,220.5C 346.07,228.376 352.237,230.542 360.5,227C 361.5,226 362.5,225 363.5,224C 359.848,223.501 356.182,223.335 352.5,223.5C 352.5,221.167 352.5,218.833 352.5,216.5C 360.5,216.5 368.5,216.5 376.5,216.5C 376.5,223.5 376.5,230.5 376.5,237.5C 373.833,237.5 371.167,237.5 368.5,237.5C 368.649,236.448 368.483,235.448 368,234.5C 366.2,236.317 364.034,237.484 361.5,238C 336.592,241.428 326.425,230.928 331,206.5C 334.321,200.66 339.154,196.993 345.5,195.5 Z"/></g>
<g><path style="opacity:0.943" fill="#fefefe" d="M 97.5,196.5 C 101.5,196.5 105.5,196.5 109.5,196.5C 109.5,206.833 109.5,217.167 109.5,227.5C 118.167,227.5 126.833,227.5 135.5,227.5C 135.5,217.167 135.5,206.833 135.5,196.5C 144.173,196.334 152.84,196.5 161.5,197C 175.775,200.709 180.941,209.876 177,224.5C 174.458,231.862 169.292,236.028 161.5,237C 140.169,237.5 118.836,237.667 97.5,237.5C 97.5,223.833 97.5,210.167 97.5,196.5 Z M 147.5,206.5 C 153.105,205.908 158.439,206.741 163.5,209C 168.287,216.51 166.954,222.51 159.5,227C 155.514,227.499 151.514,227.666 147.5,227.5C 147.5,220.5 147.5,213.5 147.5,206.5 Z"/></g>
<g><path style="opacity:0.937" fill="#fefefe" d="M 178.5,196.5 C 191.167,196.5 203.833,196.5 216.5,196.5C 216.5,199.833 216.5,203.167 216.5,206.5C 207.833,206.5 199.167,206.5 190.5,206.5C 190.5,208.5 190.5,210.5 190.5,212.5C 199.167,212.5 207.833,212.5 216.5,212.5C 216.5,215.833 216.5,219.167 216.5,222.5C 207.833,222.5 199.167,222.5 190.5,222.5C 190.5,224.167 190.5,225.833 190.5,227.5C 199.167,227.5 207.833,227.5 216.5,227.5C 216.5,230.833 216.5,234.167 216.5,237.5C 203.833,237.5 191.167,237.5 178.5,237.5C 178.5,223.833 178.5,210.167 178.5,196.5 Z"/></g>
<g><path style="opacity:0.955" fill="#fefefe" d="M 217.5,196.5 C 221.514,196.334 225.514,196.501 229.5,197C 235.363,203.896 240.863,211.063 246,218.5C 246.5,211.174 246.666,203.841 246.5,196.5C 250.5,196.5 254.5,196.5 258.5,196.5C 258.5,210.167 258.5,223.833 258.5,237.5C 254.116,237.826 249.783,237.492 245.5,236.5C 240.525,229.69 235.358,223.024 230,216.5C 229.5,223.492 229.334,230.492 229.5,237.5C 225.5,237.5 221.5,237.5 217.5,237.5C 217.5,223.833 217.5,210.167 217.5,196.5 Z"/></g>
<g><path style="opacity:0.946" fill="#fefefe" d="M 295.5,196.5 C 299.884,196.174 304.217,196.508 308.5,197.5C 315.373,210.746 322.373,223.913 329.5,237C 324.467,237.829 319.467,237.662 314.5,236.5C 313.833,235.167 313.167,233.833 312.5,232.5C 305.167,231.167 297.833,231.167 290.5,232.5C 289.833,233.833 289.167,235.167 288.5,236.5C 283.869,237.662 279.202,237.828 274.5,237C 281.896,223.709 288.896,210.209 295.5,196.5 Z M 301.5,210.5 C 303.599,213.856 305.599,217.356 307.5,221C 303.789,221.825 300.122,221.659 296.5,220.5C 298.18,217.14 299.847,213.807 301.5,210.5 Z"/></g>
<g><path style="opacity:0.917" fill="#fefefe" d="M 417.5,196.5 C 417.5,199.833 417.5,203.167 417.5,206.5C 408.5,206.5 399.5,206.5 390.5,206.5C 390.5,208.5 390.5,210.5 390.5,212.5C 399.5,212.5 408.5,212.5 417.5,212.5C 417.5,215.833 417.5,219.167 417.5,222.5C 408.5,222.5 399.5,222.5 390.5,222.5C 390.5,224.167 390.5,225.833 390.5,227.5C 399.5,227.5 408.5,227.5 417.5,227.5C 417.5,230.833 417.5,234.167 417.5,237.5C 404.5,237.5 391.5,237.5 378.5,237.5C 378.5,223.833 378.5,210.167 378.5,196.5C 391.5,196.5 404.5,196.5 417.5,196.5 Z"/></g>
<g><path style="opacity:0.851" fill="#fefefe" d="M 52.5,257.5 C 56.8461,257.334 61.1794,257.501 65.5,258C 62.6488,260.248 59.3155,261.082 55.5,260.5C 55.5,262.167 55.5,263.833 55.5,265.5C 57.8333,265.5 60.1667,265.5 62.5,265.5C 62.5,266.5 62.5,267.5 62.5,268.5C 59.7531,268.187 57.0865,268.52 54.5,269.5C 53.6518,271.409 53.3184,273.409 53.5,275.5C 52.1667,275.5 50.8333,275.5 49.5,275.5C 49.9857,269.406 50.9857,263.406 52.5,257.5 Z"/></g>
<g><path style="opacity:0.839" fill="#fdfdfd" d="M 79.5,257.5 C 89.1566,255.992 93.3233,259.992 92,269.5C 89.0812,275.025 84.5812,276.858 78.5,275C 73.9315,272.459 72.4315,268.625 74,263.5C 75.3597,260.977 77.193,258.977 79.5,257.5 Z M 82.5,260.5 C 88.4497,261.643 89.9497,264.976 87,270.5C 80.574,273.747 77.574,271.747 78,264.5C 79.3968,262.93 80.8968,261.596 82.5,260.5 Z"/></g>
<g><path style="opacity:0.839" fill="#fdfdfd" d="M 109.5,257.5 C 119.157,255.992 123.323,259.992 122,269.5C 119.081,275.025 114.581,276.858 108.5,275C 103.931,272.459 102.431,268.625 104,263.5C 105.36,260.977 107.193,258.977 109.5,257.5 Z M 112.5,260.5 C 118.45,261.643 119.95,264.976 117,270.5C 110.574,273.747 107.574,271.747 108,264.5C 109.397,262.93 110.897,261.596 112.5,260.5 Z"/></g>
<g><path style="opacity:0.853" fill="#fefefe" d="M 135.5,257.5 C 139.967,257.133 144.3,257.633 148.5,259C 152.093,265.637 150.76,270.97 144.5,275C 140.514,275.499 136.514,275.666 132.5,275.5C 133.069,269.418 134.069,263.418 135.5,257.5 Z M 138.5,260.5 C 144.989,259.632 147.489,262.299 146,268.5C 143.783,272.293 140.616,273.293 136.5,271.5C 137.681,267.928 138.348,264.262 138.5,260.5 Z"/></g>
<g><path style="opacity:0.871" fill="#fdfdfd" d="M 174.5,257.5 C 176.288,257.215 177.955,257.548 179.5,258.5C 181.249,264 182.915,269.5 184.5,275C 182.866,275.494 181.199,275.66 179.5,275.5C 179.5,274.167 179.5,272.833 179.5,271.5C 176.428,271.183 173.428,271.516 170.5,272.5C 169.543,275.15 167.876,275.817 165.5,274.5C 168.78,268.938 171.78,263.271 174.5,257.5 Z M 175.5,263.5 C 177.085,264.474 178.085,265.974 178.5,268C 173.28,269.042 172.28,267.542 175.5,263.5 Z"/></g>
<g><path style="opacity:0.847" fill="#fdfdfd" d="M 198.5,257.5 C 200.144,257.286 201.644,257.62 203,258.5C 204.667,261.833 206.333,265.167 208,268.5C 209.154,264.896 209.987,261.229 210.5,257.5C 211.833,257.5 213.167,257.5 214.5,257.5C 213.284,263.461 212.284,269.461 211.5,275.5C 209.712,275.785 208.045,275.452 206.5,274.5C 205.087,271.339 203.42,268.339 201.5,265.5C 200.192,268.706 199.525,272.04 199.5,275.5C 198.167,275.5 196.833,275.5 195.5,275.5C 195.986,269.406 196.986,263.406 198.5,257.5 Z"/></g>
<g><path style="opacity:0.853" fill="#fefefe" d="M 227.5,257.5 C 231.967,257.133 236.3,257.633 240.5,259C 244.093,265.637 242.76,270.97 236.5,275C 232.514,275.499 228.514,275.666 224.5,275.5C 225.069,269.418 226.069,263.418 227.5,257.5 Z M 230.5,260.5 C 236.989,259.632 239.489,262.299 238,268.5C 235.783,272.293 232.616,273.293 228.5,271.5C 229.681,267.928 230.348,264.262 230.5,260.5 Z"/></g>
<g><path style="opacity:0.824" fill="#fdfdfd" d="M 265.5,257.5 C 268.518,257.335 271.518,257.502 274.5,258C 277.064,259.481 277.064,260.981 274.5,262.5C 267.407,259.462 263.907,261.796 264,269.5C 268.924,274.065 271.757,273.065 272.5,266.5C 273.833,266.5 275.167,266.5 276.5,266.5C 275.613,275.417 270.947,277.917 262.5,274C 257.888,267.448 258.888,261.948 265.5,257.5 Z"/></g>
<g><path style="opacity:0.855" fill="#fdfdfd" d="M 291.5,257.5 C 305.408,254.872 308.742,259.372 301.5,271C 301.903,272.473 302.57,273.806 303.5,275C 299.496,276.105 297.496,274.605 297.5,270.5C 295.833,270.5 294.167,270.5 292.5,270.5C 292.5,272.167 292.5,273.833 292.5,275.5C 291.167,275.5 289.833,275.5 288.5,275.5C 288.986,269.406 289.986,263.406 291.5,257.5 Z M 294.5,260.5 C 296.527,260.338 298.527,260.505 300.5,261C 302.303,265.221 300.803,267.388 296,267.5C 295.167,267.167 294.333,266.833 293.5,266.5C 294.348,264.591 294.682,262.591 294.5,260.5 Z"/></g>
<g><path style="opacity:0.819" fill="#fdfdfd" d="M 318.5,257.5 C 319.833,257.5 321.167,257.5 322.5,257.5C 321.242,263.455 320.242,269.455 319.5,275.5C 318.167,275.5 316.833,275.5 315.5,275.5C 315.986,269.406 316.986,263.406 318.5,257.5 Z"/></g>
<g><path style="opacity:0.855" fill="#fdfdfd" d="M 336.5,257.5 C 337.833,257.5 339.167,257.5 340.5,257.5C 339.756,262.219 338.756,266.886 337.5,271.5C 340.107,272.318 342.774,272.818 345.5,273C 345.043,273.414 344.709,273.914 344.5,274.5C 340.893,275.489 337.226,275.823 333.5,275.5C 333.986,269.406 334.986,263.406 336.5,257.5 Z"/></g>
<g><path style="opacity:0.855" fill="#fdfdfd" d="M 359.5,257.5 C 360.833,257.5 362.167,257.5 363.5,257.5C 362.756,262.219 361.756,266.886 360.5,271.5C 363.107,272.318 365.774,272.818 368.5,273C 368.043,273.414 367.709,273.914 367.5,274.5C 363.893,275.489 360.226,275.823 356.5,275.5C 356.986,269.406 357.986,263.406 359.5,257.5 Z"/></g>
</svg>
